<svg width="78" height="78" viewBox="0 0 78 78" fill="none" xmlns="http://www.w3.org/2000/svg">
<rect x="2" y="2" width="74" height="74" rx="37" fill="#F5F8FF" stroke="#CCDDFF" stroke-width="4"/>
<g opacity="0.8">
<path d="M39.0004 38.5892C44.4695 38.5892 48.9032 34.1782 48.9032 28.737C48.9032 23.2958 44.4695 18.8848 39.0004 18.8848C33.5313 18.8848 29.0977 23.2958 29.0977 28.737C29.0977 34.1782 33.5313 38.5892 39.0004 38.5892Z" fill="#B7C4DB"/>
<path d="M44.1578 42.6945H33.8425C27.8596 42.6945 22.9082 47.6208 22.9082 53.573C22.9082 55.0098 23.5271 56.2415 24.765 56.8572C26.6217 57.8835 30.7479 59.1147 39.0002 59.1147C47.2525 59.1147 51.3785 57.8835 53.2353 56.8572C54.2668 56.2415 55.0921 55.0098 55.0921 53.573C55.0921 47.4154 50.1408 42.6945 44.1578 42.6945Z" fill="#B7C4DB"/>
</g>
</svg>
