<svg width="22" height="26" viewBox="0 0 22 26" fill="none" xmlns="http://www.w3.org/2000/svg">
<path d="M11 12.7419C14.4377 12.7419 17.2246 9.96935 17.2246 6.54915C17.2246 3.12894 14.4377 0.356323 11 0.356323C7.56223 0.356323 4.77539 3.12894 4.77539 6.54915C4.77539 9.96935 7.56223 12.7419 11 12.7419Z" fill="#A6B9BA"/>
<path d="M14.2419 15.3224H7.75799C3.9973 15.3224 0.88501 18.419 0.88501 22.1603C0.88501 23.0635 1.27404 23.8377 2.05212 24.2247C3.21922 24.8698 5.81281 25.6437 11 25.6437C16.1871 25.6437 18.7806 24.8698 19.9478 24.2247C20.5961 23.8377 21.1149 23.0635 21.1149 22.1603C21.1149 18.2899 18.0027 15.3224 14.2419 15.3224Z" fill="#A6B9BA"/>
</svg>
