<svg width="167" height="45" viewBox="0 0 167 45" fill="none" xmlns="http://www.w3.org/2000/svg">
<path d="M0.476074 44.9019V0.901855H49.0431V8.90185H10.3877V18.6249H45.4501V26.6249H10.3877V36.9019H49.0431V44.9019H0.476074Z" fill="white"/>
<path d="M55.8297 44.9019V0.901855H92.9364C97.5205 0.901855 101.072 2.05057 103.591 4.34801C106.152 6.64544 107.432 10.1326 107.432 14.8095C107.432 18.789 106.503 21.907 104.645 24.1634C102.786 26.4198 100.143 27.8352 96.7152 28.4095L106.937 44.9019H95.6621L86.1841 28.7172H65.7414V44.9019H55.8297ZM91.7594 8.90185H65.7414V20.6557L91.7594 20.7172C93.5765 20.7172 94.96 20.266 95.9099 19.3634C96.9011 18.4608 97.3967 16.9429 97.3967 14.8095C97.3967 12.6352 96.9011 11.1172 95.9099 10.2557C94.96 9.35314 93.5765 8.90185 91.7594 8.90185Z" fill="white"/>
<path d="M114.874 44.9019V0.901855H151.98C156.564 0.901855 160.116 2.05057 162.635 4.34801C165.196 6.64544 166.476 10.1326 166.476 14.8095C166.476 19.4865 165.196 22.9736 162.635 25.2711C160.116 27.5685 156.564 28.7172 151.98 28.7172H124.785V44.9019H114.874ZM150.803 8.90185H124.785V20.6557L150.803 20.7172C152.62 20.7172 154.004 20.266 154.954 19.3634C155.945 18.4608 156.441 16.9429 156.441 14.8095C156.441 12.6352 155.945 11.1172 154.954 10.2557C154.004 9.35314 152.62 8.90185 150.803 8.90185Z" fill="white"/>
</svg>
