<svg width="382" height="389" viewBox="0 0 382 389" fill="none" xmlns="http://www.w3.org/2000/svg">
<path d="M81.853 326C81.853 326 28.853 267 8.853 191C-10.595 117.096 31.935 27.068 143.853 2.99998C236.853 -17 347.98 74.049 352.853 153C357.853 234 304.853 324 304.853 324L81.853 326Z" fill="#E3EAFC"/>
<path d="M178.853 388.059C277.544 388.059 357.548 362.386 357.548 330.717C357.548 299.048 277.544 273.375 178.853 273.375C80.1625 273.375 0.157997 299.048 0.157997 330.717C0.157997 362.386 80.1625 388.059 178.853 388.059Z" fill="#8C9AED"/>
<path d="M358.313 37.72C377.503 56.37 388.763 90.89 369.043 113.31C358.223 125.62 340.853 130.35 325.433 133.76C306.943 137.85 288.073 139.19 269.173 138.25C268.253 138.2 267.853 138.97 267.953 139.68C267.823 139.81 267.713 139.96 267.633 140.17C261.673 157.7 246.893 171.02 229.093 175.41C239.563 166.29 246.923 152.19 245.413 138.2C245.953 137.82 246.013 136.86 245.183 136.62C218.223 129 200.543 100.98 208.633 73.52C217.433 43.68 246.923 27.87 275.183 20.92C290.863 17.07 307.403 14.54 323.343 18.36C336.463 21.52 348.633 28.33 358.313 37.72ZM353.913 41.71C354.553 42.72 356.183 41.75 355.503 40.78C354.453 39.26 353.233 37.89 351.793 36.73C350.533 35.73 348.933 34.51 347.303 34.28C346.883 34.22 346.453 34.71 346.843 35.07C347.993 36.13 349.473 36.81 350.663 37.86C351.933 38.99 353.003 40.28 353.913 41.71ZM346.613 41.33C347.153 41.94 348.123 41.29 347.933 40.56C347.613 39.36 346.543 38.28 345.633 37.49C344.663 36.65 343.583 36.01 342.393 35.52C341.753 35.25 341.303 36.33 341.923 36.64C342.943 37.17 343.863 37.83 344.663 38.67C345.433 39.48 345.873 40.5 346.613 41.33ZM231.453 122.54C232.483 122.96 233.003 121.21 231.923 120.86C229.613 120.1 227.813 118.59 226.453 116.6C226.033 115.99 225.133 116.51 225.463 117.18C226.683 119.69 228.903 121.5 231.453 122.54ZM229.003 123.89C229.623 124.12 230.123 123.21 229.643 122.78C228.253 121.52 226.583 120.61 225.213 119.3C223.743 117.9 222.533 116.3 221.383 114.64C221.013 114.12 220.243 114.57 220.523 115.15C222.153 118.5 225.403 122.56 229.003 123.89Z" fill="#F5F5F5"/>
<path d="M366.593 42.91C383.603 64.13 389.783 99.15 367.143 118.96C355.383 129.25 339.263 133.56 324.323 136.73C306.433 140.51 288.063 141.91 269.813 140.86C263.053 160.65 245.563 175.4 224.873 178.64C223.553 178.84 222.863 177.29 223.973 176.5C237.063 167.22 242.513 153.57 243.983 138.17C229.213 135.01 216.833 124.6 209.873 111.3C202.573 97.36 202.203 81.34 208.223 66.86C221.073 35.98 254.003 22.01 284.823 16.19C301.063 13.12 317.493 12.73 333.133 18.67C346.163 23.62 357.863 32.03 366.593 42.91ZM369.043 113.31C388.763 90.89 377.503 56.37 358.313 37.72C348.633 28.33 336.463 21.52 323.343 18.36C307.403 14.54 290.863 17.07 275.183 20.92C246.923 27.87 217.433 43.68 208.633 73.52C200.543 100.98 218.223 129 245.183 136.62C246.013 136.86 245.953 137.82 245.413 138.2C246.923 152.19 239.563 166.29 229.093 175.41C246.893 171.02 261.673 157.7 267.633 140.17C267.713 139.96 267.823 139.81 267.953 139.68C267.853 138.97 268.253 138.2 269.173 138.25C288.073 139.19 306.943 137.85 325.433 133.76C340.853 130.35 358.223 125.62 369.043 113.31Z" fill="#22262F"/>
<path d="M355.503 40.78C356.183 41.75 354.553 42.72 353.913 41.71C353.003 40.28 351.933 38.99 350.663 37.86C349.473 36.81 347.993 36.13 346.843 35.07C346.453 34.71 346.883 34.22 347.303 34.28C348.933 34.51 350.533 35.73 351.793 36.73C353.233 37.89 354.453 39.26 355.503 40.78Z" fill="#22262F"/>
<path d="M347.933 40.56C348.123 41.29 347.153 41.94 346.613 41.33C345.873 40.5 345.433 39.48 344.663 38.67C343.863 37.83 342.943 37.17 341.923 36.64C341.303 36.33 341.753 35.25 342.393 35.52C343.583 36.01 344.663 36.65 345.633 37.49C346.543 38.28 347.613 39.36 347.933 40.56Z" fill="#22262F"/>
<path d="M231.923 120.86C233.003 121.21 232.483 122.96 231.453 122.54C228.903 121.5 226.683 119.69 225.463 117.18C225.133 116.51 226.033 115.99 226.453 116.6C227.813 118.59 229.613 120.1 231.923 120.86Z" fill="#22262F"/>
<path d="M229.643 122.78C230.123 123.21 229.623 124.12 229.003 123.89C225.403 122.56 222.153 118.5 220.523 115.15C220.243 114.57 221.013 114.12 221.383 114.64C222.533 116.3 223.743 117.9 225.213 119.3C226.583 120.61 228.253 121.52 229.643 122.78Z" fill="#22262F"/>
<path d="M247.608 76.1344V60.702H251.597V86.8079H247.608V82.3889H247.337C246.729 83.7146 245.782 84.842 244.498 85.7711C243.213 86.6889 241.59 87.1478 239.629 87.1478C238.007 87.1478 236.564 86.7909 235.302 86.077C234.04 85.3519 233.048 84.2641 232.327 82.8138C231.606 81.3521 231.245 79.5109 231.245 77.2901V60.702H235.234V77.0182C235.234 78.9217 235.764 80.44 236.823 81.5731C237.894 82.7062 239.257 83.2727 240.914 83.2727C241.906 83.2727 242.914 83.0177 243.94 82.5079C244.976 81.998 245.844 81.2162 246.543 80.1624C247.253 79.1087 247.608 77.766 247.608 76.1344Z" fill="#22262F"/>
<path d="M262.893 71.1035V86.8079H258.904V60.702H262.758V64.781H263.096C263.704 63.4553 264.628 62.3902 265.868 61.5858C267.108 60.7699 268.708 60.362 270.669 60.362C272.427 60.362 273.965 60.7246 275.283 61.4498C276.602 62.1636 277.627 63.2514 278.36 64.713C279.092 66.1634 279.459 67.9989 279.459 70.2197V86.8079H275.469V70.4917C275.469 68.4408 274.94 66.8432 273.88 65.6988C272.821 64.5431 271.367 63.9652 269.519 63.9652C268.246 63.9652 267.108 64.2428 266.105 64.798C265.113 65.3532 264.33 66.1634 263.755 67.2284C263.18 68.2935 262.893 69.5852 262.893 71.1035Z" fill="#22262F"/>
<path d="M296.552 87.3517C294.389 87.3517 292.479 86.8022 290.822 85.7031C289.166 84.5927 287.87 83.0291 286.934 81.0122C285.999 78.984 285.531 76.5876 285.531 73.8229C285.531 71.0809 285.999 68.7014 286.934 66.6846C287.87 64.6677 289.171 63.1097 290.839 62.0107C292.507 60.9116 294.434 60.362 296.62 60.362C298.31 60.362 299.646 60.6453 300.626 61.2118C301.618 61.7671 302.373 62.4016 302.891 63.1154C303.421 63.8179 303.832 64.3958 304.125 64.849H304.463V52H308.453V86.8079H304.599V82.7968H304.125C303.832 83.2727 303.415 83.8732 302.874 84.5984C302.334 85.3122 301.562 85.9524 300.559 86.5189C299.556 87.0741 298.22 87.3517 296.552 87.3517ZM297.093 83.7486C298.694 83.7486 300.046 83.3293 301.15 82.4909C302.255 81.6411 303.094 80.4683 303.669 78.9727C304.244 77.4657 304.531 75.7265 304.531 73.7549C304.531 71.806 304.249 70.1008 303.686 68.6391C303.122 67.1661 302.288 66.0217 301.184 65.2059C300.08 64.3788 298.716 63.9652 297.093 63.9652C295.403 63.9652 293.994 64.4014 292.867 65.2739C291.752 66.135 290.912 67.3078 290.349 68.7921C289.797 70.2651 289.521 71.9193 289.521 73.7549C289.521 75.6131 289.802 77.3014 290.366 78.8197C290.94 80.3267 291.786 81.5278 292.901 82.4229C294.028 83.3067 295.426 83.7486 297.093 83.7486Z" fill="#22262F"/>
<path d="M327.199 87.3517C324.697 87.3517 322.539 86.7965 320.725 85.6861C318.922 84.5644 317.53 83.0007 316.549 80.9952C315.58 78.9784 315.096 76.6329 315.096 73.9589C315.096 71.2848 315.58 68.928 316.549 66.8885C317.53 64.8377 318.893 63.24 320.64 62.0956C322.398 60.9399 324.449 60.362 326.793 60.362C328.145 60.362 329.481 60.5887 330.799 61.0419C332.118 61.4951 333.318 62.2316 334.4 63.2514C335.482 64.2598 336.344 65.5968 336.986 67.2624C337.628 68.928 337.95 70.9789 337.95 73.415V75.1146H317.936V71.6474H333.893C333.893 70.1744 333.6 68.8601 333.014 67.7043C332.439 66.5486 331.616 65.6365 330.546 64.968C329.486 64.2995 328.236 63.9652 326.793 63.9652C325.204 63.9652 323.829 64.3618 322.669 65.1549C321.519 65.9367 320.635 66.9565 320.015 68.2142C319.395 69.4719 319.085 70.8203 319.085 72.2593V74.5707C319.085 76.5423 319.423 78.2135 320.099 79.5845C320.787 80.9442 321.739 81.981 322.956 82.6948C324.173 83.3973 325.587 83.7486 327.199 83.7486C328.247 83.7486 329.193 83.6013 330.039 83.3067C330.895 83.0007 331.633 82.5475 332.253 81.947C332.873 81.3351 333.352 80.576 333.69 79.6695L337.544 80.7573C337.138 82.0716 336.456 83.2274 335.499 84.2245C334.541 85.2102 333.357 85.9807 331.949 86.5359C330.54 87.0798 328.957 87.3517 327.199 87.3517Z" fill="#22262F"/>
<path d="M344.018 86.8079V60.702H347.872V64.645H348.142C348.616 63.3533 349.472 62.3053 350.712 61.5008C351.951 60.6963 353.349 60.2941 354.904 60.2941C355.197 60.2941 355.563 60.2997 356.003 60.3111C356.442 60.3224 356.775 60.3394 357 60.362V64.4411C356.865 64.4071 356.555 64.3561 356.07 64.2881C355.597 64.2088 355.096 64.1692 354.566 64.1692C353.304 64.1692 352.177 64.4354 351.185 64.968C350.205 65.4892 349.427 66.2143 348.852 67.1435C348.289 68.0612 348.007 69.1093 348.007 70.2877V86.8079H344.018Z" fill="#22262F"/>
<path d="M231.16 103C230.092 103 229.173 102.747 228.402 102.24C227.631 101.733 227.038 101.035 226.623 100.145C226.208 99.2554 226 98.2391 226 97.0961C226 95.9332 226.213 94.907 226.638 94.0175C227.068 93.1229 227.666 92.4247 228.432 91.9228C229.203 91.4159 230.102 91.1624 231.13 91.1624C231.931 91.1624 232.653 91.3115 233.295 91.6097C233.938 91.9079 234.464 92.3253 234.874 92.862C235.285 93.3987 235.539 94.0249 235.638 94.7405H233.888C233.755 94.2187 233.458 93.7565 232.999 93.354C232.544 92.9465 231.931 92.7428 231.16 92.7428C230.478 92.7428 229.88 92.9217 229.366 93.2795C228.857 93.6323 228.459 94.1318 228.172 94.7778C227.891 95.4189 227.75 96.1718 227.75 97.0365C227.75 97.9211 227.888 98.6914 228.165 99.3473C228.447 100.003 228.842 100.513 229.351 100.875C229.865 101.238 230.468 101.42 231.16 101.42C231.615 101.42 232.027 101.34 232.398 101.181C232.769 101.022 233.083 100.794 233.34 100.495C233.597 100.197 233.78 99.8393 233.888 99.4219H235.638C235.539 100.098 235.295 100.707 234.904 101.248C234.519 101.785 234.007 102.212 233.369 102.53C232.737 102.843 232 103 231.16 103Z" fill="#22262F"/>
<path d="M242.822 103C241.794 103 240.892 102.754 240.116 102.262C239.345 101.77 238.742 101.082 238.307 100.197C237.877 99.3126 237.662 98.2789 237.662 97.0961C237.662 95.9034 237.877 94.8623 238.307 93.9727C238.742 93.0832 239.345 92.3924 240.116 91.9004C240.892 91.4084 241.794 91.1624 242.822 91.1624C243.85 91.1624 244.75 91.4084 245.521 91.9004C246.297 92.3924 246.9 93.0832 247.33 93.9727C247.765 94.8623 247.982 95.9034 247.982 97.0961C247.982 98.2789 247.765 99.3126 247.33 100.197C246.9 101.082 246.297 101.77 245.521 102.262C244.75 102.754 243.85 103 242.822 103ZM242.822 101.42C243.603 101.42 244.246 101.218 244.75 100.816C245.254 100.413 245.627 99.8841 245.869 99.2281C246.111 98.5721 246.233 97.8614 246.233 97.0961C246.233 96.3308 246.111 95.6177 245.869 94.9567C245.627 94.2958 245.254 93.7615 244.75 93.354C244.246 92.9465 243.603 92.7428 242.822 92.7428C242.041 92.7428 241.399 92.9465 240.895 93.354C240.39 93.7615 240.017 94.2958 239.775 94.9567C239.533 95.6177 239.412 96.3308 239.412 97.0961C239.412 97.8614 239.533 98.5721 239.775 99.2281C240.017 99.8841 240.39 100.413 240.895 100.816C241.399 101.218 242.041 101.42 242.822 101.42Z" fill="#22262F"/>
<path d="M252.403 95.8736V102.761H250.653V91.3115H252.343V93.1006H252.492C252.759 92.5191 253.164 92.052 253.708 91.6991C254.251 91.3413 254.953 91.1624 255.813 91.1624C256.584 91.1624 257.259 91.3214 257.837 91.6395C258.415 91.9526 258.865 92.4297 259.186 93.0707C259.508 93.7069 259.668 94.5119 259.668 95.486V102.761H257.919V95.6052C257.919 94.7057 257.686 94.005 257.222 93.5031C256.757 92.9962 256.12 92.7428 255.309 92.7428C254.75 92.7428 254.251 92.8645 253.811 93.108C253.376 93.3515 253.033 93.7069 252.781 94.174C252.529 94.6411 252.403 95.2077 252.403 95.8736Z" fill="#22262F"/>
<path d="M270.932 93.8758L269.36 94.3231C269.261 94.0597 269.116 93.8038 268.923 93.5553C268.735 93.3018 268.478 93.0931 268.152 92.9291C267.825 92.7651 267.408 92.6831 266.899 92.6831C266.202 92.6831 265.621 92.8446 265.156 93.1677C264.697 93.4857 264.467 93.8907 264.467 94.3827C264.467 94.82 264.625 95.1654 264.941 95.4189C265.258 95.6723 265.752 95.8835 266.424 96.0525L268.115 96.47C269.133 96.7184 269.891 97.0986 270.391 97.6105C270.89 98.1174 271.139 98.7709 271.139 99.571C271.139 100.227 270.952 100.813 270.576 101.33C270.205 101.847 269.686 102.255 269.019 102.553C268.352 102.851 267.576 103 266.691 103C265.53 103 264.568 102.747 263.807 102.24C263.046 101.733 262.564 100.992 262.361 100.018L264.022 99.6008C264.18 100.217 264.479 100.679 264.919 100.987C265.364 101.295 265.945 101.449 266.662 101.449C267.477 101.449 268.125 101.276 268.604 100.928C269.088 100.575 269.331 100.152 269.331 99.6604C269.331 99.2629 269.192 98.9299 268.915 98.6615C268.639 98.3882 268.213 98.1845 267.64 98.0503L265.742 97.603C264.699 97.3545 263.933 96.9694 263.444 96.4476C262.96 95.9208 262.717 95.2623 262.717 94.4722C262.717 93.8261 262.898 93.2546 263.259 92.7577C263.624 92.2607 264.121 91.8706 264.749 91.5873C265.381 91.3041 266.098 91.1624 266.899 91.1624C268.026 91.1624 268.91 91.4109 269.553 91.9079C270.2 92.4048 270.66 93.0608 270.932 93.8758Z" fill="#22262F"/>
<path d="M278.726 91.3115V92.8024H272.824V91.3115H278.726ZM274.544 88.5683H276.294V99.4815C276.294 99.9785 276.366 100.351 276.509 100.6C276.657 100.843 276.845 101.007 277.072 101.092C277.305 101.171 277.549 101.211 277.806 101.211C277.999 101.211 278.157 101.201 278.281 101.181C278.404 101.156 278.503 101.136 278.577 101.121L278.933 102.702C278.815 102.747 278.649 102.791 278.437 102.836C278.224 102.886 277.955 102.911 277.629 102.911C277.134 102.911 276.65 102.804 276.175 102.59C275.706 102.376 275.315 102.051 275.004 101.613C274.698 101.176 274.544 100.625 274.544 99.9586V88.5683Z" fill="#22262F"/>
<path d="M281.358 102.761V91.3115H283.048V93.0409H283.167C283.374 92.4744 283.75 92.0147 284.294 91.6619C284.837 91.309 285.45 91.1326 286.132 91.1326C286.261 91.1326 286.421 91.1351 286.614 91.1401C286.807 91.145 286.953 91.1525 287.052 91.1624V92.9515C286.992 92.9366 286.856 92.9142 286.644 92.8844C286.436 92.8496 286.216 92.8322 285.984 92.8322C285.43 92.8322 284.936 92.949 284.501 93.1826C284.071 93.4112 283.73 93.7292 283.478 94.1367C283.231 94.5393 283.107 94.999 283.107 95.5158V102.761H281.358Z" fill="#22262F"/>
<path d="M296.302 98.0801V91.3115H298.052V102.761H296.302V100.823H296.184C295.917 101.405 295.502 101.899 294.938 102.307C294.375 102.709 293.663 102.911 292.803 102.911C292.091 102.911 291.459 102.754 290.905 102.441C290.351 102.123 289.916 101.646 289.6 101.01C289.284 100.369 289.126 99.561 289.126 98.587V91.3115H290.875V98.4677C290.875 99.3026 291.108 99.9685 291.572 100.466C292.042 100.962 292.64 101.211 293.366 101.211C293.801 101.211 294.244 101.099 294.693 100.875C295.148 100.652 295.529 100.309 295.835 99.8468C296.147 99.3846 296.302 98.7957 296.302 98.0801Z" fill="#22262F"/>
<path d="M305.883 103C304.815 103 303.896 102.747 303.125 102.24C302.354 101.733 301.761 101.035 301.346 100.145C300.93 99.2554 300.723 98.2391 300.723 97.0961C300.723 95.9332 300.935 94.907 301.36 94.0175C301.79 93.1229 302.388 92.4247 303.155 91.9228C303.926 91.4159 304.825 91.1624 305.853 91.1624C306.654 91.1624 307.376 91.3115 308.018 91.6097C308.661 91.9079 309.187 92.3253 309.597 92.862C310.007 93.3987 310.262 94.0249 310.361 94.7405H308.611C308.478 94.2187 308.181 93.7565 307.722 93.354C307.267 92.9465 306.654 92.7428 305.883 92.7428C305.201 92.7428 304.603 92.9217 304.089 93.2795C303.58 93.6323 303.182 94.1318 302.895 94.7778C302.613 95.4189 302.472 96.1718 302.472 97.0365C302.472 97.9211 302.611 98.6914 302.888 99.3473C303.169 100.003 303.565 100.513 304.074 100.875C304.588 101.238 305.191 101.42 305.883 101.42C306.338 101.42 306.75 101.34 307.121 101.181C307.492 101.022 307.806 100.794 308.063 100.495C308.32 100.197 308.502 99.8393 308.611 99.4219H310.361C310.262 100.098 310.017 100.707 309.627 101.248C309.241 101.785 308.73 102.212 308.092 102.53C307.46 102.843 306.723 103 305.883 103Z" fill="#22262F"/>
<path d="M317.871 91.3115V92.8024H311.97V91.3115H317.871ZM313.69 88.5683H315.439V99.4815C315.439 99.9785 315.511 100.351 315.654 100.6C315.803 100.843 315.99 101.007 316.218 101.092C316.45 101.171 316.695 101.211 316.952 101.211C317.145 101.211 317.303 101.201 317.426 101.181C317.55 101.156 317.649 101.136 317.723 101.121L318.079 102.702C317.96 102.747 317.795 102.791 317.582 102.836C317.369 102.886 317.1 102.911 316.774 102.911C316.28 102.911 315.795 102.804 315.321 102.59C314.851 102.376 314.461 102.051 314.149 101.613C313.843 101.176 313.69 100.625 313.69 99.9586V88.5683Z" fill="#22262F"/>
<path d="M320.503 102.761V91.3115H322.253V102.761H320.503ZM321.393 89.4032C321.052 89.4032 320.758 89.2864 320.51 89.0528C320.268 88.8193 320.147 88.5385 320.147 88.2105C320.147 87.8825 320.268 87.6017 320.51 87.3681C320.758 87.1346 321.052 87.0178 321.393 87.0178C321.734 87.0178 322.025 87.1346 322.268 87.3681C322.515 87.6017 322.638 87.8825 322.638 88.2105C322.638 88.5385 322.515 88.8193 322.268 89.0528C322.025 89.2864 321.734 89.4032 321.393 89.4032Z" fill="#22262F"/>
<path d="M330.084 103C329.056 103 328.154 102.754 327.378 102.262C326.607 101.77 326.004 101.082 325.569 100.197C325.139 99.3126 324.924 98.2789 324.924 97.0961C324.924 95.9034 325.139 94.8623 325.569 93.9727C326.004 93.0832 326.607 92.3924 327.378 91.9004C328.154 91.4084 329.056 91.1624 330.084 91.1624C331.112 91.1624 332.011 91.4084 332.782 91.9004C333.558 92.3924 334.161 93.0832 334.591 93.9727C335.026 94.8623 335.244 95.9034 335.244 97.0961C335.244 98.2789 335.026 99.3126 334.591 100.197C334.161 101.082 333.558 101.77 332.782 102.262C332.011 102.754 331.112 103 330.084 103ZM330.084 101.42C330.865 101.42 331.507 101.218 332.011 100.816C332.515 100.413 332.889 99.8841 333.131 99.2281C333.373 98.5721 333.494 97.8614 333.494 97.0961C333.494 96.3308 333.373 95.6177 333.131 94.9567C332.889 94.2958 332.515 93.7615 332.011 93.354C331.507 92.9465 330.865 92.7428 330.084 92.7428C329.303 92.7428 328.66 92.9465 328.156 93.354C327.652 93.7615 327.279 94.2958 327.037 94.9567C326.794 95.6177 326.673 96.3308 326.673 97.0961C326.673 97.8614 326.794 98.5721 327.037 99.2281C327.279 99.8841 327.652 100.413 328.156 100.816C328.66 101.218 329.303 101.42 330.084 101.42Z" fill="#22262F"/>
<path d="M339.664 95.8736V102.761H337.915V91.3115H339.605V93.1006H339.753C340.02 92.5191 340.425 92.052 340.969 91.6991C341.513 91.3413 342.215 91.1624 343.075 91.1624C343.846 91.1624 344.52 91.3214 345.099 91.6395C345.677 91.9526 346.127 92.4297 346.448 93.0707C346.769 93.7069 346.93 94.5119 346.93 95.486V102.761H345.18V95.6052C345.18 94.7057 344.948 94.005 344.483 93.5031C344.019 92.9962 343.381 92.7428 342.571 92.7428C342.012 92.7428 341.513 92.8645 341.073 93.108C340.638 93.3515 340.294 93.7069 340.042 94.174C339.79 94.6411 339.664 95.2077 339.664 95.8736Z" fill="#22262F"/>
<path d="M141.476 218.583C140.706 220.773 139.936 222.953 139.176 225.133C120.846 221.813 112.226 205.333 112.096 188.033C112.466 188.003 112.846 187.943 113.216 187.843C114.006 187.613 113.846 186.623 113.176 186.413L116.036 185.613C116.116 185.693 116.226 185.763 116.356 185.803C117.036 185.993 117.736 186.083 118.436 186.093C118.016 200.053 127.226 215.093 141.276 218.583C141.346 218.593 141.406 218.593 141.476 218.583Z" fill="#D74761"/>
<path d="M114.946 163.233C114.946 163.663 114.956 164.093 115.006 164.513C115.006 165.693 114.886 166.823 114.796 167.583C114.786 167.653 114.796 167.713 114.816 167.763C112.686 167.773 110.566 167.933 108.456 168.233C108.496 168.143 108.526 168.043 108.526 167.923C108.386 165.213 107.536 160.183 111.436 159.543C113.916 159.143 114.746 161.063 114.946 163.233Z" fill="#D74761"/>
<path d="M131.276 167.633C133.436 167.413 136.846 167.933 135.666 170.923C134.446 174.033 130.816 175.853 127.656 176.543C127.176 176.163 126.316 176.233 126.196 176.963C125.436 181.753 121.436 184.913 116.546 184.363C115.846 184.293 115.636 185.183 116.036 185.613L113.176 186.413C113.126 186.403 113.076 186.393 113.016 186.383C112.676 186.343 112.346 186.303 112.026 186.263C111.776 185.663 110.946 185.593 110.496 186.023C109.546 185.823 108.646 185.503 107.726 184.873C106.196 183.813 105.176 182.343 104.486 180.673C104.366 179.303 104.226 177.933 104.036 176.543C104.006 176.323 103.896 176.193 103.746 176.123C102.806 173.513 101.236 171.233 100.656 168.453C100.236 166.443 99.956 162.883 102.956 162.863C105.576 162.843 106.526 165.813 106.176 167.963C106.136 168.233 106.246 168.443 106.416 168.573C105.566 168.743 104.706 168.923 103.866 169.143C103.056 169.343 103.406 170.503 104.206 170.373C109.516 169.443 114.646 169.173 120.016 169.533C120.996 169.603 120.966 168.133 120.016 168.023C118.996 167.913 117.976 167.853 116.956 167.803C116.996 167.723 117.036 167.623 117.026 167.493C116.966 165.863 116.496 164.243 116.646 162.613C116.896 160.073 119.656 157.173 122.026 159.533C124.576 162.083 124.536 166.193 123.626 169.393C123.476 169.913 124.056 170.283 124.466 170.103C124.716 170.343 125.136 170.443 125.486 170.163C127.136 168.783 129.116 167.853 131.276 167.633Z" fill="#D74761"/>
<path d="M184.336 353.863C184.186 355.203 184.186 356.533 184.306 357.863C165.746 348.583 146.936 339.803 128.326 330.643C109.566 321.403 91.006 311.503 71.916 302.973C71.946 302.883 71.976 302.803 71.976 302.703C72.066 300.383 71.706 298.073 71.096 295.843C90.906 307.083 110.916 317.973 131.106 328.513C141.316 333.843 151.606 339.053 161.936 344.173C166.806 346.583 171.686 349.003 176.596 351.353C179.246 352.623 181.696 353.683 184.336 353.863Z" fill="#D74761"/>
<path d="M298.846 298.443C298.966 299.533 299.056 300.633 299.036 301.743C280.356 311.903 261.526 321.793 242.576 331.443C224.066 340.873 204.696 349.123 186.576 359.283C186.506 359.073 186.356 358.883 186.086 358.753C186.036 358.723 185.976 358.693 185.926 358.673C185.716 357.083 185.646 355.483 185.636 353.873C186.586 353.833 187.566 353.663 188.596 353.353C193.016 351.983 197.306 349.353 201.476 347.363C206.966 344.743 212.456 342.123 217.946 339.483C228.046 334.633 238.126 329.723 248.166 324.733C258.486 319.593 268.756 314.363 278.956 308.993C283.776 306.453 288.566 303.883 293.346 301.273C294.736 300.513 297.096 299.673 298.846 298.443Z" fill="#D74761"/>
<path d="M294.726 291.523C299.226 295.843 296.326 296.593 292.836 298.503C290.876 299.573 288.906 300.643 286.936 301.713C282.136 304.293 277.326 306.843 272.496 309.353C263.696 313.943 254.846 318.433 245.956 322.843C227.886 331.813 209.756 340.723 191.466 349.213C187.246 351.173 184.816 351.863 180.326 350.163C178.016 349.293 175.816 348.063 173.606 346.983C168.716 344.603 163.826 342.193 158.956 339.763C150.066 335.343 141.226 330.843 132.406 326.293C112.476 316.013 92.786 305.313 73.266 294.273C91.506 281.603 110.736 270.093 128.376 256.593C124.696 267.593 121.116 278.613 117.766 289.693C117.756 289.693 117.756 289.693 117.756 289.693C117.716 289.653 117.666 289.603 117.606 289.563C117.476 289.473 117.296 289.653 117.386 289.783C117.496 289.933 117.596 290.003 117.726 290.083C117.746 290.553 118.096 290.853 118.516 290.953C118.536 291.063 118.566 291.163 118.636 291.273C124.786 301.083 139.136 303.053 149.536 304.933C163.706 307.473 178.126 308.373 192.506 308.043C205.886 307.743 219.696 306.903 232.836 304.193C242.176 302.273 251.866 298.413 256.336 289.413C256.726 288.643 256.306 287.923 255.706 287.623C255.616 286.213 254.956 284.843 254.466 283.343C253.076 279.103 251.686 274.853 250.286 270.613C249.576 268.453 248.856 266.283 248.136 264.123C255.856 267.963 263.476 271.973 270.926 276.313C274.866 278.613 278.756 280.983 282.596 283.433C286.496 285.923 291.396 288.323 294.726 291.523ZM198.506 341.023C199.516 340.363 198.636 338.843 197.556 339.403C193.446 341.573 189.506 343.863 185.256 345.793C184.556 346.103 185.046 347.293 185.776 347.033C190.106 345.493 194.676 343.583 198.506 341.023ZM195.976 338.473C197.016 337.893 196.096 336.353 195.046 336.883C192.536 338.163 190.106 339.663 187.656 341.073C186.876 341.523 187.566 342.663 188.356 342.273C190.896 341.023 193.506 339.843 195.976 338.473Z" fill="#D74761"/>
<path d="M279.076 259.773C279.376 262.723 279.286 266.563 275.646 267.133C271.966 267.713 270.236 263.853 271.536 260.843C271.656 260.563 271.536 260.233 271.336 260.043C273.906 260.373 276.506 260.253 279.076 259.773Z" fill="#D74761"/>
<path d="M284.536 253.633C286.736 255.763 290.636 259.203 288.476 262.643C287.586 264.043 285.646 264.623 284.086 264.153C282.576 263.693 281.556 262.393 281.036 260.943C281.006 260.413 280.946 259.893 280.886 259.383C281.546 259.213 282.196 259.033 282.856 258.823C283.956 258.473 283.476 256.723 282.376 257.083C277.336 258.743 272.406 258.793 267.196 258.063C266.566 257.973 266.296 258.823 266.926 259.043C267.716 259.313 268.506 259.523 269.306 259.703C269.136 259.883 269.026 260.133 269.086 260.453C269.366 261.923 269.506 263.503 268.706 264.863C267.886 266.253 266.116 267.073 264.606 266.263C261.846 264.783 262.986 260.843 263.456 258.383C263.966 258.013 264.026 257.113 263.236 256.943C260.446 256.353 256.766 257.903 254.336 256.133C252.106 254.523 254.046 252.303 255.836 251.543C257.596 250.783 259.496 250.833 261.256 251.603C261.676 251.793 262.066 251.533 262.186 251.203C262.526 251.403 262.986 251.353 263.066 250.863C263.606 247.723 265.046 245.763 267.916 244.373C268.716 243.993 268.146 242.773 267.326 242.983C266.676 243.143 266.046 243.433 265.456 243.813C259.996 231.203 247.416 225.113 234.386 223.463C233.406 220.673 232.446 217.883 231.466 215.103C248.926 215.033 262.856 225.633 271.896 239.943C271.716 239.993 271.536 240.033 271.356 240.093C270.646 240.313 270.946 241.313 271.656 241.193C275.906 240.443 280.486 242.573 282.406 246.453C282.356 246.623 282.356 246.823 282.466 247.023C283.416 248.813 283.536 250.693 283.416 252.683C283.386 253.183 283.936 253.303 284.266 253.073C284.286 253.263 284.356 253.453 284.536 253.633ZM279.406 250.073C279.786 250.863 280.976 250.293 280.776 249.493C279.976 246.173 276.286 243.933 273.026 244.033C272.176 244.063 272.186 245.293 273.026 245.343C276.156 245.523 278.076 247.383 279.406 250.073Z" fill="#D74761"/>
<path d="M239.266 245.883C239.346 246.113 239.416 246.343 239.496 246.583C221.936 252.243 203.766 255.353 185.286 255.333C168.596 255.323 149.856 254.153 135.236 245.283C139.466 232.493 143.666 219.693 148.056 206.963C158.156 214.283 171.896 214.343 183.896 214.383C198.176 214.433 212.596 212.753 226.006 207.683C227.856 212.833 229.686 218.003 231.486 223.173C231.466 223.163 231.436 223.163 231.416 223.163C230.686 223.103 230.496 224.353 231.246 224.463C231.486 224.503 231.736 224.553 231.986 224.593C234.446 231.673 236.876 238.773 239.266 245.883ZM228.366 230.883C228.626 231.593 229.906 231.553 229.796 230.683C229.286 226.573 227.436 222.083 225.426 218.463C225.166 218.003 224.376 218.313 224.556 218.833C225.236 220.823 226.026 222.773 226.656 224.783C227.286 226.793 227.656 228.903 228.366 230.883ZM223.756 233.913C224.146 234.983 225.686 234.363 225.206 233.303C224.006 230.633 223.216 227.883 222.336 225.103C222.196 224.673 221.436 224.713 221.496 225.223C221.816 228.183 222.736 231.123 223.756 233.913Z" fill="#D74761"/>
<path d="M207.616 159.663C208.556 161.943 209.476 164.233 210.396 166.523C202.686 168.443 194.866 169.463 186.896 169.233C178.606 168.993 170.826 167.113 162.816 165.253C163.266 164.023 163.696 162.783 164.146 161.553C166.716 154.503 169.336 147.463 171.966 140.433C174.316 134.163 176.206 124.663 183.236 122.023C183.496 121.923 183.656 121.753 183.756 121.563C192.006 121.873 195.016 130.513 197.956 137.093C201.296 144.563 204.506 152.093 207.616 159.663ZM175.446 150.413C176.026 149.483 174.596 148.683 173.986 149.563C172.266 152.063 171.006 155.063 170.466 158.043C170.346 158.733 171.256 158.983 171.506 158.333C172.576 155.503 173.836 152.973 175.446 150.413ZM171.646 151.563C172.106 150.673 170.716 149.903 170.316 150.793C169.006 153.693 167.616 156.563 166.406 159.503C166.186 160.043 167.066 160.393 167.336 159.893C168.866 157.173 170.216 154.343 171.646 151.563Z" fill="#D74761"/>
<path d="M252.846 287.353C252.706 287.443 252.586 287.563 252.496 287.733L252.296 288.083C252.006 288.603 252.136 289.133 252.486 289.573C252.656 289.783 252.816 289.923 252.966 290.043C247.786 297.803 238.396 300.663 229.446 302.203C216.996 304.353 204.166 305.233 191.546 305.473C178.676 305.713 165.746 305.013 153.026 302.943C141.356 301.043 128.616 299.013 120.056 290.183C120.006 290.133 119.956 290.113 119.906 290.073C125.086 275.813 129.906 261.403 134.676 246.983C147.556 256.573 167.216 257.433 182.536 257.703C202.086 258.043 221.696 255.033 240.236 248.803C241.666 253.083 243.086 257.373 244.516 261.663C244.516 261.873 244.576 262.083 244.706 262.263C245.206 263.763 245.716 265.273 246.216 266.773C247.406 270.413 248.606 274.053 249.796 277.693C250.396 279.513 250.986 281.333 251.586 283.153C251.886 284.063 252.186 284.973 252.476 285.883C252.496 286.453 252.626 286.943 252.846 287.353ZM138.046 293.433C139.036 293.563 139.186 291.993 138.276 291.733C136.436 291.193 134.576 290.823 132.776 290.143C130.996 289.463 129.386 288.453 127.626 287.763C127.136 287.573 126.786 288.283 127.136 288.613C129.806 291.173 134.416 292.953 138.046 293.433ZM132.846 294.863C133.946 295.163 134.376 293.523 133.316 293.163C129.416 291.823 126.116 289.933 123.166 287.023C122.566 286.433 121.716 287.313 122.246 287.943C124.986 291.183 128.736 293.733 132.846 294.863Z" fill="#F5F5F5"/>
<path d="M215.956 187.223C217.256 191.453 217.286 196.183 213.996 199.513C210.706 202.843 202.516 205.093 200.236 198.863C200.016 198.273 199.466 198.063 198.986 198.153L198.436 196.223C199.056 196.223 199.686 196.013 200.166 195.593C201.426 194.493 201.016 192.433 199.666 191.603C199.316 191.393 198.866 191.233 198.446 191.253C198.356 191.253 198.266 191.273 198.176 191.293L197.526 190.013C197.936 190.013 198.326 189.743 198.316 189.193C198.226 184.273 201.496 179.403 206.826 179.353C211.686 179.313 214.626 182.923 215.956 187.223Z" fill="#F5F5F5"/>
<path d="M294.576 288.173C289.576 284.733 284.486 281.413 279.306 278.223C273.986 274.953 268.586 271.813 263.106 268.833C257.806 265.953 252.436 263.213 246.986 260.633C245.276 255.473 243.566 250.323 241.826 245.173C239.576 238.483 237.286 231.803 234.966 225.143C246.966 227.523 258.706 232.533 263.766 244.613C263.836 244.773 263.936 244.883 264.046 244.983C262.626 246.463 261.726 248.503 261.836 250.453C258.446 248.603 252.126 249.263 251.536 254.003C251.296 255.933 252.646 257.423 254.316 258.123C256.826 259.183 259.486 258.263 262.096 258.473C260.936 261.533 260.596 266.113 263.676 267.773C264.086 267.993 264.556 268.163 265.096 268.263C267.416 268.723 269.066 267.593 270.016 265.903C270.816 267.523 272.376 268.783 274.366 268.993C276.406 269.203 278.526 268.363 279.756 266.703C280.396 265.843 280.736 264.873 280.916 263.863C282.626 266.053 285.646 267.023 288.476 265.213C293.886 261.753 289.236 255.143 285.826 252.343C285.416 252.003 284.926 252.083 284.606 252.343C285.076 250.663 284.846 248.903 284.206 247.293C284.416 247.103 284.526 246.823 284.376 246.463C282.566 242.083 278.286 239.303 273.726 239.643C273.736 239.483 273.706 239.313 273.606 239.133C264.396 224.253 249.246 212.463 230.976 213.733C230.026 211.063 229.076 208.403 228.116 205.733C228.086 205.583 228.036 205.453 227.966 205.323C226.776 202.043 225.586 198.773 224.376 195.503C218.466 179.553 212.196 163.743 205.456 148.123C202.296 140.803 199.616 132.333 194.846 125.873C191.866 121.843 187.536 119.033 182.426 120.223C182.286 120.253 182.186 120.333 182.106 120.433C177.886 122.113 175.506 125.673 173.636 129.773C170.806 135.993 168.666 142.593 166.296 148.993C160.506 164.593 154.896 180.273 149.406 195.983C146.916 203.103 144.406 210.243 141.896 217.373C141.866 217.353 141.846 217.323 141.806 217.303C129.006 211.453 120.146 200.393 120.516 185.853C124.226 184.983 127.446 181.803 127.926 177.973C130.386 177.583 132.686 176.613 134.606 174.973C136.306 173.533 138.286 171.093 137.546 168.693C136.826 166.363 134.036 166.073 131.966 166.153C129.496 166.243 127.246 167.113 125.286 168.533C126.616 164.533 125.716 158.403 121.336 157.013C119.236 156.343 117.076 157.643 115.966 159.403C115.796 159.663 115.666 159.943 115.546 160.223C114.696 158.843 113.266 157.853 111.566 157.963C108.416 158.173 107.136 160.793 106.856 163.593C106.576 163.123 106.226 162.683 105.766 162.313C104.216 161.043 101.826 160.853 100.196 162.083C96.176 165.103 99.696 173.683 102.886 176.403C102.796 176.533 102.746 176.693 102.776 176.893C102.946 178.093 103.156 179.273 103.386 180.453C103.426 180.973 103.536 181.493 103.716 182.013C103.806 182.443 103.886 182.883 103.986 183.323C104.036 183.533 104.246 183.593 104.416 183.553C105.656 185.643 107.806 187.373 110.136 187.893C109.506 205.223 119.756 225.083 138.746 226.383C135.506 235.633 132.306 244.893 129.176 254.173C119.126 260.023 109.566 266.843 99.916 273.323C90.046 279.953 80.106 286.513 70.366 293.333C70.126 293.503 69.956 293.743 69.866 294.003C69.486 294.073 69.156 294.403 69.256 294.913C69.796 297.473 69.986 300.013 70.116 302.613C69.746 302.903 69.626 303.493 70.176 303.793C70.506 303.973 70.836 304.163 71.176 304.333L71.916 302.973C71.946 302.883 71.976 302.803 71.976 302.703C72.066 300.383 71.706 298.073 71.096 295.843C90.906 307.083 110.916 317.973 131.106 328.513C141.316 333.843 151.606 339.053 161.936 344.173C166.806 346.583 171.686 349.003 176.596 351.353C179.246 352.623 181.696 353.683 184.336 353.863L185.636 353.873C186.586 353.833 187.566 353.663 188.596 353.353C193.016 351.983 197.306 349.353 201.476 347.363C206.966 344.743 212.456 342.123 217.946 339.483C228.046 334.633 238.126 329.723 248.166 324.733C258.486 319.593 268.756 314.363 278.956 308.993C283.776 306.453 288.566 303.883 293.346 301.273C294.736 300.513 297.096 299.673 298.846 298.443C298.966 299.533 299.056 300.633 299.036 301.743C280.356 311.903 261.526 321.793 242.576 331.443C224.066 340.873 204.696 349.123 186.576 359.283L187.096 360.613C206.186 353.173 224.566 343.023 242.836 333.803C262.166 324.063 281.326 313.973 300.346 303.633C300.776 303.393 300.936 303.013 300.896 302.633C300.966 302.513 301.006 302.363 301.016 302.203C301.076 300.433 301.006 298.533 300.546 296.763C300.796 296.373 300.986 295.963 301.076 295.503C301.726 292.033 296.756 289.673 294.576 288.173ZM271.896 239.943C271.716 239.993 271.536 240.033 271.356 240.093C270.646 240.313 270.946 241.313 271.656 241.193C275.906 240.443 280.486 242.573 282.406 246.453C282.356 246.623 282.356 246.823 282.466 247.023C283.416 248.813 283.536 250.693 283.416 252.683C283.386 253.183 283.936 253.303 284.266 253.073C284.286 253.263 284.356 253.453 284.536 253.633C286.736 255.763 290.636 259.203 288.476 262.643C287.586 264.043 285.646 264.623 284.086 264.153C282.576 263.693 281.556 262.393 281.036 260.943C281.031 260.854 281.017 260.769 281.011 260.681C280.397 260.858 279.783 260.976 279.168 261.043C279.281 263.727 278.78 266.642 275.646 267.133C271.966 267.713 270.236 263.853 271.536 260.843C271.612 260.667 271.585 260.474 271.511 260.305C270.73 260.164 269.945 260.032 269.154 259.931C269.083 260.078 269.048 260.249 269.086 260.452C269.366 261.922 269.506 263.502 268.706 264.862C267.886 266.252 266.116 267.072 264.606 266.262C261.846 264.782 262.986 260.842 263.456 258.382C263.966 258.012 264.026 257.112 263.236 256.942C260.446 256.352 256.766 257.902 254.336 256.132C252.106 254.522 254.046 252.302 255.836 251.542C257.596 250.782 259.496 250.832 261.256 251.602C261.676 251.792 262.066 251.532 262.186 251.202C262.526 251.402 262.986 251.352 263.066 250.862C263.606 247.722 265.046 245.762 267.916 244.372C268.716 243.992 268.146 242.772 267.326 242.982C266.676 243.142 266.046 243.432 265.456 243.812C259.996 231.202 247.416 225.112 234.386 223.462C233.406 220.672 232.446 217.882 231.466 215.102C248.926 215.033 262.856 225.633 271.896 239.943ZM164.146 161.553C166.716 154.503 169.336 147.463 171.966 140.433C174.316 134.163 176.206 124.663 183.236 122.023C183.496 121.923 183.656 121.753 183.756 121.563C192.006 121.873 195.016 130.513 197.956 137.093C201.296 144.563 204.506 152.093 207.616 159.663C208.556 161.943 209.476 164.233 210.396 166.523C202.686 168.443 194.866 169.463 186.896 169.233C178.606 168.993 170.826 167.113 162.816 165.253C163.266 164.023 163.696 162.783 164.146 161.553ZM149.066 204.003C149.794 201.9 150.537 199.801 151.275 197.703C151.266 197.133 151.39 196.538 151.647 195.939C152.668 193.558 154.048 191.242 154.808 188.76C155.309 187.123 155.357 185.398 156.022 183.814C156.177 183.444 156.373 183.044 156.587 182.637C158.46 177.376 160.334 172.124 162.237 166.882C177.257 173.342 195.707 172.982 211.307 168.792C215.767 179.952 220.027 191.202 224.137 202.492C224.497 203.472 224.847 204.462 225.207 205.452C212.757 209.842 199.807 211.762 186.597 211.942C173.807 212.112 159.907 211.972 148.687 205.102C148.816 204.733 148.936 204.363 149.066 204.003ZM111.436 159.543C113.916 159.143 114.746 161.063 114.946 163.233C114.946 163.663 114.956 164.093 115.006 164.513C115.006 165.693 114.886 166.823 114.796 167.583C114.786 167.653 114.796 167.713 114.816 167.763C112.686 167.773 110.566 167.933 108.456 168.233C108.496 168.143 108.526 168.043 108.526 167.923C108.386 165.213 107.536 160.183 111.436 159.543ZM112.096 188.033C112.466 188.003 112.846 187.943 113.216 187.843C114.006 187.613 113.846 186.623 113.176 186.413C113.126 186.403 113.076 186.393 113.016 186.383C112.676 186.343 112.346 186.303 112.026 186.263C111.776 185.663 110.946 185.593 110.496 186.023C109.546 185.823 108.646 185.503 107.726 184.873C106.196 183.813 105.176 182.343 104.486 180.673C104.366 179.303 104.226 177.933 104.036 176.543C104.006 176.323 103.896 176.193 103.746 176.123C102.806 173.513 101.236 171.233 100.656 168.453C100.236 166.443 99.956 162.883 102.956 162.863C105.576 162.843 106.526 165.813 106.176 167.963C106.136 168.233 106.246 168.443 106.416 168.573C105.566 168.743 104.706 168.923 103.866 169.143C103.056 169.343 103.406 170.503 104.206 170.373C109.516 169.443 114.646 169.173 120.016 169.533C120.996 169.603 120.966 168.133 120.016 168.023C118.996 167.913 117.976 167.853 116.956 167.803C116.996 167.723 117.036 167.623 117.026 167.493C116.966 165.863 116.496 164.243 116.646 162.613C116.896 160.073 119.656 157.173 122.026 159.533C124.576 162.083 124.536 166.193 123.626 169.393C123.476 169.913 124.056 170.283 124.466 170.103C124.716 170.343 125.136 170.443 125.486 170.163C127.136 168.783 129.116 167.853 131.276 167.633C133.436 167.413 136.846 167.933 135.666 170.923C134.446 174.033 130.816 175.853 127.656 176.543C127.176 176.163 126.316 176.233 126.196 176.963C125.436 181.753 121.436 184.913 116.546 184.363C115.846 184.293 115.636 185.183 116.036 185.613C116.116 185.693 116.226 185.763 116.356 185.803C117.036 185.993 117.736 186.083 118.436 186.093C118.016 200.053 127.226 215.093 141.276 218.583C141.346 218.593 141.406 218.593 141.476 218.583C140.706 220.773 139.936 222.953 139.176 225.133C120.846 221.813 112.226 205.333 112.096 188.033ZM148.056 206.963C158.156 214.283 171.896 214.343 183.896 214.383C198.176 214.433 212.596 212.753 226.006 207.683C227.856 212.833 229.686 218.003 231.486 223.173C231.466 223.163 231.436 223.163 231.416 223.163C230.686 223.103 230.496 224.353 231.246 224.463C231.486 224.503 231.736 224.553 231.986 224.593C234.446 231.673 236.876 238.773 239.266 245.883C239.346 246.113 239.416 246.343 239.496 246.583C221.936 252.243 203.766 255.353 185.286 255.333C168.596 255.323 149.856 254.153 135.236 245.283C139.466 232.493 143.666 219.693 148.056 206.963ZM134.676 246.983C147.556 256.573 167.216 257.433 182.536 257.703C202.086 258.043 221.696 255.033 240.236 248.803C241.666 253.083 243.086 257.373 244.516 261.663C244.516 261.873 244.576 262.083 244.706 262.263C245.206 263.763 245.716 265.273 246.216 266.773C247.406 270.413 248.606 274.053 249.796 277.693C250.396 279.513 250.986 281.333 251.586 283.153C251.886 284.063 252.186 284.973 252.476 285.883C252.496 286.453 252.626 286.943 252.846 287.353C252.706 287.443 252.586 287.563 252.496 287.733L252.296 288.083C252.006 288.603 252.136 289.133 252.486 289.573C252.656 289.783 252.816 289.923 252.966 290.043C247.786 297.803 238.396 300.663 229.446 302.203C216.996 304.353 204.166 305.233 191.546 305.473C178.676 305.713 165.746 305.013 153.026 302.943C141.356 301.043 128.616 299.013 120.056 290.183C120.006 290.133 119.956 290.113 119.906 290.073C125.086 275.813 129.906 261.403 134.676 246.983ZM292.836 298.503C290.876 299.573 288.906 300.643 286.936 301.713C282.136 304.293 277.326 306.843 272.496 309.353C263.696 313.943 254.846 318.433 245.956 322.843C227.886 331.813 209.756 340.723 191.466 349.213C187.246 351.173 184.816 351.863 180.326 350.163C178.016 349.293 175.816 348.063 173.606 346.983C168.716 344.603 163.826 342.193 158.956 339.763C150.066 335.343 141.226 330.843 132.406 326.293C112.476 316.013 92.786 305.313 73.266 294.273C91.506 281.603 110.736 270.093 128.376 256.593C124.696 267.593 121.116 278.613 117.766 289.693C117.756 289.693 117.756 289.693 117.756 289.693C117.716 289.653 117.666 289.603 117.606 289.563C117.476 289.473 117.296 289.653 117.386 289.783C117.496 289.933 117.596 290.003 117.726 290.083C117.746 290.553 118.096 290.853 118.516 290.953C118.536 291.063 118.566 291.163 118.636 291.273C124.786 301.083 139.136 303.053 149.536 304.933C163.706 307.473 178.126 308.373 192.506 308.043C205.886 307.743 219.696 306.903 232.836 304.193C242.176 302.273 251.866 298.413 256.336 289.413C256.726 288.643 256.306 287.923 255.706 287.623C255.616 286.213 254.956 284.843 254.466 283.343C253.076 279.103 251.686 274.853 250.286 270.613C249.576 268.453 248.856 266.283 248.136 264.123C255.856 267.963 263.476 271.973 270.926 276.313C274.866 278.613 278.756 280.983 282.596 283.433C286.496 285.923 291.396 288.323 294.726 291.523C299.226 295.843 296.326 296.593 292.836 298.503Z" fill="#22262F"/>
<path d="M280.776 249.493C280.976 250.293 279.786 250.863 279.406 250.073C278.076 247.383 276.156 245.523 273.026 245.343C272.186 245.293 272.176 244.063 273.026 244.033C276.286 243.933 279.976 246.173 280.776 249.493Z" fill="#22262F"/>
<path d="M229.796 230.683C229.906 231.553 228.626 231.593 228.366 230.883C227.656 228.903 227.286 226.793 226.656 224.783C226.026 222.773 225.236 220.823 224.556 218.833C224.376 218.313 225.166 218.003 225.426 218.463C227.436 222.083 229.286 226.573 229.796 230.683Z" fill="#22262F"/>
<path d="M225.206 233.303C225.686 234.363 224.146 234.983 223.756 233.913C222.736 231.123 221.816 228.183 221.496 225.223C221.436 224.713 222.196 224.673 222.336 225.103C223.216 227.883 224.006 230.633 225.206 233.303Z" fill="#22262F"/>
<path d="M197.556 339.403C198.636 338.843 199.516 340.363 198.506 341.023C194.676 343.583 190.106 345.493 185.776 347.033C185.046 347.293 184.556 346.103 185.256 345.793C189.506 343.863 193.446 341.573 197.556 339.403Z" fill="#22262F"/>
<path d="M195.046 336.883C196.096 336.353 197.016 337.893 195.976 338.473C193.506 339.843 190.896 341.023 188.356 342.273C187.566 342.663 186.876 341.523 187.656 341.073C190.106 339.663 192.536 338.163 195.046 336.883Z" fill="#22262F"/>
<path d="M186.576 359.283L187.096 360.613C186.676 360.793 186.256 360.953 185.836 361.113C185.586 361.203 185.376 361.123 185.236 360.963C184.966 360.953 184.716 360.793 184.656 360.433C184.646 360.423 184.646 360.413 184.646 360.403C165.246 351.733 146.256 341.983 127.226 332.523C108.536 323.233 89.466 314.393 71.176 304.333L71.916 302.973C91.006 311.503 109.566 321.403 128.326 330.643C146.936 339.803 165.746 348.583 184.306 357.863C184.186 356.533 184.186 355.203 184.336 353.863L185.636 353.873C185.646 355.483 185.716 357.083 185.926 358.673C185.976 358.693 186.036 358.723 186.086 358.753C186.356 358.883 186.506 359.073 186.576 359.283Z" fill="#22262F"/>
<path d="M173.986 149.563C174.596 148.683 176.026 149.483 175.446 150.413C173.836 152.973 172.576 155.503 171.506 158.333C171.256 158.983 170.346 158.733 170.466 158.043C171.006 155.063 172.266 152.063 173.986 149.563Z" fill="#22262F"/>
<path d="M170.316 150.793C170.716 149.903 172.106 150.673 171.646 151.563C170.216 154.343 168.866 157.173 167.336 159.893C167.066 160.393 166.186 160.043 166.406 159.503C167.616 156.563 169.006 153.693 170.316 150.793Z" fill="#22262F"/>
<path d="M138.276 291.733C139.186 291.993 139.036 293.563 138.046 293.433C134.416 292.953 129.806 291.173 127.136 288.613C126.786 288.283 127.136 287.573 127.626 287.763C129.386 288.453 130.996 289.463 132.776 290.143C134.576 290.823 136.436 291.193 138.276 291.733Z" fill="#22262F"/>
<path d="M133.316 293.163C134.376 293.523 133.946 295.163 132.846 294.863C128.736 293.733 124.986 291.183 122.246 287.943C121.716 287.313 122.566 286.433 123.166 287.023C126.116 289.933 129.416 291.823 133.316 293.163Z" fill="#22262F"/>
<path d="M224.136 202.493C220.026 191.203 215.766 179.953 211.306 168.793C195.706 172.983 177.256 173.343 162.236 166.883C160.276 172.283 158.346 177.693 156.416 183.113C156.42 183.109 156.425 183.106 156.429 183.102C155.265 186.092 154.161 189.111 153.061 192.114C152.494 193.662 151.317 195.693 151.366 197.442C150.597 199.626 149.824 201.813 149.065 204.003C148.935 204.363 148.815 204.733 148.685 205.103C159.905 211.973 173.805 212.113 186.595 211.943C199.805 211.763 212.755 209.843 225.205 205.453C224.846 204.463 224.496 203.473 224.136 202.493Z" fill="#F5F5F5"/>
<path d="M191.026 201.513C191.306 200.393 192.886 200.893 192.716 201.983C191.486 209.933 179.826 211.253 177.346 203.403C177.176 202.873 177.956 202.583 178.226 203.033C181.646 208.763 189.336 208.183 191.026 201.513Z" fill="#22262F"/>
<path d="M211.074 186.091C211.865 189.505 210.674 192.914 207.228 194.254C204.769 195.209 201.473 194.66 200.646 191.861C200.538 191.491 200.78 191.25 201.067 191.204C201.313 191.158 201.596 191.266 201.709 191.569C202.88 194.768 207.084 193.612 208.774 191.903C210.463 190.193 210.448 187.765 209.78 185.593C209.097 183.385 207.588 181.532 205.092 181.552C202.356 181.578 200.677 184.078 200.723 186.604C200.728 186.886 200.528 187.025 200.317 187.025C200.101 187.025 199.876 186.881 199.845 186.604C199.527 183.549 201.58 180.689 204.743 180.474C208.25 180.227 210.355 182.959 211.074 186.091Z" fill="#22262F"/>
<path d="M201.416 187.841C202.109 188.267 202.32 189.325 201.673 189.889C201.427 190.105 201.103 190.213 200.785 190.213C200.349 190.213 199.928 190.013 199.702 189.602C199.373 188.996 199.692 188.175 200.308 187.903C200.405 187.8 200.518 187.718 200.652 187.682C200.698 187.672 200.744 187.661 200.791 187.661C201.006 187.651 201.237 187.734 201.416 187.841Z" fill="#22262F"/>
<path d="M161.968 187.216C161.177 190.63 162.368 194.039 165.813 195.379C168.272 196.334 171.569 195.785 172.395 192.986C172.503 192.616 172.262 192.375 171.974 192.329C171.728 192.283 171.445 192.391 171.332 192.694C170.161 195.893 165.956 194.737 164.267 193.028C162.578 191.318 162.593 188.89 163.261 186.718C163.944 184.51 165.453 182.657 167.949 182.677C170.686 182.703 172.364 185.203 172.318 187.729C172.313 188.011 172.513 188.15 172.724 188.15C172.94 188.15 173.166 188.006 173.196 187.729C173.514 184.674 171.461 181.814 168.298 181.599C164.792 181.352 162.687 184.084 161.968 187.216Z" fill="#22262F"/>
<path d="M171.625 188.966C170.932 189.392 170.721 190.45 171.368 191.014C171.615 191.23 171.938 191.338 172.256 191.338C172.692 191.338 173.113 191.138 173.339 190.727C173.668 190.121 173.349 189.3 172.733 189.028C172.636 188.925 172.523 188.843 172.389 188.807C172.343 188.797 172.297 188.786 172.25 188.786C172.036 188.776 171.805 188.859 171.625 188.966Z" fill="#22262F"/>
<path d="M283.352 254.853C282.289 253.036 279.694 252.066 277.728 253.002C277.663 252.999 277.586 252.997 277.497 252.996C277.222 252.946 276.948 252.896 276.673 252.845C275.71 252.672 274.76 252.414 273.809 252.188C271.912 251.737 270.033 251.404 268.091 251.203C265.689 250.954 263.626 253.433 263.626 255.668C263.626 258.289 265.682 259.883 268.091 260.133C272.275 260.567 277.837 263.646 281.751 260.962C283.736 259.6 284.632 257.041 283.352 254.853Z" fill="#D74761"/>
</svg>
