<svg width="260" height="267" viewBox="0 0 260 267" fill="none" xmlns="http://www.w3.org/2000/svg">
<path fill-rule="evenodd" clip-rule="evenodd" d="M127.651 38.4041C166.512 38.0343 208.639 48.3327 222.437 84.8116C238.129 126.298 224.889 174.622 188.942 200.44C153.726 225.731 106.28 219.222 71.6852 193.082C38.9323 168.333 24.241 125.25 38.2382 86.5645C51.0065 51.2757 90.2604 38.7599 127.651 38.4041Z" fill="#D5F1F8"/>
<path fill-rule="evenodd" clip-rule="evenodd" d="M63.4354 73.0392C38.8256 102.777 20.3985 141.712 39.8941 175.187C62.0659 213.257 107.621 233.294 150.033 221.732C191.58 210.405 216.26 169.74 217.754 126.698C219.169 85.9474 195.14 47.6498 156.544 34.2297C121.337 21.9877 87.1144 44.4262 63.4354 73.0392Z" stroke="#7ACCE6"/>
<g filter="url(#filter0_i_1039_5274)">
<rect x="124.951" y="161.396" width="13" height="6" fill="white"/>
</g>
<g filter="url(#filter1_d_1039_5274)">
<g filter="url(#filter2_i_1039_5274)">
<path d="M184.951 123.395C184.951 117.872 180.474 113.395 174.951 113.395H170.951V138.395H174.951C180.474 138.395 184.951 133.917 184.951 128.395V123.395Z" fill="#292561"/>
</g>
<path d="M129.951 69.3945C129.951 68.8422 130.398 68.3945 130.951 68.3945C131.503 68.3945 131.951 68.8422 131.951 69.3945V93.3945H129.951V69.3945Z" fill="#292561"/>
<g filter="url(#filter3_ii_1039_5274)">
<path d="M123.951 85.3945C123.951 81.5285 127.085 78.3945 130.951 78.3945C134.817 78.3945 137.951 81.5285 137.951 85.3945V103.395H123.951V85.3945Z" fill="#3CB5F2"/>
</g>
<g filter="url(#filter4_i_1039_5274)">
<path d="M76.9507 123.395C76.9507 117.872 81.4278 113.395 86.9507 113.395H90.9507V138.395H86.9507C81.4278 138.395 76.9507 133.917 76.9507 128.395V123.395Z" fill="#292561"/>
</g>
<g filter="url(#filter5_i_1039_5274)">
<rect x="81.9507" y="88.3945" width="98" height="74" rx="37" fill="white"/>
</g>
<g filter="url(#filter6_ii_1039_5274)">
<path d="M88.9507 127.39C88.9507 115.595 99.1052 106.362 110.847 107.48L115.781 107.95C125.871 108.911 136.03 108.911 146.12 107.95L151.055 107.48C162.796 106.362 172.951 115.595 172.951 127.39V134.209C172.951 144.52 165.112 153.141 154.847 154.119L150.861 154.498C137.617 155.76 124.284 155.76 111.041 154.498L107.054 154.119C96.7898 153.141 88.9507 144.52 88.9507 134.209V127.39Z" fill="#292561"/>
</g>
<path d="M88.9507 127.389C88.9507 115.595 99.1052 106.361 110.847 107.48L115.781 107.95C125.871 108.91 136.03 108.91 146.12 107.95L140.378 109.949C121.356 116.574 108.202 134.009 107.054 154.118C96.7898 153.141 88.9507 144.52 88.9507 134.208V127.389Z" fill="#AEA8FF" fill-opacity="0.12"/>
<rect x="111.68" y="125.395" width="8.89412" height="17" rx="4.44706" fill="url(#paint0_linear_1039_5274)"/>
<rect x="142.315" y="125.395" width="8.89412" height="17" rx="4.44706" fill="url(#paint1_linear_1039_5274)"/>
<path d="M136.386 144.395C136.386 145.721 135.865 146.992 134.939 147.93C134.012 148.868 132.755 149.395 131.445 149.395C130.134 149.395 128.877 148.868 127.951 147.93C127.024 146.992 126.503 145.721 126.503 144.395L136.386 144.395Z" fill="#3AC8FC"/>
<g filter="url(#filter7_i_1039_5274)">
<circle cx="171.951" cy="179.395" r="9" fill="#292561"/>
</g>
<g filter="url(#filter8_i_1039_5274)">
<circle cx="89.9507" cy="179.395" r="9" fill="#292561"/>
</g>
<g filter="url(#filter9_i_1039_5274)">
<path d="M125.614 214.993C129.008 216.52 132.893 216.52 136.287 214.993L162.111 203.368C168.938 200.295 171.765 192.106 168.288 185.476L161.64 172.8C159.395 168.52 154.961 165.838 150.127 165.838H111.774C106.941 165.838 102.506 168.52 100.261 172.8L93.6135 185.476C90.1365 192.106 92.9636 200.295 99.7902 203.368L125.614 214.993Z" fill="white"/>
</g>
<rect x="128.951" y="185.395" width="4" height="17" rx="2" fill="url(#paint2_linear_1039_5274)"/>
<rect x="127.451" y="177.895" width="7" height="27" rx="3.5" stroke="#6D7885"/>
<g filter="url(#filter10_i_1039_5274)">
<path fill-rule="evenodd" clip-rule="evenodd" d="M175.598 177.59C179.61 175.738 184.363 177.489 186.214 181.501C188.84 187.19 192.226 201.234 184.931 214.262C182.772 218.117 177.897 219.492 174.042 217.334C170.187 215.175 168.812 210.3 170.971 206.445C174.875 199.472 173.061 191.183 171.687 188.206C169.835 184.194 171.587 179.441 175.598 177.59Z" fill="white"/>
</g>
<path fill-rule="evenodd" clip-rule="evenodd" d="M181.784 217.376C179.449 218.648 176.533 218.728 174.042 217.334C171.607 215.97 170.161 213.523 169.971 210.934C171.24 209.649 173.002 208.854 174.95 208.854C178.816 208.854 181.95 211.988 181.95 215.854C181.95 216.376 181.893 216.886 181.784 217.376Z" fill="url(#paint3_linear_1039_5274)"/>
<g filter="url(#filter11_i_1039_5274)">
<path fill-rule="evenodd" clip-rule="evenodd" d="M86.4548 176.677C82.4432 174.825 77.6902 176.576 75.8387 180.588C73.2128 186.277 69.8267 200.321 77.1223 213.349C79.2811 217.204 84.1562 218.579 88.0112 216.42C91.8661 214.262 93.2412 209.387 91.0824 205.532C87.178 198.559 88.9918 190.27 90.366 187.293C92.2175 183.281 90.4664 178.528 86.4548 176.677Z" fill="white"/>
</g>
<path fill-rule="evenodd" clip-rule="evenodd" d="M79.8297 216.206C82.23 217.719 85.3616 217.905 88.0112 216.421C90.477 215.04 91.9281 212.548 92.0889 209.922C90.8094 208.255 88.7962 207.18 86.5319 207.18C82.6659 207.18 79.5319 210.314 79.5319 214.18C79.5319 214.884 79.636 215.565 79.8297 216.206Z" fill="url(#paint4_linear_1039_5274)"/>
</g>
<defs>
<filter id="filter0_i_1039_5274" x="124.951" y="161.396" width="13" height="10" filterUnits="userSpaceOnUse" color-interpolation-filters="sRGB">
<feFlood flood-opacity="0" result="BackgroundImageFix"/>
<feBlend mode="normal" in="SourceGraphic" in2="BackgroundImageFix" result="shape"/>
<feColorMatrix in="SourceAlpha" type="matrix" values="0 0 0 0 0 0 0 0 0 0 0 0 0 0 0 0 0 0 127 0" result="hardAlpha"/>
<feOffset dy="4"/>
<feGaussianBlur stdDeviation="2"/>
<feComposite in2="hardAlpha" operator="arithmetic" k2="-1" k3="1"/>
<feColorMatrix type="matrix" values="0 0 0 0 0.427451 0 0 0 0 0.470588 0 0 0 0 0.521569 0 0 0 0.2 0"/>
<feBlend mode="normal" in2="shape" result="effect1_innerShadow_1039_5274"/>
</filter>
<filter id="filter1_d_1039_5274" x="32.7197" y="28.3945" width="204.614" height="237.96" filterUnits="userSpaceOnUse" color-interpolation-filters="sRGB">
<feFlood flood-opacity="0" result="BackgroundImageFix"/>
<feColorMatrix in="SourceAlpha" type="matrix" values="0 0 0 0 0 0 0 0 0 0 0 0 0 0 0 0 0 0 127 0" result="hardAlpha"/>
<feOffset dx="4" dy="4"/>
<feGaussianBlur stdDeviation="22"/>
<feComposite in2="hardAlpha" operator="out"/>
<feColorMatrix type="matrix" values="0 0 0 0 0.150368 0 0 0 0 0.334888 0 0 0 0 0.611667 0 0 0 0.4 0"/>
<feBlend mode="normal" in2="BackgroundImageFix" result="effect1_dropShadow_1039_5274"/>
<feBlend mode="normal" in="SourceGraphic" in2="effect1_dropShadow_1039_5274" result="shape"/>
</filter>
<filter id="filter2_i_1039_5274" x="170.951" y="113.395" width="14" height="29" filterUnits="userSpaceOnUse" color-interpolation-filters="sRGB">
<feFlood flood-opacity="0" result="BackgroundImageFix"/>
<feBlend mode="normal" in="SourceGraphic" in2="BackgroundImageFix" result="shape"/>
<feColorMatrix in="SourceAlpha" type="matrix" values="0 0 0 0 0 0 0 0 0 0 0 0 0 0 0 0 0 0 127 0" result="hardAlpha"/>
<feOffset dy="4"/>
<feGaussianBlur stdDeviation="8"/>
<feComposite in2="hardAlpha" operator="arithmetic" k2="-1" k3="1"/>
<feColorMatrix type="matrix" values="0 0 0 0 0.45098 0 0 0 0 0.423529 0 0 0 0 0.827451 0 0 0 0.5 0"/>
<feBlend mode="normal" in2="shape" result="effect1_innerShadow_1039_5274"/>
</filter>
<filter id="filter3_ii_1039_5274" x="121.951" y="76.3945" width="18" height="29" filterUnits="userSpaceOnUse" color-interpolation-filters="sRGB">
<feFlood flood-opacity="0" result="BackgroundImageFix"/>
<feBlend mode="normal" in="SourceGraphic" in2="BackgroundImageFix" result="shape"/>
<feColorMatrix in="SourceAlpha" type="matrix" values="0 0 0 0 0 0 0 0 0 0 0 0 0 0 0 0 0 0 127 0" result="hardAlpha"/>
<feOffset dx="2" dy="2"/>
<feGaussianBlur stdDeviation="2.5"/>
<feComposite in2="hardAlpha" operator="arithmetic" k2="-1" k3="1"/>
<feColorMatrix type="matrix" values="0 0 0 0 0.164706 0 0 0 0 0.14902 0 0 0 0 0.388235 0 0 0 0.3 0"/>
<feBlend mode="normal" in2="shape" result="effect1_innerShadow_1039_5274"/>
<feColorMatrix in="SourceAlpha" type="matrix" values="0 0 0 0 0 0 0 0 0 0 0 0 0 0 0 0 0 0 127 0" result="hardAlpha"/>
<feOffset dx="-2" dy="-2"/>
<feGaussianBlur stdDeviation="2.5"/>
<feComposite in2="hardAlpha" operator="arithmetic" k2="-1" k3="1"/>
<feColorMatrix type="matrix" values="0 0 0 0 0.671094 0 0 0 0 0.918191 0 0 0 0 1 0 0 0 1 0"/>
<feBlend mode="normal" in2="effect1_innerShadow_1039_5274" result="effect2_innerShadow_1039_5274"/>
</filter>
<filter id="filter4_i_1039_5274" x="76.9507" y="113.395" width="14" height="29" filterUnits="userSpaceOnUse" color-interpolation-filters="sRGB">
<feFlood flood-opacity="0" result="BackgroundImageFix"/>
<feBlend mode="normal" in="SourceGraphic" in2="BackgroundImageFix" result="shape"/>
<feColorMatrix in="SourceAlpha" type="matrix" values="0 0 0 0 0 0 0 0 0 0 0 0 0 0 0 0 0 0 127 0" result="hardAlpha"/>
<feOffset dy="4"/>
<feGaussianBlur stdDeviation="8"/>
<feComposite in2="hardAlpha" operator="arithmetic" k2="-1" k3="1"/>
<feColorMatrix type="matrix" values="0 0 0 0 0.45098 0 0 0 0 0.423529 0 0 0 0 0.827451 0 0 0 0.5 0"/>
<feBlend mode="normal" in2="shape" result="effect1_innerShadow_1039_5274"/>
</filter>
<filter id="filter5_i_1039_5274" x="81.9507" y="88.3945" width="98" height="78" filterUnits="userSpaceOnUse" color-interpolation-filters="sRGB">
<feFlood flood-opacity="0" result="BackgroundImageFix"/>
<feBlend mode="normal" in="SourceGraphic" in2="BackgroundImageFix" result="shape"/>
<feColorMatrix in="SourceAlpha" type="matrix" values="0 0 0 0 0 0 0 0 0 0 0 0 0 0 0 0 0 0 127 0" result="hardAlpha"/>
<feOffset dy="4"/>
<feGaussianBlur stdDeviation="4.5"/>
<feComposite in2="hardAlpha" operator="arithmetic" k2="-1" k3="1"/>
<feColorMatrix type="matrix" values="0 0 0 0 0.0901961 0 0 0 0 0.0470588 0 0 0 0 0.341176 0 0 0 0.25 0"/>
<feBlend mode="normal" in2="shape" result="effect1_innerShadow_1039_5274"/>
</filter>
<filter id="filter6_ii_1039_5274" x="84.9507" y="103.388" width="92" height="56.0566" filterUnits="userSpaceOnUse" color-interpolation-filters="sRGB">
<feFlood flood-opacity="0" result="BackgroundImageFix"/>
<feBlend mode="normal" in="SourceGraphic" in2="BackgroundImageFix" result="shape"/>
<feColorMatrix in="SourceAlpha" type="matrix" values="0 0 0 0 0 0 0 0 0 0 0 0 0 0 0 0 0 0 127 0" result="hardAlpha"/>
<feOffset dx="4" dy="4"/>
<feGaussianBlur stdDeviation="6.5"/>
<feComposite in2="hardAlpha" operator="arithmetic" k2="-1" k3="1"/>
<feColorMatrix type="matrix" values="0 0 0 0 0.508203 0 0 0 0 0.479385 0 0 0 0 0.911667 0 0 0 0.7 0"/>
<feBlend mode="normal" in2="shape" result="effect1_innerShadow_1039_5274"/>
<feColorMatrix in="SourceAlpha" type="matrix" values="0 0 0 0 0 0 0 0 0 0 0 0 0 0 0 0 0 0 127 0" result="hardAlpha"/>
<feOffset dx="-4" dy="-4"/>
<feGaussianBlur stdDeviation="8"/>
<feComposite in2="hardAlpha" operator="arithmetic" k2="-1" k3="1"/>
<feColorMatrix type="matrix" values="0 0 0 0 0 0 0 0 0 0 0 0 0 0 0 0 0 0 0.3 0"/>
<feBlend mode="normal" in2="effect1_innerShadow_1039_5274" result="effect2_innerShadow_1039_5274"/>
</filter>
<filter id="filter7_i_1039_5274" x="162.951" y="170.395" width="20" height="20" filterUnits="userSpaceOnUse" color-interpolation-filters="sRGB">
<feFlood flood-opacity="0" result="BackgroundImageFix"/>
<feBlend mode="normal" in="SourceGraphic" in2="BackgroundImageFix" result="shape"/>
<feColorMatrix in="SourceAlpha" type="matrix" values="0 0 0 0 0 0 0 0 0 0 0 0 0 0 0 0 0 0 127 0" result="hardAlpha"/>
<feOffset dx="2" dy="2"/>
<feGaussianBlur stdDeviation="3"/>
<feComposite in2="hardAlpha" operator="arithmetic" k2="-1" k3="1"/>
<feColorMatrix type="matrix" values="0 0 0 0 0.509804 0 0 0 0 0.478431 0 0 0 0 0.909804 0 0 0 0.25 0"/>
<feBlend mode="normal" in2="shape" result="effect1_innerShadow_1039_5274"/>
</filter>
<filter id="filter8_i_1039_5274" x="80.9507" y="170.395" width="20" height="20" filterUnits="userSpaceOnUse" color-interpolation-filters="sRGB">
<feFlood flood-opacity="0" result="BackgroundImageFix"/>
<feBlend mode="normal" in="SourceGraphic" in2="BackgroundImageFix" result="shape"/>
<feColorMatrix in="SourceAlpha" type="matrix" values="0 0 0 0 0 0 0 0 0 0 0 0 0 0 0 0 0 0 127 0" result="hardAlpha"/>
<feOffset dx="2" dy="2"/>
<feGaussianBlur stdDeviation="3"/>
<feComposite in2="hardAlpha" operator="arithmetic" k2="-1" k3="1"/>
<feColorMatrix type="matrix" values="0 0 0 0 0.509804 0 0 0 0 0.478431 0 0 0 0 0.909804 0 0 0 0.25 0"/>
<feBlend mode="normal" in2="shape" result="effect1_innerShadow_1039_5274"/>
</filter>
<filter id="filter9_i_1039_5274" x="92.1228" y="165.838" width="77.6555" height="54.3008" filterUnits="userSpaceOnUse" color-interpolation-filters="sRGB">
<feFlood flood-opacity="0" result="BackgroundImageFix"/>
<feBlend mode="normal" in="SourceGraphic" in2="BackgroundImageFix" result="shape"/>
<feColorMatrix in="SourceAlpha" type="matrix" values="0 0 0 0 0 0 0 0 0 0 0 0 0 0 0 0 0 0 127 0" result="hardAlpha"/>
<feOffset dy="4"/>
<feGaussianBlur stdDeviation="5"/>
<feComposite in2="hardAlpha" operator="arithmetic" k2="-1" k3="1"/>
<feColorMatrix type="matrix" values="0 0 0 0 0.0887251 0 0 0 0 0.0475486 0 0 0 0 0.341667 0 0 0 0.25 0"/>
<feBlend mode="normal" in2="shape" result="effect1_innerShadow_1039_5274"/>
</filter>
<filter id="filter10_i_1039_5274" x="169.949" y="176.852" width="21.3843" height="45.5029" filterUnits="userSpaceOnUse" color-interpolation-filters="sRGB">
<feFlood flood-opacity="0" result="BackgroundImageFix"/>
<feBlend mode="normal" in="SourceGraphic" in2="BackgroundImageFix" result="shape"/>
<feColorMatrix in="SourceAlpha" type="matrix" values="0 0 0 0 0 0 0 0 0 0 0 0 0 0 0 0 0 0 127 0" result="hardAlpha"/>
<feOffset dx="2" dy="4"/>
<feGaussianBlur stdDeviation="3.5"/>
<feComposite in2="hardAlpha" operator="arithmetic" k2="-1" k3="1"/>
<feColorMatrix type="matrix" values="0 0 0 0 0.0901961 0 0 0 0 0.0470588 0 0 0 0 0.341176 0 0 0 0.2 0"/>
<feBlend mode="normal" in2="shape" result="effect1_innerShadow_1039_5274"/>
</filter>
<filter id="filter11_i_1039_5274" x="72.7197" y="175.938" width="21.384" height="45.5029" filterUnits="userSpaceOnUse" color-interpolation-filters="sRGB">
<feFlood flood-opacity="0" result="BackgroundImageFix"/>
<feBlend mode="normal" in="SourceGraphic" in2="BackgroundImageFix" result="shape"/>
<feColorMatrix in="SourceAlpha" type="matrix" values="0 0 0 0 0 0 0 0 0 0 0 0 0 0 0 0 0 0 127 0" result="hardAlpha"/>
<feOffset dx="2" dy="4"/>
<feGaussianBlur stdDeviation="3.5"/>
<feComposite in2="hardAlpha" operator="arithmetic" k2="-1" k3="1"/>
<feColorMatrix type="matrix" values="0 0 0 0 0.0901961 0 0 0 0 0.0470588 0 0 0 0 0.341176 0 0 0 0.2 0"/>
<feBlend mode="normal" in2="shape" result="effect1_innerShadow_1039_5274"/>
</filter>
<linearGradient id="paint0_linear_1039_5274" x1="116.127" y1="125.395" x2="116.127" y2="142.395" gradientUnits="userSpaceOnUse">
<stop stop-color="#39CFFF"/>
<stop offset="1" stop-color="#4C43BC"/>
</linearGradient>
<linearGradient id="paint1_linear_1039_5274" x1="146.762" y1="125.395" x2="146.762" y2="142.395" gradientUnits="userSpaceOnUse">
<stop stop-color="#39CFFF"/>
<stop offset="1" stop-color="#4C43BC"/>
</linearGradient>
<linearGradient id="paint2_linear_1039_5274" x1="130.951" y1="185.395" x2="130.951" y2="202.395" gradientUnits="userSpaceOnUse">
<stop stop-color="#39CFFF"/>
<stop offset="1" stop-color="#4C43BC"/>
</linearGradient>
<linearGradient id="paint3_linear_1039_5274" x1="175.45" y1="206.854" x2="175.45" y2="218.355" gradientUnits="userSpaceOnUse">
<stop stop-color="#39CFFF"/>
<stop offset="1" stop-color="#4C43BC"/>
</linearGradient>
<linearGradient id="paint4_linear_1039_5274" x1="86.603" y1="205.941" x2="86.603" y2="217.442" gradientUnits="userSpaceOnUse">
<stop stop-color="#39CFFF"/>
<stop offset="1" stop-color="#4C43BC"/>
</linearGradient>
</defs>
</svg>
