<svg width="178" height="180" viewBox="0 0 178 180" fill="none" xmlns="http://www.w3.org/2000/svg">
<path d="M38.346 151.2C38.346 151.2 13.7493 123.818 4.46757 88.5476C-4.55803 54.2496 15.1797 12.4686 67.1195 1.29895C110.28 -7.98282 161.853 34.272 164.114 70.9122C166.434 108.503 141.838 150.271 141.838 150.271L38.346 151.2Z" fill="#E3EAFC"/>
<path d="M83.3626 180C129.164 180 166.293 168.085 166.293 153.388C166.293 138.691 129.164 126.776 83.3626 126.776C37.5614 126.776 0.432251 138.691 0.432251 153.388C0.432251 168.085 37.5614 180 83.3626 180Z" fill="#8C9AED"/>
<path d="M166.648 17.4121C175.554 26.0674 180.779 42.0877 171.628 52.4926C166.606 58.2055 158.545 60.4007 151.389 61.9832C142.808 63.8813 134.05 64.5032 125.279 64.067C124.852 64.0437 124.666 64.4011 124.713 64.7306C124.653 64.7909 124.602 64.8605 124.564 64.958C121.798 73.0935 114.939 79.2751 106.678 81.3125C111.537 77.08 114.953 70.5363 114.252 64.0437C114.503 63.8674 114.531 63.4219 114.146 63.3105C101.634 59.7741 93.4287 46.7704 97.1832 34.0265C101.267 20.1781 114.953 12.8409 128.068 9.61544C135.345 7.8287 143.021 6.65455 150.419 8.42737C156.508 9.89389 162.156 13.0543 166.648 17.4121ZM164.606 19.2638C164.903 19.7326 165.659 19.2824 165.344 18.8322C164.857 18.1268 164.29 17.491 163.622 16.9527C163.037 16.4886 162.295 15.9224 161.538 15.8157C161.343 15.7878 161.144 16.0152 161.325 16.1823C161.859 16.6742 162.545 16.9898 163.098 17.4771C163.687 18.0015 164.184 18.6002 164.606 19.2638ZM161.218 19.0875C161.469 19.3706 161.919 19.0689 161.831 18.7301C161.682 18.1732 161.186 17.672 160.763 17.3054C160.313 16.9155 159.812 16.6185 159.26 16.3911C158.963 16.2658 158.754 16.767 159.042 16.9109C159.515 17.1569 159.942 17.4632 160.313 17.853C160.67 18.2289 160.875 18.7023 161.218 19.0875ZM107.774 56.7761C108.252 56.971 108.493 56.1589 107.992 55.9965C106.92 55.6437 106.084 54.943 105.453 54.0194C105.258 53.7363 104.841 53.9777 104.994 54.2886C105.56 55.4535 106.59 56.2935 107.774 56.7761ZM106.637 57.4026C106.924 57.5094 107.156 57.0871 106.934 56.8875C106.289 56.3027 105.514 55.8804 104.878 55.2725C104.196 54.6227 103.634 53.8802 103.1 53.1098C102.929 52.8685 102.571 53.0773 102.701 53.3465C103.458 54.9012 104.966 56.7854 106.637 57.4026Z" fill="#F5F5F5"/>
<path d="M170.491 19.8212C178.385 29.6691 181.253 45.9215 170.746 55.1151C165.288 59.8906 157.807 61.8908 150.874 63.362C142.571 65.1162 134.046 65.766 125.576 65.2787C122.439 74.463 114.322 81.3083 104.72 82.8119C104.107 82.9047 103.787 82.1854 104.302 81.8188C110.377 77.512 112.906 71.1772 113.589 64.0303C106.734 62.5637 100.989 57.7326 97.7586 51.5602C94.3707 45.0908 94.199 37.6561 96.9928 30.9361C102.956 16.6051 118.239 10.1217 132.542 7.42074C140.079 5.99599 147.704 5.815 154.962 8.57168C161.009 10.8689 166.439 14.7719 170.491 19.8212ZM171.628 52.493C180.779 42.0882 175.554 26.0678 166.648 17.4126C162.156 13.0548 156.508 9.89434 150.419 8.42782C143.021 6.655 135.345 7.82914 128.068 9.61588C114.953 12.8413 101.267 20.1785 97.1831 34.0269C93.4286 46.7708 101.634 59.7746 114.146 63.3109C114.531 63.4223 114.503 63.8678 114.252 64.0442C114.953 70.5368 111.537 77.0804 106.678 81.3129C114.939 79.2756 121.798 73.0939 124.564 64.9584C124.601 64.861 124.653 64.7914 124.713 64.731C124.666 64.4015 124.852 64.0442 125.279 64.0674C134.05 64.5036 142.808 63.8818 151.389 61.9836C158.545 60.4011 166.606 58.206 171.628 52.493Z" fill="#22262F"/>
<path d="M165.344 18.8324C165.659 19.2826 164.903 19.7327 164.606 19.264C164.184 18.6003 163.687 18.0017 163.098 17.4772C162.545 16.99 161.858 16.6744 161.325 16.1824C161.144 16.0154 161.343 15.788 161.538 15.8158C162.295 15.9225 163.037 16.4887 163.622 16.9528C164.29 17.4912 164.856 18.127 165.344 18.8324Z" fill="#22262F"/>
<path d="M161.831 18.7305C161.919 19.0693 161.469 19.371 161.218 19.0879C160.875 18.7027 160.67 18.2293 160.313 17.8534C159.942 17.4635 159.515 17.1572 159.041 16.9113C158.754 16.7674 158.963 16.2662 159.26 16.3915C159.812 16.6189 160.313 16.9159 160.763 17.3058C161.186 17.6724 161.682 18.1736 161.831 18.7305Z" fill="#22262F"/>
<path d="M107.992 55.9967C108.493 56.1591 108.252 56.9713 107.774 56.7764C106.59 56.2937 105.56 55.4537 104.994 54.2889C104.841 53.9779 105.258 53.7366 105.453 54.0197C106.084 54.9432 106.92 55.644 107.992 55.9967Z" fill="#22262F"/>
<path d="M106.934 56.8879C107.156 57.0874 106.924 57.5097 106.637 57.403C104.966 56.7858 103.458 54.9016 102.701 53.3469C102.571 53.0777 102.929 52.8688 103.1 53.1102C103.634 53.8806 104.196 54.6231 104.878 55.2728C105.514 55.8808 106.289 56.3031 106.934 56.8879Z" fill="#22262F"/>
<path d="M115.271 35.24V28.078H117.122V40.1935H115.271V38.1427H115.145C114.863 38.7579 114.424 39.2811 113.827 39.7123C113.231 40.1383 112.478 40.3512 111.568 40.3512C110.815 40.3512 110.146 40.1856 109.56 39.8543C108.974 39.5178 108.514 39.013 108.179 38.3399C107.845 37.6615 107.677 36.807 107.677 35.7764V28.078H109.529V35.6502C109.529 36.5336 109.774 37.2382 110.266 37.7641C110.763 38.2899 111.396 38.5528 112.164 38.5528C112.625 38.5528 113.093 38.4345 113.569 38.1979C114.05 37.9613 114.452 37.5984 114.777 37.1094C115.106 36.6204 115.271 35.9972 115.271 35.24Z" fill="#22262F"/>
<path d="M122.365 32.9053V40.1935H120.513V28.078H122.302V29.9711H122.459C122.741 29.3558 123.17 28.8615 123.745 28.4882C124.321 28.1096 125.063 27.9203 125.973 27.9203C126.789 27.9203 127.503 28.0886 128.115 28.4251C128.727 28.7564 129.203 29.2612 129.543 29.9395C129.883 30.6126 130.053 31.4645 130.053 32.4951V40.1935H128.201V32.6213C128.201 31.6695 127.955 30.9281 127.464 30.397C126.972 29.8606 126.297 29.5925 125.44 29.5925C124.849 29.5925 124.321 29.7213 123.855 29.979C123.395 30.2366 123.031 30.6126 122.765 31.1069C122.498 31.6012 122.365 32.2007 122.365 32.9053Z" fill="#22262F"/>
<path d="M137.986 40.4459C136.981 40.4459 136.095 40.1909 135.326 39.6808C134.557 39.1655 133.956 38.4398 133.522 37.5038C133.088 36.5625 132.871 35.4504 132.871 34.1673C132.871 32.8948 133.088 31.7905 133.522 30.8545C133.956 29.9185 134.56 29.1955 135.334 28.6854C136.108 28.1753 137.002 27.9203 138.017 27.9203C138.801 27.9203 139.421 28.0517 139.876 28.3147C140.336 28.5723 140.687 28.8668 140.927 29.1981C141.173 29.5241 141.364 29.7923 141.5 30.0026H141.657V24.0396H143.508V40.1935H141.72V38.332H141.5C141.364 38.5528 141.171 38.8315 140.92 39.1681C140.668 39.4994 140.31 39.7965 139.845 40.0594C139.379 40.3171 138.76 40.4459 137.986 40.4459ZM138.237 38.7737C138.979 38.7737 139.607 38.5791 140.119 38.19C140.632 37.7956 141.021 37.2514 141.288 36.5573C141.555 35.8579 141.688 35.0507 141.688 34.1358C141.688 33.2313 141.558 32.4399 141.296 31.7616C141.035 31.078 140.648 30.5469 140.135 30.1683C139.623 29.7844 138.99 29.5925 138.237 29.5925C137.452 29.5925 136.798 29.7949 136.275 30.1998C135.758 30.5995 135.368 31.1437 135.107 31.8326C134.85 32.5162 134.722 33.2839 134.722 34.1358C134.722 34.9981 134.853 35.7816 135.114 36.4863C135.381 37.1857 135.773 37.743 136.291 38.1585C136.814 38.5686 137.463 38.7737 138.237 38.7737Z" fill="#22262F"/>
<path d="M152.208 40.4459C151.047 40.4459 150.046 40.1882 149.204 39.6729C148.367 39.1523 147.721 38.4266 147.266 37.4959C146.816 36.5599 146.591 35.4714 146.591 34.2304C146.591 32.9894 146.816 31.8957 147.266 30.9491C147.721 29.9974 148.354 29.2559 149.164 28.7248C149.98 28.1885 150.932 27.9203 152.02 27.9203C152.647 27.9203 153.267 28.0254 153.879 28.2358C154.491 28.4461 155.048 28.7879 155.55 29.2612C156.052 29.7292 156.452 30.3497 156.75 31.1227C157.048 31.8957 157.197 32.8474 157.197 33.978V34.7668H147.909V33.1577H155.315C155.315 32.4741 155.179 31.8641 154.907 31.3277C154.64 30.7914 154.258 30.3681 153.761 30.0578C153.27 29.7476 152.689 29.5925 152.02 29.5925C151.283 29.5925 150.644 29.7765 150.106 30.1446C149.572 30.5074 149.162 30.9807 148.874 31.5644C148.587 32.1481 148.443 32.7738 148.443 33.4416V34.5144C148.443 35.4293 148.6 36.205 148.913 36.8412C149.232 37.4722 149.674 37.9534 150.239 38.2847C150.804 38.6107 151.46 38.7737 152.208 38.7737C152.695 38.7737 153.134 38.7053 153.526 38.5686C153.924 38.4266 154.266 38.2163 154.554 37.9376C154.841 37.6537 155.064 37.3013 155.221 36.8807L157.009 37.3855C156.821 37.9955 156.505 38.5318 156.06 38.9946C155.615 39.452 155.066 39.8096 154.413 40.0673C153.759 40.3197 153.024 40.4459 152.208 40.4459Z" fill="#22262F"/>
<path d="M160.014 40.1935V28.078H161.802V29.908H161.928C162.148 29.3085 162.545 28.8221 163.12 28.4488C163.696 28.0754 164.344 27.8887 165.066 27.8887C165.202 27.8887 165.372 27.8914 165.576 27.8966C165.78 27.9019 165.934 27.9098 166.039 27.9203V29.8133C165.976 29.7975 165.832 29.7739 165.607 29.7423C165.387 29.7055 165.155 29.6871 164.909 29.6871C164.323 29.6871 163.8 29.8107 163.34 30.0578C162.885 30.2997 162.524 30.6363 162.257 31.0675C161.996 31.4934 161.865 31.9798 161.865 32.5267V40.1935H160.014Z" fill="#22262F"/>
<path d="M107.638 47.7081C107.142 47.7081 106.716 47.5904 106.358 47.3552C106 47.12 105.725 46.7959 105.532 46.3831C105.339 45.9702 105.243 45.4986 105.243 44.9681C105.243 44.4285 105.342 43.9522 105.539 43.5394C105.738 43.1242 106.016 42.8002 106.372 42.5673C106.729 42.332 107.147 42.2144 107.624 42.2144C107.996 42.2144 108.33 42.2836 108.629 42.422C108.927 42.5603 109.171 42.7541 109.362 43.0031C109.552 43.2522 109.67 43.5428 109.716 43.8749H108.904C108.842 43.6328 108.704 43.4183 108.491 43.2315C108.28 43.0424 107.996 42.9478 107.638 42.9478C107.321 42.9478 107.044 43.0308 106.805 43.1969C106.569 43.3606 106.384 43.5924 106.251 43.8922C106.12 44.1898 106.055 44.5392 106.055 44.9405C106.055 45.351 106.119 45.7085 106.248 46.0129C106.378 46.3174 106.562 46.5538 106.798 46.7221C107.037 46.8905 107.317 46.9747 107.638 46.9747C107.849 46.9747 108.04 46.9378 108.212 46.864C108.384 46.7901 108.53 46.6841 108.649 46.5457C108.769 46.4073 108.853 46.2412 108.904 46.0475H109.716C109.67 46.3612 109.556 46.6437 109.375 46.8951C109.196 47.1442 108.959 47.3425 108.663 47.4901C108.369 47.6354 108.028 47.7081 107.638 47.7081Z" fill="#22262F"/>
<path d="M113.05 47.7081C112.573 47.7081 112.154 47.5939 111.794 47.3656C111.436 47.1373 111.156 46.8178 110.955 46.4073C110.755 45.9968 110.655 45.5171 110.655 44.9681C110.655 44.4146 110.755 43.9314 110.955 43.5186C111.156 43.1058 111.436 42.7852 111.794 42.5569C112.154 42.3285 112.573 42.2144 113.05 42.2144C113.527 42.2144 113.945 42.3285 114.302 42.5569C114.662 42.7852 114.942 43.1058 115.142 43.5186C115.344 43.9314 115.445 44.4146 115.445 44.9681C115.445 45.5171 115.344 45.9968 115.142 46.4073C114.942 46.8178 114.662 47.1373 114.302 47.3656C113.945 47.5939 113.527 47.7081 113.05 47.7081ZM113.05 46.9747C113.412 46.9747 113.711 46.8812 113.945 46.6944C114.178 46.5076 114.352 46.262 114.464 45.9576C114.576 45.6531 114.633 45.3233 114.633 44.9681C114.633 44.613 114.576 44.282 114.464 43.9753C114.352 43.6685 114.178 43.4206 113.945 43.2315C113.711 43.0424 113.412 42.9478 113.05 42.9478C112.688 42.9478 112.389 43.0424 112.155 43.2315C111.921 43.4206 111.748 43.6685 111.636 43.9753C111.523 44.282 111.467 44.613 111.467 44.9681C111.467 45.3233 111.523 45.6531 111.636 45.9576C111.748 46.262 111.921 46.5076 112.155 46.6944C112.389 46.8812 112.688 46.9747 113.05 46.9747Z" fill="#22262F"/>
<path d="M117.496 44.4008V47.5974H116.684V42.2836H117.469V43.1139H117.537C117.661 42.844 117.849 42.6272 118.102 42.4635C118.354 42.2974 118.68 42.2144 119.079 42.2144C119.437 42.2144 119.75 42.2882 120.018 42.4358C120.287 42.5811 120.495 42.8025 120.644 43.1C120.794 43.3952 120.868 43.7689 120.868 44.2209V47.5974H120.056V44.2762C120.056 43.8588 119.948 43.5336 119.733 43.3007C119.517 43.0654 119.221 42.9478 118.845 42.9478C118.586 42.9478 118.354 43.0043 118.15 43.1173C117.948 43.2303 117.789 43.3952 117.672 43.612C117.555 43.8288 117.496 44.0917 117.496 44.4008Z" fill="#22262F"/>
<path d="M126.095 43.4736L125.366 43.6812C125.32 43.559 125.252 43.4402 125.163 43.3249C125.076 43.2073 124.956 43.1104 124.805 43.0343C124.654 42.9582 124.46 42.9201 124.224 42.9201C123.9 42.9201 123.631 42.9951 123.415 43.145C123.202 43.2926 123.095 43.4806 123.095 43.7089C123.095 43.9118 123.168 44.0721 123.315 44.1898C123.462 44.3074 123.691 44.4054 124.003 44.4838L124.788 44.6775C125.26 44.7929 125.613 44.9693 125.844 45.2069C126.076 45.4421 126.192 45.7454 126.192 46.1167C126.192 46.4211 126.105 46.6933 125.93 46.9331C125.758 47.173 125.517 47.3621 125.208 47.5005C124.898 47.6389 124.538 47.7081 124.127 47.7081C123.588 47.7081 123.142 47.5904 122.789 47.3552C122.436 47.12 122.212 46.7763 122.118 46.3243L122.889 46.1305C122.962 46.4165 123.101 46.631 123.305 46.774C123.511 46.917 123.781 46.9885 124.114 46.9885C124.492 46.9885 124.792 46.9078 125.015 46.7463C125.24 46.5826 125.352 46.3865 125.352 46.1582C125.352 45.9737 125.288 45.8192 125.159 45.6946C125.031 45.5678 124.834 45.4732 124.568 45.411L123.687 45.2034C123.203 45.0881 122.847 44.9093 122.62 44.6672C122.395 44.4227 122.283 44.1171 122.283 43.7504C122.283 43.4506 122.367 43.1854 122.534 42.9547C122.704 42.7241 122.935 42.543 123.226 42.4116C123.519 42.2801 123.852 42.2144 124.224 42.2144C124.747 42.2144 125.157 42.3297 125.455 42.5603C125.756 42.791 125.969 43.0954 126.095 43.4736Z" fill="#22262F"/>
<path d="M129.712 42.2836V42.9755H126.974V42.2836H129.712ZM127.772 41.0105H128.584V46.0752C128.584 46.3058 128.617 46.4788 128.684 46.5941C128.752 46.7071 128.84 46.7832 128.945 46.8224C129.053 46.8593 129.166 46.8778 129.286 46.8778C129.375 46.8778 129.449 46.8732 129.506 46.864C129.563 46.8524 129.609 46.8432 129.644 46.8363L129.809 47.5697C129.754 47.5904 129.677 47.6112 129.578 47.632C129.48 47.655 129.355 47.6666 129.203 47.6666C128.974 47.6666 128.749 47.617 128.529 47.5178C128.311 47.4186 128.13 47.2676 127.985 47.0646C127.843 46.8616 127.772 46.6056 127.772 46.2966V41.0105Z" fill="#22262F"/>
<path d="M130.934 47.5974V42.2836H131.718V43.0862H131.773C131.87 42.8233 132.044 42.6099 132.296 42.4462C132.549 42.2824 132.833 42.2005 133.15 42.2005C133.209 42.2005 133.284 42.2017 133.373 42.204C133.463 42.2063 133.53 42.2098 133.576 42.2144V43.0447C133.549 43.0377 133.486 43.0274 133.387 43.0135C133.291 42.9974 133.189 42.9893 133.081 42.9893C132.824 42.9893 132.595 43.0435 132.393 43.1519C132.193 43.258 132.035 43.4056 131.918 43.5947C131.803 43.7815 131.746 43.9949 131.746 44.2347V47.5974H130.934Z" fill="#22262F"/>
<path d="M137.869 45.4248V42.2836H138.681V47.5974H137.869V46.6979H137.814C137.691 46.9677 137.498 47.1972 137.236 47.3863C136.975 47.5732 136.645 47.6666 136.245 47.6666C135.915 47.6666 135.622 47.5939 135.365 47.4486C135.108 47.301 134.906 47.0796 134.759 46.7844C134.612 46.4869 134.539 46.1121 134.539 45.66V42.2836H135.351V45.6047C135.351 45.9922 135.459 46.3012 135.674 46.5318C135.892 46.7625 136.17 46.8778 136.507 46.8778C136.709 46.8778 136.914 46.8259 137.123 46.7221C137.334 46.6183 137.51 46.4592 137.653 46.2447C137.797 46.0302 137.869 45.7569 137.869 45.4248Z" fill="#22262F"/>
<path d="M142.316 47.7081C141.82 47.7081 141.394 47.5904 141.036 47.3552C140.678 47.12 140.403 46.7959 140.21 46.3831C140.017 45.9702 139.921 45.4986 139.921 44.9681C139.921 44.4285 140.02 43.9522 140.217 43.5394C140.416 43.1242 140.694 42.8002 141.05 42.5673C141.407 42.332 141.825 42.2144 142.302 42.2144C142.674 42.2144 143.008 42.2836 143.307 42.422C143.605 42.5603 143.849 42.7541 144.039 43.0031C144.23 43.2522 144.348 43.5428 144.394 43.8749H143.582C143.52 43.6328 143.382 43.4183 143.169 43.2315C142.958 43.0424 142.674 42.9478 142.316 42.9478C141.999 42.9478 141.722 43.0308 141.483 43.1969C141.247 43.3606 141.062 43.5924 140.929 43.8922C140.798 44.1898 140.733 44.5392 140.733 44.9405C140.733 45.351 140.797 45.7085 140.926 46.0129C141.056 46.3174 141.24 46.5538 141.476 46.7221C141.715 46.8905 141.995 46.9747 142.316 46.9747C142.527 46.9747 142.718 46.9378 142.89 46.864C143.062 46.7901 143.208 46.6841 143.327 46.5457C143.447 46.4073 143.531 46.2412 143.582 46.0475H144.394C144.348 46.3612 144.234 46.6437 144.053 46.8951C143.874 47.1442 143.637 47.3425 143.341 47.4901C143.047 47.6354 142.706 47.7081 142.316 47.7081Z" fill="#22262F"/>
<path d="M147.879 42.2836V42.9755H145.141V42.2836H147.879ZM145.939 41.0105H146.751V46.0752C146.751 46.3058 146.784 46.4788 146.851 46.5941C146.919 46.7071 147.007 46.7832 147.112 46.8224C147.22 46.8593 147.333 46.8778 147.453 46.8778C147.542 46.8778 147.616 46.8732 147.673 46.864C147.73 46.8524 147.776 46.8432 147.811 46.8363L147.976 47.5697C147.921 47.5904 147.844 47.6112 147.745 47.632C147.646 47.655 147.521 47.6666 147.37 47.6666C147.141 47.6666 146.916 47.617 146.696 47.5178C146.478 47.4186 146.297 47.2676 146.152 47.0646C146.01 46.8616 145.939 46.6056 145.939 46.2966V41.0105Z" fill="#22262F"/>
<path d="M149.101 47.5974V42.2836H149.913V47.5974H149.101ZM149.514 41.3979C149.355 41.3979 149.219 41.3437 149.104 41.2353C148.992 41.1269 148.936 40.9966 148.936 40.8444C148.936 40.6922 148.992 40.5619 149.104 40.4535C149.219 40.3451 149.355 40.2909 149.514 40.2909C149.672 40.2909 149.807 40.3451 149.92 40.4535C150.034 40.5619 150.092 40.6922 150.092 40.8444C150.092 40.9966 150.034 41.1269 149.92 41.2353C149.807 41.3437 149.672 41.3979 149.514 41.3979Z" fill="#22262F"/>
<path d="M153.547 47.7081C153.07 47.7081 152.651 47.5939 152.291 47.3656C151.933 47.1373 151.653 46.8178 151.452 46.4073C151.252 45.9968 151.152 45.5171 151.152 44.9681C151.152 44.4146 151.252 43.9314 151.452 43.5186C151.653 43.1058 151.933 42.7852 152.291 42.5569C152.651 42.3285 153.07 42.2144 153.547 42.2144C154.024 42.2144 154.442 42.3285 154.799 42.5569C155.16 42.7852 155.439 43.1058 155.639 43.5186C155.841 43.9314 155.942 44.4146 155.942 44.9681C155.942 45.5171 155.841 45.9968 155.639 46.4073C155.439 46.8178 155.16 47.1373 154.799 47.3656C154.442 47.5939 154.024 47.7081 153.547 47.7081ZM153.547 46.9747C153.909 46.9747 154.208 46.8812 154.442 46.6944C154.676 46.5076 154.849 46.262 154.961 45.9576C155.074 45.6531 155.13 45.3233 155.13 44.9681C155.13 44.613 155.074 44.282 154.961 43.9753C154.849 43.6685 154.676 43.4206 154.442 43.2315C154.208 43.0424 153.909 42.9478 153.547 42.9478C153.185 42.9478 152.886 43.0424 152.652 43.2315C152.418 43.4206 152.245 43.6685 152.133 43.9753C152.02 44.282 151.964 44.613 151.964 44.9681C151.964 45.3233 152.02 45.6531 152.133 45.9576C152.245 46.262 152.418 46.5076 152.652 46.6944C152.886 46.8812 153.185 46.9747 153.547 46.9747Z" fill="#22262F"/>
<path d="M157.993 44.4008V47.5974H157.181V42.2836H157.966V43.1139H158.035C158.158 42.844 158.347 42.6272 158.599 42.4635C158.851 42.2974 159.177 42.2144 159.576 42.2144C159.934 42.2144 160.247 42.2882 160.515 42.4358C160.784 42.5811 160.992 42.8025 161.142 43.1C161.291 43.3952 161.365 43.7689 161.365 44.2209V47.5974H160.553V44.2762C160.553 43.8588 160.445 43.5336 160.23 43.3007C160.014 43.0654 159.718 42.9478 159.342 42.9478C159.083 42.9478 158.851 43.0043 158.647 43.1173C158.445 43.2303 158.286 43.3952 158.169 43.612C158.052 43.8288 157.993 44.0917 157.993 44.4008Z" fill="#22262F"/>
<path d="M66.0164 101.348C65.659 102.365 65.3017 103.376 64.949 104.388C56.4422 102.847 52.4418 95.1992 52.3815 87.1705C52.5532 87.1565 52.7295 87.1287 52.9013 87.0823C53.2679 86.9755 53.1936 86.5161 52.8827 86.4186L54.21 86.0474C54.2471 86.0845 54.2982 86.117 54.3585 86.1355C54.6741 86.2237 54.9989 86.2655 55.3238 86.2701C55.1289 92.7488 59.4031 99.7287 65.9236 101.348C65.9561 101.353 65.9839 101.353 66.0164 101.348Z" fill="#D74761"/>
<path d="M53.7041 75.6615C53.7041 75.861 53.7087 76.0606 53.7319 76.2555C53.7319 76.8031 53.6763 77.3275 53.6345 77.6802C53.6298 77.7127 53.6345 77.7406 53.6438 77.7638C52.6553 77.7684 51.6714 77.8427 50.6922 77.9819C50.7107 77.9401 50.7246 77.8937 50.7246 77.838C50.6597 76.5804 50.2652 74.246 52.0751 73.949C53.2261 73.7633 53.6113 74.6544 53.7041 75.6615Z" fill="#D74761"/>
<path d="M61.2826 77.7028C62.285 77.6007 63.8676 77.842 63.3199 79.2296C62.7537 80.6729 61.0691 81.5176 59.6026 81.8378C59.3798 81.6614 58.9807 81.6939 58.925 82.0327C58.5723 84.2557 56.716 85.7222 54.4466 85.467C54.1217 85.4345 54.0242 85.8475 54.2099 86.0471L52.8826 86.4184C52.8594 86.4137 52.8362 86.4091 52.8083 86.4044C52.6505 86.3859 52.4974 86.3673 52.3489 86.3487C52.2329 86.0703 51.8477 86.0378 51.6388 86.2374C51.1979 86.1445 50.7803 85.996 50.3533 85.7037C49.6432 85.2117 49.1699 84.5295 48.8496 83.7545C48.794 83.1187 48.729 82.4829 48.6408 81.8378C48.6269 81.7357 48.5758 81.6754 48.5062 81.6429C48.07 80.4316 47.3414 79.3735 47.0722 78.0833C46.8773 77.1505 46.7473 75.4984 48.1396 75.4891C49.3555 75.4798 49.7964 76.8581 49.634 77.8559C49.6154 77.9812 49.6664 78.0787 49.7453 78.139C49.3509 78.2179 48.9517 78.3014 48.5619 78.4035C48.186 78.4964 48.3484 79.0347 48.7197 78.9744C51.184 78.5428 53.5648 78.4175 56.057 78.5845C56.5118 78.617 56.4978 77.9348 56.057 77.8838C55.5836 77.8327 55.1102 77.8049 54.6368 77.7817C54.6554 77.7445 54.674 77.6981 54.6693 77.6378C54.6415 76.8813 54.4234 76.1295 54.493 75.373C54.609 74.1943 55.8899 72.8484 56.9898 73.9437C58.1732 75.1271 58.1546 77.0345 57.7323 78.5196C57.6627 78.7609 57.9319 78.9326 58.1221 78.8491C58.2382 78.9604 58.4331 79.0069 58.5955 78.8769C59.3613 78.2365 60.2802 77.8049 61.2826 77.7028Z" fill="#D74761"/>
<path d="M85.907 164.131C85.8374 164.752 85.8374 165.37 85.8931 165.987C77.2796 161.68 68.5501 157.605 59.9134 153.354C51.2071 149.066 42.5936 144.472 33.7342 140.513C33.7481 140.471 33.762 140.434 33.762 140.388C33.8038 139.311 33.6367 138.239 33.3536 137.204C42.5472 142.42 51.8337 147.474 61.2036 152.366C65.9419 154.839 70.7174 157.257 75.5115 159.634C77.7716 160.752 80.0363 161.875 82.315 162.966C83.5448 163.555 84.6818 164.047 85.907 164.131Z" fill="#D74761"/>
<path d="M139.05 138.411C139.106 138.917 139.147 139.427 139.138 139.943C130.469 144.658 121.73 149.248 112.936 153.726C104.345 158.102 95.356 161.931 86.9467 166.646C86.9142 166.549 86.8446 166.461 86.7193 166.4C86.6961 166.386 86.6682 166.372 86.645 166.363C86.5476 165.625 86.5151 164.883 86.5104 164.136C86.9513 164.117 87.4061 164.038 87.8841 163.894C89.9354 163.258 91.9264 162.038 93.8616 161.114C96.4095 159.898 98.9573 158.683 101.505 157.457C106.192 155.207 110.87 152.928 115.53 150.612C120.319 148.227 125.085 145.799 129.819 143.307C132.056 142.128 134.279 140.936 136.497 139.725C137.143 139.372 138.238 138.982 139.05 138.411Z" fill="#D74761"/>
<path d="M137.138 135.199C139.226 137.204 137.88 137.552 136.261 138.439C135.351 138.935 134.437 139.432 133.523 139.928C131.295 141.126 129.063 142.309 126.821 143.474C122.737 145.604 118.63 147.688 114.504 149.735C106.118 153.898 97.7042 158.033 89.216 161.973C87.2575 162.882 86.1298 163.202 84.046 162.414C82.974 162.01 81.953 161.439 80.9274 160.938C78.658 159.833 76.3886 158.715 74.1285 157.587C70.0027 155.536 65.9002 153.447 61.8069 151.336C52.5576 146.565 43.4197 141.599 34.3607 136.476C42.8257 130.596 51.7501 125.254 59.9366 118.989C58.2288 124.094 56.5674 129.208 55.0127 134.35C55.008 134.35 55.008 134.35 55.008 134.35C54.9895 134.332 54.9663 134.308 54.9384 134.29C54.8781 134.248 54.7945 134.332 54.8363 134.392C54.8874 134.461 54.9338 134.494 54.9941 134.531C55.0034 134.749 55.1658 134.888 55.3607 134.935C55.37 134.986 55.3839 135.032 55.4164 135.083C58.2706 139.636 64.9302 140.55 69.7568 141.423C76.3329 142.602 83.0251 143.019 89.6986 142.866C95.9082 142.727 102.317 142.337 108.415 141.079C112.75 140.188 117.247 138.397 119.321 134.22C119.502 133.863 119.307 133.529 119.029 133.389C118.987 132.735 118.681 132.099 118.454 131.403C117.808 129.435 117.163 127.463 116.514 125.495C116.184 124.493 115.85 123.486 115.516 122.483C119.099 124.265 122.635 126.126 126.092 128.141C127.921 129.208 129.726 130.308 131.508 131.445C133.318 132.601 135.592 133.714 137.138 135.199ZM92.4832 158.172C92.9519 157.865 92.5435 157.16 92.0423 157.42C90.1349 158.427 88.3064 159.49 86.334 160.385C86.0091 160.529 86.2365 161.082 86.5753 160.961C88.5848 160.246 90.7057 159.36 92.4832 158.172ZM91.309 156.988C91.7917 156.719 91.3647 156.004 90.8774 156.25C89.7126 156.844 88.5848 157.541 87.4478 158.195C87.0858 158.404 87.406 158.933 87.7727 158.752C88.9515 158.172 90.1627 157.624 91.309 156.988Z" fill="#D74761"/>
<path d="M129.875 120.464C130.014 121.833 129.972 123.616 128.283 123.88C126.575 124.149 125.772 122.358 126.376 120.961C126.431 120.831 126.376 120.678 126.283 120.59C127.476 120.743 128.682 120.687 129.875 120.464Z" fill="#D74761"/>
<path d="M132.409 117.615C133.43 118.603 135.24 120.2 134.237 121.796C133.824 122.446 132.924 122.715 132.2 122.497C131.499 122.284 131.026 121.68 130.785 121.007C130.771 120.761 130.743 120.52 130.715 120.283C131.021 120.205 131.323 120.121 131.629 120.024C132.14 119.861 131.917 119.049 131.406 119.216C129.067 119.986 126.779 120.01 124.362 119.671C124.069 119.629 123.944 120.024 124.236 120.126C124.603 120.251 124.97 120.348 125.341 120.432C125.262 120.515 125.211 120.631 125.239 120.78C125.369 121.462 125.434 122.195 125.062 122.827C124.682 123.472 123.86 123.852 123.16 123.476C121.879 122.789 122.408 120.961 122.626 119.819C122.863 119.648 122.89 119.23 122.524 119.151C121.229 118.877 119.521 119.597 118.393 118.775C117.358 118.028 118.259 116.998 119.089 116.645C119.906 116.292 120.788 116.315 121.605 116.673C121.8 116.761 121.981 116.64 122.036 116.487C122.194 116.58 122.408 116.557 122.445 116.329C122.695 114.872 123.364 113.963 124.696 113.317C125.067 113.141 124.802 112.575 124.422 112.672C124.12 112.747 123.828 112.881 123.554 113.058C121.02 107.205 115.182 104.379 109.135 103.613C108.68 102.319 108.234 101.024 107.78 99.7336C115.883 99.7011 122.347 104.62 126.543 111.262C126.459 111.285 126.376 111.303 126.292 111.331C125.963 111.433 126.102 111.897 126.431 111.842C128.404 111.494 130.529 112.482 131.42 114.283C131.397 114.362 131.397 114.454 131.448 114.547C131.889 115.378 131.945 116.25 131.889 117.174C131.875 117.406 132.13 117.462 132.284 117.355C132.293 117.443 132.325 117.531 132.409 117.615ZM130.028 115.963C130.204 116.329 130.757 116.065 130.664 115.694C130.293 114.153 128.58 113.113 127.067 113.16C126.673 113.174 126.677 113.744 127.067 113.768C128.52 113.851 129.411 114.714 130.028 115.963Z" fill="#D74761"/>
<path d="M111.399 114.018C111.437 114.125 111.469 114.232 111.506 114.343C103.357 116.97 94.9242 118.413 86.3479 118.404C78.6022 118.399 69.9052 117.856 63.1202 113.74C65.0833 107.804 67.0325 101.864 69.0699 95.9561C73.7572 99.3532 80.1337 99.381 85.7028 99.3996C92.33 99.4228 99.0221 98.6431 105.246 96.2902C106.104 98.6803 106.953 101.08 107.789 103.479C107.779 103.474 107.766 103.474 107.756 103.474C107.417 103.446 107.329 104.027 107.677 104.078C107.789 104.096 107.905 104.119 108.021 104.138C109.162 107.424 110.29 110.719 111.399 114.018ZM106.341 107.057C106.461 107.387 107.056 107.368 107.004 106.964C106.768 105.057 105.909 102.973 104.976 101.293C104.856 101.08 104.489 101.223 104.573 101.465C104.888 102.388 105.255 103.293 105.547 104.226C105.84 105.159 106.011 106.138 106.341 107.057ZM104.201 108.463C104.382 108.96 105.097 108.672 104.874 108.18C104.317 106.941 103.951 105.665 103.542 104.375C103.477 104.175 103.125 104.194 103.153 104.43C103.301 105.804 103.728 107.168 104.201 108.463Z" fill="#D74761"/>
<path d="M96.7111 74.004C97.1473 75.0622 97.5743 76.1249 98.0013 77.1877C94.4231 78.0787 90.794 78.5521 87.0952 78.4454C83.2479 78.334 79.6373 77.4615 75.9199 76.5983C76.1288 76.0275 76.3283 75.452 76.5372 74.8812C77.7299 71.6093 78.9458 68.3422 80.1663 65.0796C81.2569 62.1698 82.1341 57.7609 85.3966 56.5357C85.5173 56.4893 85.5915 56.4104 85.6379 56.3223C89.4667 56.4661 90.8636 60.4759 92.228 63.5296C93.7781 66.9963 95.2678 70.4909 96.7111 74.004ZM81.7814 69.7112C82.0505 69.2796 81.3869 68.9083 81.1038 69.3167C80.3056 70.477 79.7208 71.8692 79.4702 73.2522C79.4145 73.5724 79.8368 73.6885 79.9529 73.3868C80.4494 72.0734 81.0342 70.8993 81.7814 69.7112ZM80.0178 70.2449C80.2313 69.8319 79.5862 69.4745 79.4006 69.8876C78.7926 71.2334 78.1476 72.5654 77.586 73.9298C77.4839 74.1804 77.8923 74.3428 78.0176 74.1108C78.7277 72.8485 79.3542 71.5351 80.0178 70.2449Z" fill="#D74761"/>
<path d="M117.702 133.264C117.637 133.306 117.581 133.362 117.539 133.44L117.447 133.603C117.312 133.844 117.372 134.09 117.535 134.294C117.614 134.392 117.688 134.457 117.757 134.512C115.354 138.114 110.996 139.441 106.842 140.156C101.064 141.154 95.11 141.562 89.2532 141.673C83.2803 141.785 77.2797 141.46 71.3765 140.499C65.9606 139.617 60.0481 138.675 56.0755 134.577C56.0523 134.554 56.0291 134.545 56.0059 134.526C58.4098 127.908 60.6467 121.221 62.8604 114.529C68.8379 118.979 77.9619 119.379 85.0717 119.504C94.1447 119.662 103.245 118.265 111.85 115.373C112.513 117.36 113.172 119.351 113.836 121.342C113.836 121.439 113.864 121.537 113.924 121.62C114.156 122.316 114.393 123.017 114.625 123.713C115.177 125.402 115.734 127.092 116.286 128.781C116.565 129.626 116.839 130.47 117.117 131.315C117.256 131.737 117.396 132.16 117.53 132.582C117.539 132.846 117.6 133.074 117.702 133.264ZM64.4244 136.086C64.8839 136.146 64.9535 135.417 64.5312 135.297C63.6772 135.046 62.814 134.874 61.9787 134.559C61.1526 134.243 60.4054 133.775 59.5886 133.454C59.3612 133.366 59.1988 133.696 59.3612 133.849C60.6003 135.037 62.7398 135.863 64.4244 136.086ZM62.0112 136.749C62.5217 136.889 62.7212 136.127 62.2293 135.96C60.4193 135.339 58.8878 134.461 57.5188 133.111C57.2403 132.837 56.8459 133.245 57.0918 133.538C58.3634 135.042 60.1038 136.225 62.0112 136.749Z" fill="#F5F5F5"/>
<path d="M100.582 86.7946C101.185 88.7577 101.199 90.9529 99.672 92.4983C98.1451 94.0437 94.3442 95.0879 93.2861 92.1966C93.184 91.9228 92.9288 91.8253 92.706 91.8671L92.4508 90.9714C92.7385 90.9714 93.0309 90.874 93.2536 90.679C93.8384 90.1685 93.6481 89.2125 93.0216 88.8273C92.8592 88.7299 92.6503 88.6556 92.4554 88.6649C92.4136 88.6649 92.3719 88.6742 92.3301 88.6835L92.0284 88.0894C92.2187 88.0894 92.3997 87.9641 92.3951 87.7089C92.3533 85.4256 93.8709 83.1654 96.3445 83.1422C98.5999 83.1237 99.9644 84.799 100.582 86.7946Z" fill="#F5F5F5"/>
<path d="M137.068 133.644C134.748 132.048 132.386 130.507 129.982 129.027C127.513 127.509 125.007 126.052 122.463 124.669C120.004 123.332 117.511 122.061 114.982 120.863C114.189 118.469 113.395 116.079 112.588 113.688C111.543 110.584 110.481 107.484 109.404 104.393C114.973 105.497 120.421 107.822 122.77 113.429C122.802 113.503 122.849 113.554 122.9 113.6C122.241 114.287 121.823 115.234 121.874 116.139C120.301 115.28 117.368 115.587 117.094 117.786C116.982 118.682 117.609 119.374 118.384 119.698C119.549 120.19 120.783 119.763 121.995 119.861C121.456 121.281 121.298 123.406 122.728 124.177C122.918 124.279 123.136 124.358 123.387 124.404C124.464 124.618 125.229 124.093 125.67 123.309C126.041 124.061 126.765 124.646 127.689 124.743C128.636 124.841 129.62 124.451 130.19 123.68C130.487 123.281 130.645 122.831 130.729 122.362C131.522 123.379 132.924 123.829 134.237 122.989C136.748 121.383 134.59 118.315 133.007 117.016C132.817 116.858 132.59 116.895 132.441 117.016C132.659 116.236 132.553 115.42 132.256 114.672C132.353 114.584 132.404 114.454 132.334 114.287C131.494 112.254 129.508 110.964 127.392 111.122C127.397 111.048 127.383 110.969 127.336 110.885C123.062 103.98 116.031 98.5081 107.552 99.0975C107.111 97.8584 106.67 96.6239 106.225 95.3848C106.211 95.3152 106.188 95.2549 106.155 95.1945C105.603 93.6723 105.051 92.1548 104.489 90.6372C101.746 83.235 98.8366 75.8977 95.7086 68.6487C94.2421 65.2515 92.9983 61.3207 90.7846 58.3227C89.4016 56.4524 87.3921 55.1483 85.0206 55.7006C84.9557 55.7145 84.9093 55.7516 84.8721 55.798C82.9137 56.5777 81.8091 58.2299 80.9413 60.1326C79.6279 63.0193 78.6348 66.0823 77.5349 69.0524C74.8478 76.2922 72.2443 83.5691 69.6964 90.8599C68.5409 94.1643 67.376 97.4778 66.2111 100.787C66.1972 100.778 66.1879 100.764 66.1694 100.754C60.229 98.0394 56.1172 92.9066 56.2889 86.1587C58.0107 85.755 59.505 84.2792 59.7278 82.5017C60.8695 82.3207 61.9369 81.8706 62.8279 81.1094C63.6169 80.4412 64.5358 79.3088 64.1923 78.195C63.8582 77.1136 62.5634 76.9791 61.6027 77.0162C60.4564 77.0579 59.4122 77.4617 58.5026 78.1207C59.1199 76.2644 58.7022 73.4195 56.6695 72.7744C55.6949 72.4635 54.6924 73.0668 54.1773 73.8836C54.0984 74.0042 54.0381 74.1342 53.9824 74.2641C53.5879 73.6237 52.9243 73.1642 52.1353 73.2153C50.6734 73.3128 50.0794 74.5287 49.9495 75.8281C49.8195 75.61 49.6571 75.4058 49.4436 75.2341C48.7243 74.6447 47.6151 74.5565 46.8586 75.1273C44.993 76.5289 46.6266 80.5108 48.107 81.7731C48.0653 81.8334 48.0421 81.9077 48.056 82.0005C48.1349 82.5574 48.2323 83.105 48.3391 83.6527C48.3576 83.894 48.4087 84.1353 48.4922 84.3766C48.534 84.5762 48.5711 84.7804 48.6175 84.9846C48.6407 85.082 48.7382 85.1099 48.8171 85.0913C49.3926 86.0613 50.3903 86.8641 51.4717 87.1055C51.1793 95.1481 55.9362 104.365 64.7492 104.968C63.2456 109.261 61.7605 113.559 60.3079 117.865C55.6438 120.58 51.2071 123.745 46.7287 126.753C42.1481 129.829 37.5351 132.874 33.0149 136.039C32.9035 136.118 32.8246 136.229 32.7828 136.35C32.6065 136.382 32.4533 136.536 32.4997 136.772C32.7503 137.96 32.8385 139.139 32.8988 140.346C32.7271 140.48 32.6714 140.754 32.9267 140.893C33.0798 140.977 33.233 141.065 33.3908 141.144L33.7342 140.513C33.7481 140.471 33.7621 140.434 33.7621 140.387C33.8038 139.311 33.6367 138.239 33.3537 137.204C42.5472 142.42 51.8337 147.474 61.2036 152.366C65.942 154.839 70.7174 157.257 75.5115 159.633C77.7716 160.752 80.0363 161.875 82.315 162.965C83.5448 163.555 84.6819 164.047 85.907 164.13L86.5104 164.135C86.9512 164.116 87.4061 164.037 87.8841 163.894C89.9353 163.258 91.9263 162.037 93.8615 161.114C96.4094 159.898 98.9572 158.682 101.505 157.457C106.192 155.206 110.87 152.927 115.53 150.611C120.319 148.226 125.085 145.799 129.819 143.307C132.056 142.128 134.279 140.935 136.497 139.724C137.142 139.371 138.238 138.981 139.05 138.41C139.106 138.916 139.147 139.427 139.138 139.942C130.469 144.657 121.73 149.247 112.936 153.725C104.345 158.102 95.3559 161.93 86.9466 166.646L87.1879 167.263C96.0474 163.81 104.577 159.1 113.056 154.821C122.027 150.3 130.919 145.618 139.746 140.819C139.946 140.708 140.02 140.531 140.001 140.355C140.034 140.299 140.052 140.23 140.057 140.155C140.085 139.334 140.052 138.452 139.839 137.631C139.955 137.45 140.043 137.26 140.085 137.046C140.386 135.436 138.08 134.34 137.068 133.644ZM126.543 111.261C126.459 111.284 126.376 111.303 126.292 111.331C125.963 111.433 126.102 111.897 126.431 111.841C128.404 111.493 130.529 112.482 131.42 114.283C131.397 114.361 131.397 114.454 131.448 114.547C131.889 115.378 131.945 116.25 131.889 117.174C131.875 117.406 132.13 117.462 132.283 117.355C132.293 117.443 132.325 117.531 132.409 117.615C133.43 118.603 135.24 120.2 134.237 121.796C133.824 122.446 132.924 122.715 132.2 122.497C131.499 122.283 131.026 121.68 130.784 121.007C130.782 120.966 130.776 120.926 130.773 120.886C130.488 120.968 130.203 121.022 129.918 121.054C129.97 122.299 129.737 123.652 128.283 123.88C126.575 124.149 125.772 122.358 126.376 120.961C126.411 120.879 126.398 120.789 126.364 120.711C126.002 120.646 125.637 120.584 125.27 120.537C125.237 120.606 125.221 120.685 125.239 120.779C125.369 121.461 125.433 122.195 125.062 122.826C124.682 123.471 123.86 123.852 123.159 123.476C121.879 122.789 122.408 120.96 122.626 119.819C122.862 119.647 122.89 119.229 122.524 119.15C121.229 118.877 119.521 119.596 118.393 118.774C117.358 118.027 118.259 116.997 119.089 116.644C119.906 116.292 120.788 116.315 121.605 116.672C121.8 116.76 121.981 116.64 122.036 116.486C122.194 116.579 122.408 116.556 122.445 116.329C122.695 114.871 123.364 113.962 124.696 113.317C125.067 113.14 124.802 112.574 124.422 112.672C124.12 112.746 123.828 112.88 123.554 113.057C121.02 107.205 115.182 104.378 109.135 103.613C108.68 102.318 108.234 101.023 107.78 99.7328C115.883 99.7008 122.347 104.62 126.543 111.261ZM76.5371 74.8814C77.7298 71.6095 78.9457 68.3424 80.1663 65.0798C81.2569 62.17 82.134 57.7611 85.3965 56.5359C85.5172 56.4895 85.5915 56.4106 85.6379 56.3225C89.4666 56.4663 90.8635 60.4761 92.2279 63.5298C93.778 66.9965 95.2677 70.4911 96.711 74.0042C97.1473 75.0624 97.5742 76.1251 98.0012 77.1879C94.4231 78.0789 90.7939 78.5523 87.0951 78.4456C83.2478 78.3342 79.6372 77.4617 75.9199 76.5985C76.1287 76.0277 76.3283 75.4522 76.5371 74.8814ZM69.5386 94.5819C69.8765 93.606 70.2213 92.6318 70.5638 91.6582C70.5596 91.3936 70.6172 91.1175 70.7365 90.8395C71.2103 89.7345 71.8507 88.6597 72.2034 87.5078C72.4359 86.7481 72.4582 85.9476 72.7668 85.2124C72.8388 85.0407 72.9297 84.8551 73.0291 84.6662C73.8983 82.2246 74.768 79.7873 75.6512 77.3545C82.6218 80.3525 91.1842 80.1854 98.424 78.2409C100.494 83.4201 102.471 88.6411 104.378 93.8807C104.545 94.3355 104.708 94.7949 104.875 95.2544C99.0969 97.2917 93.087 98.1828 86.9563 98.2663C81.0207 98.3452 74.5698 98.2803 69.3628 95.092C69.4226 94.9207 69.4783 94.749 69.5386 94.5819ZM52.075 73.9486C53.2259 73.7629 53.6111 74.654 53.7039 75.661C53.7039 75.8606 53.7086 76.0602 53.7318 76.2551C53.7318 76.8027 53.6761 77.3271 53.6343 77.6798C53.6297 77.7123 53.6343 77.7402 53.6436 77.7634C52.6551 77.768 51.6712 77.8423 50.692 77.9815C50.7106 77.9397 50.7245 77.8933 50.7245 77.8376C50.6595 76.5799 50.265 74.2456 52.075 73.9486ZM52.3813 87.1704C52.553 87.1565 52.7294 87.1287 52.9011 87.0823C53.2677 86.9755 53.1934 86.5161 52.8825 86.4186C52.8593 86.414 52.8361 86.4093 52.8083 86.4047C52.6505 86.3861 52.4973 86.3676 52.3488 86.349C52.2328 86.0705 51.8476 86.0381 51.6387 86.2376C51.1979 86.1448 50.7802 85.9963 50.3532 85.7039C49.6432 85.212 49.1698 84.5298 48.8496 83.7548C48.7939 83.1189 48.7289 82.4831 48.6407 81.8381C48.6268 81.736 48.5758 81.6756 48.5061 81.6431C48.0699 80.4319 47.3413 79.3738 47.0721 78.0836C46.8772 77.1508 46.7472 75.4986 48.1395 75.4893C49.3554 75.4801 49.7963 76.8584 49.6339 77.8562C49.6153 77.9815 49.6664 78.0789 49.7453 78.1393C49.3508 78.2182 48.9517 78.3017 48.5618 78.4038C48.1859 78.4966 48.3484 79.035 48.7196 78.9746C51.1839 78.543 53.5647 78.4177 56.0569 78.5848C56.5117 78.6173 56.4978 77.9351 56.0569 77.884C55.5835 77.833 55.1101 77.8051 54.6368 77.7819C54.6553 77.7448 54.6739 77.6984 54.6692 77.6381C54.6414 76.8816 54.4233 76.1298 54.4929 75.3733C54.6089 74.1945 55.8898 72.8487 56.9897 73.9439C58.1731 75.1273 58.1546 77.0347 57.7322 78.5198C57.6626 78.7612 57.9318 78.9329 58.1221 78.8493C58.2381 78.9607 58.433 79.0071 58.5954 78.8772C59.3612 78.2367 60.2801 77.8051 61.2825 77.703C62.2849 77.6009 63.8675 77.8423 63.3199 79.2299C62.7537 80.6732 61.069 81.5178 59.6025 81.8381C59.3797 81.6617 58.9806 81.6942 58.9249 82.033C58.5722 84.256 56.7159 85.7225 54.4465 85.4672C54.1216 85.4348 54.0242 85.8478 54.2098 86.0473C54.2469 86.0845 54.298 86.117 54.3583 86.1355C54.6739 86.2237 54.9987 86.2655 55.3236 86.2701C55.1287 92.7488 59.4029 99.7287 65.9234 101.348C65.9559 101.353 65.9837 101.353 66.0162 101.348C65.6589 102.365 65.3015 103.376 64.9488 104.388C56.4421 102.847 52.4416 95.1992 52.3813 87.1704ZM69.0699 95.9556C73.7572 99.3528 80.1338 99.3806 85.7028 99.3992C92.33 99.4224 99.0222 98.6427 105.246 96.2898C106.104 98.6798 106.953 101.079 107.789 103.479C107.78 103.474 107.766 103.474 107.756 103.474C107.418 103.446 107.329 104.026 107.677 104.077C107.789 104.096 107.905 104.119 108.021 104.138C109.163 107.423 110.29 110.718 111.399 114.018C111.437 114.125 111.469 114.231 111.506 114.343C103.357 116.97 94.9243 118.413 86.3479 118.404C78.6023 118.399 69.9053 117.856 63.1203 113.74C65.0834 107.804 67.0326 101.863 69.0699 95.9556ZM62.8604 114.528C68.8379 118.979 77.9619 119.378 85.0717 119.504C94.1446 119.661 103.245 118.264 111.85 115.373C112.513 117.359 113.172 119.35 113.836 121.341C113.836 121.439 113.864 121.536 113.924 121.62C114.156 122.316 114.393 123.017 114.625 123.713C115.177 125.402 115.734 127.091 116.286 128.781C116.565 129.625 116.839 130.47 117.117 131.315C117.256 131.737 117.395 132.159 117.53 132.582C117.539 132.846 117.6 133.073 117.702 133.264C117.637 133.305 117.581 133.361 117.539 133.44L117.447 133.603C117.312 133.844 117.372 134.09 117.535 134.294C117.614 134.391 117.688 134.456 117.757 134.512C115.353 138.113 110.996 139.441 106.842 140.155C101.064 141.153 95.1099 141.562 89.2531 141.673C83.2803 141.784 77.2796 141.46 71.3764 140.499C65.9605 139.617 60.048 138.675 56.0754 134.577C56.0522 134.554 56.029 134.545 56.0058 134.526C58.4098 127.908 60.6467 121.221 62.8604 114.528ZM136.261 138.438C135.351 138.935 134.437 139.431 133.523 139.928C131.295 141.125 129.063 142.309 126.821 143.474C122.737 145.604 118.63 147.688 114.504 149.734C106.118 153.897 97.7042 158.032 89.216 161.972C87.2575 162.882 86.1298 163.202 84.0461 162.413C82.974 162.009 81.953 161.439 80.9274 160.937C78.658 159.833 76.3886 158.714 74.1285 157.587C70.0027 155.535 65.9002 153.447 61.8069 151.335C52.5576 146.565 43.4197 141.599 34.3607 136.475C42.8257 130.595 51.7501 125.254 59.9367 118.988C58.2288 124.093 56.5674 129.208 55.0127 134.35C55.008 134.35 55.008 134.35 55.008 134.35C54.9895 134.331 54.9663 134.308 54.9384 134.289C54.8781 134.248 54.7945 134.331 54.8363 134.391C54.8874 134.461 54.9338 134.494 54.9941 134.531C55.0034 134.749 55.1658 134.888 55.3607 134.934C55.37 134.985 55.3839 135.032 55.4164 135.083C58.2706 139.636 64.9302 140.55 69.7568 141.422C76.3329 142.601 83.0251 143.019 89.6987 142.866C95.9082 142.726 102.317 142.337 108.415 141.079C112.75 140.188 117.247 138.397 119.321 134.22C119.502 133.862 119.308 133.528 119.029 133.389C118.987 132.735 118.681 132.099 118.454 131.403C117.809 129.435 117.163 127.463 116.514 125.495C116.184 124.492 115.85 123.485 115.516 122.483C119.099 124.265 122.635 126.126 126.092 128.14C127.921 129.208 129.726 130.307 131.508 131.445C133.318 132.6 135.592 133.714 137.138 135.199C139.226 137.204 137.88 137.552 136.261 138.438Z" fill="#22262F"/>
<path d="M130.664 115.694C130.757 116.065 130.204 116.329 130.028 115.963C129.411 114.714 128.52 113.851 127.067 113.768C126.677 113.744 126.673 113.174 127.067 113.16C128.58 113.113 130.293 114.153 130.664 115.694Z" fill="#22262F"/>
<path d="M107.005 106.965C107.056 107.368 106.462 107.387 106.341 107.057C106.011 106.139 105.84 105.159 105.547 104.227C105.255 103.294 104.888 102.389 104.573 101.465C104.489 101.224 104.856 101.08 104.977 101.293C105.909 102.973 106.768 105.057 107.005 106.965Z" fill="#22262F"/>
<path d="M104.874 108.18C105.097 108.672 104.383 108.959 104.202 108.463C103.728 107.168 103.301 105.804 103.153 104.43C103.125 104.193 103.478 104.175 103.543 104.374C103.951 105.664 104.318 106.941 104.874 108.18Z" fill="#22262F"/>
<path d="M92.0423 157.419C92.5435 157.159 92.9519 157.865 92.4832 158.171C90.7058 159.359 88.5849 160.245 86.5754 160.96C86.2366 161.081 86.0092 160.529 86.334 160.385C88.3064 159.489 90.1349 158.426 92.0423 157.419Z" fill="#22262F"/>
<path d="M90.8775 156.25C91.3648 156.004 91.7918 156.719 91.3091 156.988C90.1628 157.624 88.9516 158.172 87.7728 158.752C87.4061 158.933 87.0859 158.404 87.4479 158.195C88.5849 157.541 89.7127 156.844 90.8775 156.25Z" fill="#22262F"/>
<path d="M86.9467 166.646L87.188 167.263C86.9931 167.347 86.7982 167.421 86.6033 167.495C86.4873 167.537 86.3898 167.5 86.3248 167.426C86.1995 167.421 86.0835 167.347 86.0556 167.18C86.051 167.175 86.051 167.17 86.051 167.166C77.0477 163.142 68.2346 158.617 59.403 154.227C50.7292 149.916 41.8791 145.813 33.3909 141.144L33.7343 140.513C42.5937 144.472 51.2072 149.066 59.9135 153.355C68.5502 157.606 77.2797 161.68 85.8932 165.987C85.8375 165.37 85.8375 164.753 85.9071 164.131L86.5104 164.135C86.5151 164.882 86.5476 165.625 86.645 166.363C86.6682 166.372 86.6961 166.386 86.7193 166.4C86.8446 166.46 86.9142 166.549 86.9467 166.646Z" fill="#22262F"/>
<path d="M81.1038 69.3176C81.3869 68.9092 82.0506 69.2805 81.7814 69.7121C81.0342 70.9002 80.4495 72.0743 79.9529 73.3877C79.8369 73.6893 79.4146 73.5733 79.4702 73.2531C79.7209 71.8701 80.3056 70.4778 81.1038 69.3176Z" fill="#22262F"/>
<path d="M79.4006 69.8879C79.5863 69.4749 80.2313 69.8322 80.0179 70.2453C79.3542 71.5354 78.7277 72.8488 78.0176 74.1111C77.8923 74.3432 77.4839 74.1807 77.586 73.9301C78.1476 72.5657 78.7927 71.2338 79.4006 69.8879Z" fill="#22262F"/>
<path d="M64.5312 135.297C64.9535 135.417 64.8839 136.146 64.4245 136.086C62.7398 135.863 60.6004 135.037 59.3613 133.849C59.1988 133.696 59.3613 133.366 59.5887 133.454C60.4055 133.774 61.1527 134.243 61.9787 134.559C62.8141 134.874 63.6773 135.046 64.5312 135.297Z" fill="#22262F"/>
<path d="M62.2293 135.96C62.7212 136.127 62.5216 136.889 62.0111 136.749C60.1037 136.225 58.3634 135.041 57.0918 133.538C56.8458 133.245 57.2403 132.837 57.5188 133.111C58.8878 134.461 60.4193 135.339 62.2293 135.96Z" fill="#22262F"/>
<path d="M104.378 93.8817C102.471 88.6421 100.494 83.4211 98.4237 78.2419C91.1839 80.1864 82.6215 80.3535 75.6509 77.3555C74.7412 79.8615 73.8456 82.3723 72.9499 84.8876C72.9517 84.8858 72.954 84.8844 72.9559 84.8825C72.4157 86.2702 71.9034 87.6712 71.3929 89.0649C71.1297 89.7833 70.5835 90.7259 70.6062 91.5376C70.2493 92.5511 69.8906 93.5661 69.5384 94.5824C69.478 94.7495 69.4223 94.9212 69.362 95.0929C74.5691 98.2812 81.0199 98.3462 86.9556 98.2673C93.0862 98.1838 99.0962 97.2927 104.874 95.2554C104.707 94.7959 104.545 94.3365 104.378 93.8817Z" fill="#F5F5F5"/>
<path d="M89.0118 93.4263C89.1418 92.9065 89.8751 93.1386 89.7962 93.6444C89.2253 97.3339 83.814 97.9465 82.6631 94.3034C82.5842 94.0575 82.9462 93.9229 83.0715 94.1317C84.6587 96.7909 88.2275 96.5218 89.0118 93.4263Z" fill="#22262F"/>
<path d="M98.316 86.2698C98.6831 87.8542 98.1304 89.4362 96.5311 90.0581C95.3899 90.5013 93.8603 90.2465 93.4765 88.9476C93.4264 88.7758 93.5387 88.664 93.6719 88.6426C93.786 88.6213 93.9174 88.6714 93.9698 88.812C94.5133 90.2967 96.4643 89.7602 97.2486 88.967C98.0324 88.1735 98.0255 87.0466 97.7155 86.0386C97.3985 85.0139 96.6982 84.154 95.5398 84.1633C94.2701 84.1753 93.4909 85.3356 93.5122 86.5078C93.5145 86.6387 93.4217 86.7032 93.3238 86.7032C93.2235 86.7032 93.1191 86.6364 93.1047 86.5078C92.9572 85.0901 93.9099 83.7628 95.3779 83.663C97.0054 83.5483 97.9823 84.8162 98.316 86.2698Z" fill="#22262F"/>
<path d="M93.8339 87.0815C94.1555 87.2792 94.2534 87.7702 93.9531 88.0319C93.839 88.1322 93.6886 88.1823 93.541 88.1823C93.3387 88.1823 93.1433 88.0895 93.0384 87.8987C92.8857 87.6175 93.0338 87.2365 93.3197 87.1102C93.3647 87.0624 93.4171 87.0244 93.4793 87.0077C93.5007 87.003 93.522 86.9979 93.5438 86.9979C93.6436 86.9933 93.7508 87.0318 93.8339 87.0815Z" fill="#22262F"/>
<path d="M75.5264 86.7912C75.1593 88.3756 75.7121 89.9577 77.3109 90.5796C78.4521 91.0228 79.9822 90.768 80.3655 89.469C80.4156 89.2973 80.3038 89.1855 80.1701 89.1641C80.0559 89.1428 79.9246 89.1929 79.8722 89.3335C79.3287 90.8181 77.3772 90.2817 76.5934 89.4885C75.8095 88.6949 75.8165 87.5681 76.1265 86.5601C76.4435 85.5354 77.1438 84.6755 78.3022 84.6848C79.5724 84.6968 80.3511 85.857 80.3297 87.0293C80.3274 87.1602 80.4202 87.2247 80.5182 87.2247C80.6184 87.2247 80.7233 87.1579 80.7372 87.0293C80.8848 85.6115 79.932 84.2842 78.4641 84.1845C76.837 84.0698 75.8601 85.3377 75.5264 86.7912Z" fill="#22262F"/>
<path d="M80.008 87.603C79.6864 87.8007 79.5885 88.2917 79.8888 88.5534C80.0034 88.6537 80.1533 88.7038 80.3009 88.7038C80.5032 88.7038 80.6986 88.611 80.8035 88.4202C80.9562 88.139 80.8081 87.758 80.5222 87.6317C80.4772 87.5839 80.4248 87.5459 80.3626 87.5292C80.3413 87.5245 80.3199 87.5194 80.2981 87.5194C80.1988 87.5148 80.0916 87.5533 80.008 87.603Z" fill="#22262F"/>
<path d="M131.859 118.181C131.366 117.338 130.162 116.888 129.249 117.322C129.219 117.321 129.183 117.32 129.142 117.319C129.014 117.296 128.887 117.273 128.76 117.249C128.313 117.169 127.872 117.049 127.431 116.944C126.55 116.735 125.678 116.58 124.777 116.487C123.662 116.371 122.705 117.522 122.705 118.559C122.705 119.776 123.659 120.515 124.777 120.631C126.719 120.833 129.3 122.262 131.116 121.016C132.038 120.384 132.453 119.196 131.859 118.181Z" fill="#D74761"/>
</svg>
