<svg width="48" height="48" viewBox="0 0 48 48" fill="none" xmlns="http://www.w3.org/2000/svg">
<path d="M5 1H33C33.5304 1 34.0391 1.21071 34.4142 1.58579C34.7893 1.96086 35 2.46957 35 3V40C35 40.7957 34.6839 41.5587 34.1213 42.1213C33.5587 42.6839 32.7956 43 32 43H5C4.46957 43 3.96086 42.7893 3.58579 42.4142C3.21071 42.0391 3 41.5304 3 41V3C3 2.46957 3.21071 1.96086 3.58579 1.58579C3.96086 1.21071 4.46957 1 5 1Z" fill="url(#paint0_linear_1540_12880)"/>
<path d="M8 4H36C36.5304 4 37.0391 4.21071 37.4142 4.58579C37.7893 4.96086 38 5.46957 38 6V43C38 43.7957 37.6839 44.5587 37.1213 45.1213C36.5587 45.6839 35.7956 46 35 46H8C7.46957 46 6.96086 45.7893 6.58579 45.4142C6.21071 45.0391 6 44.5304 6 44V6C6 5.46957 6.21071 4.96086 6.58579 4.58579C6.96086 4.21071 7.46957 4 8 4Z" fill="url(#paint1_linear_1540_12880)"/>
<path d="M34 23H10C9.44772 23 9 23.4477 9 24V42C9 42.5523 9.44772 43 10 43H34C34.5523 43 35 42.5523 35 42V24C35 23.4477 34.5523 23 34 23Z" fill="#B4CDE1"/>
<path d="M21 34.91C21.0131 34.2509 21.2063 33.6079 21.5589 33.0508C21.9115 32.4938 22.4099 32.0439 23 31.75C23.3685 31.5468 23.6636 31.2325 23.8431 30.8518C24.0227 30.4712 24.0776 30.0436 24 29.63C23.9509 29.0995 23.6932 28.6103 23.2834 28.27C22.8736 27.9296 22.3454 27.7659 21.815 27.815C21.2846 27.864 20.7954 28.1218 20.455 28.5316C20.1146 28.9414 19.9509 29.4695 20 30C20 30.2652 19.8946 30.5196 19.7071 30.7071C19.5196 30.8946 19.2652 31 19 31C18.7348 31 18.4804 30.8946 18.2929 30.7071C18.1054 30.5196 18 30.2652 18 30C17.9994 29.2943 18.1855 28.601 18.5394 27.9904C18.8933 27.3799 19.4024 26.8738 20.0151 26.5236C20.6278 26.1734 21.3222 25.9916 22.0279 25.9965C22.7336 26.0014 23.4254 26.193 24.0332 26.5517C24.6409 26.9104 25.1429 27.4235 25.4883 28.0389C25.8336 28.6543 26.01 29.3501 25.9996 30.0558C25.9891 30.7614 25.7921 31.4517 25.4286 32.0566C25.0652 32.6615 24.5481 33.1595 23.93 33.5C23.6623 33.6294 23.4346 33.8288 23.2709 34.077C23.1072 34.3252 23.0136 34.613 23 34.91C23 35.1752 22.8946 35.4296 22.7071 35.6171C22.5196 35.8046 22.2652 35.91 22 35.91C21.7348 35.91 21.4804 35.8046 21.2929 35.6171C21.1054 35.4296 21 35.1752 21 34.91Z" fill="#D7E9F7"/>
<path d="M22 40C21.8022 40 21.6089 39.9414 21.4444 39.8315C21.28 39.7216 21.1518 39.5654 21.0761 39.3827C21.0004 39.2 20.9806 38.9989 21.0192 38.8049C21.0578 38.6109 21.153 38.4327 21.2929 38.2929C21.4327 38.153 21.6109 38.0578 21.8049 38.0192C21.9989 37.9806 22.2 38.0004 22.3827 38.0761C22.5654 38.1518 22.7216 38.28 22.8315 38.4444C22.9414 38.6089 23 38.8022 23 39C23 39.2652 22.8946 39.5196 22.7071 39.7071C22.5196 39.8946 22.2652 40 22 40Z" fill="#D7E9F7"/>
<path d="M38 47C41.866 47 45 43.866 45 40C45 36.134 41.866 33 38 33C34.134 33 31 36.134 31 40C31 43.866 34.134 47 38 47Z" fill="url(#paint2_linear_1540_12880)"/>
<path d="M39.3802 40L40.7102 38.67C40.8964 38.4827 41.001 38.2292 41.001 37.965C41.001 37.7008 40.8964 37.4474 40.7102 37.26C40.6172 37.1663 40.5066 37.0919 40.3848 37.0411C40.2629 36.9904 40.1322 36.9642 40.0002 36.9642C39.8682 36.9642 39.7375 36.9904 39.6156 37.0411C39.4938 37.0919 39.3832 37.1663 39.2902 37.26L38.0002 38.55L36.6702 37.22C36.5805 37.1153 36.4702 37.0303 36.3462 36.9703C36.2221 36.9103 36.087 36.8765 35.9492 36.8712C35.8115 36.8659 35.6742 36.8891 35.5459 36.9394C35.4175 36.9897 35.301 37.0659 35.2035 37.1634C35.1061 37.2608 35.0298 37.3774 34.9796 37.5057C34.9293 37.634 34.9061 37.7714 34.9114 37.9091C34.9167 38.0468 34.9504 38.1819 35.0105 38.306C35.0705 38.4301 35.1555 38.5404 35.2602 38.63L36.5502 40L35.2202 41.33C35.1265 41.423 35.0521 41.5336 35.0013 41.6555C34.9505 41.7773 34.9244 41.908 34.9244 42.04C34.9244 42.172 34.9505 42.3027 35.0013 42.4246C35.0521 42.5465 35.1265 42.6571 35.2202 42.75C35.4076 42.9363 35.661 43.0408 35.9252 43.0408C36.1894 43.0408 36.4428 42.9363 36.6302 42.75L38.0002 41.38L39.3302 42.71C39.4234 42.8033 39.5341 42.8772 39.6559 42.9277C39.7778 42.9781 39.9083 43.0041 40.0402 43.0041C40.172 43.0041 40.3026 42.9781 40.4244 42.9277C40.5463 42.8772 40.6569 42.8033 40.7502 42.71C40.8434 42.6168 40.9174 42.5061 40.9678 42.3843C41.0183 42.2625 41.0443 42.1319 41.0443 42C41.0443 41.8682 41.0183 41.7376 40.9678 41.6158C40.9174 41.494 40.8434 41.3833 40.7502 41.29L39.3802 40Z" fill="#F0F7FC"/>
<path d="M13 7H18V10C18 10.2652 17.8946 10.5196 17.7071 10.7071C17.5196 10.8946 17.2652 11 17 11H11V9C11 8.46957 11.2107 7.96086 11.5858 7.58579C11.9609 7.21071 12.4696 7 13 7Z" fill="url(#paint3_linear_1540_12880)"/>
<path d="M19 17.56V19H9V17.56C8.99979 17.1147 9.14821 16.682 9.42173 16.3306C9.69526 15.9792 10.0782 15.7291 10.51 15.62C13.51 14.88 12.51 15 15 15L17.49 15.62C17.9218 15.7291 18.3047 15.9792 18.5783 16.3306C18.8518 16.682 19.0002 17.1147 19 17.56Z" fill="url(#paint4_linear_1540_12880)"/>
<path d="M14 17C13.7348 17 13.4804 16.8946 13.2929 16.7071C13.1054 16.5196 13 16.2652 13 16V15H15V16C15 16.2652 14.8946 16.5196 14.7071 16.7071C14.5196 16.8946 14.2652 17 14 17Z" fill="#B4CDE1"/>
<path d="M16 15V18L14 17L15 15H16Z" fill="#EB7F58"/>
<path d="M12 15V18L14 17L13 15H12Z" fill="#EB7F58"/>
<path d="M14 16C13.2044 16 12.4413 15.6839 11.8787 15.1213C11.3161 14.5587 11 13.7956 11 13V11H17V13C17 13.7956 16.6839 14.5587 16.1213 15.1213C15.5587 15.6839 14.7956 16 14 16Z" fill="#D7E9F7"/>
<path d="M34 9H23C22.4477 9 22 9.44772 22 10V16C22 16.5523 22.4477 17 23 17H34C34.5523 17 35 16.5523 35 16V10C35 9.44772 34.5523 9 34 9Z" fill="#D7E9F7"/>
<defs>
<linearGradient id="paint0_linear_1540_12880" x1="29.22" y1="32.22" x2="-0.730001" y2="2.27" gradientUnits="userSpaceOnUse">
<stop stop-color="#54A5FF"/>
<stop offset="0.98" stop-color="#89D2FE"/>
<stop offset="1" stop-color="#8AD3FE"/>
</linearGradient>
<linearGradient id="paint1_linear_1540_12880" x1="22" y1="46" x2="22" y2="4" gradientUnits="userSpaceOnUse">
<stop stop-color="#D3E6F5"/>
<stop offset="1" stop-color="#F0F7FC"/>
</linearGradient>
<linearGradient id="paint2_linear_1540_12880" x1="38" y1="47" x2="38" y2="33" gradientUnits="userSpaceOnUse">
<stop stop-color="#FE9661"/>
<stop offset="1" stop-color="#FFB369"/>
</linearGradient>
<linearGradient id="paint3_linear_1540_12880" x1="14.5" y1="11" x2="14.5" y2="7" gradientUnits="userSpaceOnUse">
<stop stop-color="#54A5FF"/>
<stop offset="1" stop-color="#8AD3FE"/>
</linearGradient>
<linearGradient id="paint4_linear_1540_12880" x1="14" y1="19" x2="14" y2="14.99" gradientUnits="userSpaceOnUse">
<stop stop-color="#FE9661"/>
<stop offset="1" stop-color="#FFB369"/>
</linearGradient>
</defs>
</svg>
