<svg width="512" height="512" viewBox="0 0 512 512" fill="none" xmlns="http://www.w3.org/2000/svg">
<rect width="512" height="512" rx="160" fill="url(#paint0_linear_1989_5564)"/>
<path d="M378.938 364.041V251.326C378.938 217.638 364.895 185.17 340.436 162.029L350.9 138.085C353.043 133.201 351.678 127.49 347.595 124.09C345.955 122.737 307.167 91 253.246 91C221.365 91 191.04 102.05 163.122 123.863C159.052 127.035 157.471 132.458 159.207 137.319L168.988 164.782C146.23 187.72 133.145 218.931 133.145 251.338V364.053C133.145 364.053 127.817 416.477 181.822 420.739C181.822 420.739 213.439 422.87 229.302 395.634C196.248 384.704 172.328 353.733 172.328 317.255L171.802 281.1C165.229 280.382 160.488 274.468 161.195 267.895C161.913 261.323 167.719 256.57 174.399 257.288C211.883 261.395 239.382 256.259 254.024 242.503C254.024 242.503 266.51 231.573 265.756 215.303C265.756 215.303 266.75 203.224 278.482 203.87C278.482 203.87 288.215 203.846 289.652 215.303C289.676 215.483 291.017 238.121 305.658 250.608C313.703 257.48 324.837 260.209 338.676 258.737C345.381 258.102 351.151 262.807 351.845 269.38C351.845 269.38 353.126 283.195 337.91 282.728L338.102 317.171C338.102 353.326 314.793 384.022 282.481 395.239C298.583 424.019 332.008 420.572 332.008 420.572C383.487 413.7 378.938 364.041 378.938 364.041ZM292.765 152.032C292.765 155.037 290.322 157.455 287.329 157.455H269.456V175.15C269.456 178.143 267.025 180.585 264.032 180.585H248.038C245.045 180.585 242.615 178.143 242.615 175.15V157.455H224.741C221.748 157.455 219.306 155.037 219.306 152.032V136.289C219.306 133.284 221.748 130.854 224.741 130.854H242.615V113.196C242.615 110.191 245.045 107.761 248.038 107.761H264.032C267.025 107.761 269.456 110.191 269.456 113.196V130.854H287.329C290.322 130.854 292.765 133.284 292.765 136.289V152.032Z" fill="white"/>
<defs>
<linearGradient id="paint0_linear_1989_5564" x1="5.92358e-06" y1="0.429491" x2="512" y2="511.57" gradientUnits="userSpaceOnUse">
<stop stop-color="#6FCFEF"/>
<stop offset="1" stop-color="#2191B9"/>
</linearGradient>
</defs>
</svg>
