<svg width="25" height="24" viewBox="0 0 25 24" fill="none" xmlns="http://www.w3.org/2000/svg">
<path fill-rule="evenodd" clip-rule="evenodd" d="M3.25 4.25C3.66421 4.25 4 4.58579 4 5V15.25H10.5V13C10.5 10.3766 12.6266 8.25 15.25 8.25H20.5V5C20.5 4.58579 20.8358 4.25 21.25 4.25C21.6642 4.25 22 4.58579 22 5V19C22 19.4142 21.6642 19.75 21.25 19.75C20.8358 19.75 20.5 19.4142 20.5 19V16.75H4V19C4 19.4142 3.66421 19.75 3.25 19.75C2.83579 19.75 2.5 19.4142 2.5 19V5C2.5 4.58579 2.83579 4.25 3.25 4.25ZM20.5 9.75H15.25C13.4551 9.75 12 11.2051 12 13V15.25H20.5V9.75Z" fill="white"/>
<path fill-rule="evenodd" clip-rule="evenodd" d="M7.25 14C8.35457 14 9.25 13.1046 9.25 12C9.25 10.8954 8.35457 10 7.25 10C6.14543 10 5.25 10.8954 5.25 12C5.25 13.1046 6.14543 14 7.25 14ZM7.25 12.5C7.52614 12.5 7.75 12.2761 7.75 12C7.75 11.7239 7.52614 11.5 7.25 11.5C6.97386 11.5 6.75 11.7239 6.75 12C6.75 12.2761 6.97386 12.5 7.25 12.5Z" fill="white"/>
</svg>
