<svg width="33" height="32" viewBox="0 0 33 32" fill="none" xmlns="http://www.w3.org/2000/svg">
<g clip-path="url(#clip0_49_4884)">
<path d="M0.333252 25.0377V27.0461C0.333252 27.5638 0.753002 27.9836 1.27075 27.9836C1.7885 27.9836 2.20825 27.5638 2.20825 27.0461V25.9752H30.4583V27.0461C30.4583 27.5638 30.878 27.9836 31.3958 27.9836C31.9135 27.9836 32.3333 27.5638 32.3333 27.0461V25.0377V21.9585H0.333252V25.0377Z" fill="#969EB0"/>
<path d="M28.8854 14.0581H3.78113C1.88 14.0581 0.333252 15.6049 0.333252 17.506V20.0831H32.3333V17.506C32.3333 15.6049 30.7865 14.0581 28.8854 14.0581Z" fill="#969EB0"/>
<path d="M12.8184 9.9082C11.951 9.9082 11.2454 10.6138 11.2454 11.4811V12.1831H21.4204V11.4811C21.4204 10.6138 20.7148 9.9082 19.8475 9.9082H12.8184Z" fill="#969EB0"/>
<path d="M9.37073 11.4812C9.37073 9.57998 10.9175 8.03329 12.8187 8.03329H19.8479C21.7491 8.03329 23.2958 9.57998 23.2958 11.4812V12.1832H28.3167V7.46448C28.3167 5.56329 26.7699 4.0166 24.8687 4.0166H7.79785C5.89666 4.0166 4.34998 5.56329 4.34998 7.46448V12.1832H9.37073V11.4812Z" fill="#969EB0"/>
</g>
<defs>
<clipPath id="clip0_49_4884">
<rect width="32" height="32" fill="white" transform="translate(0.333252)"/>
</clipPath>
</defs>
</svg>
