<svg width="20" height="20" viewBox="0 0 20 20" fill="none" xmlns="http://www.w3.org/2000/svg">
<path d="M5 9C5.55228 9 6 8.55229 6 8C6 7.44771 5.55228 7 5 7C4.44772 7 4 7.44771 4 8C4 8.55229 4.44772 9 5 9Z" fill="#363538"/>
<path d="M11 8C11 8.55229 10.5523 9 10 9C9.44771 9 9 8.55229 9 8C9 7.44771 9.44771 7 10 7C10.5523 7 11 7.44771 11 8Z" fill="#363538"/>
<path d="M15 9C15.5523 9 16 8.55229 16 8C16 7.44771 15.5523 7 15 7C14.4477 7 14 7.44771 14 8C14 8.55229 14.4477 9 15 9Z" fill="#363538"/>
<path d="M6 11.5C6 12.0523 5.55228 12.5 5 12.5C4.44772 12.5 4 12.0523 4 11.5C4 10.9477 4.44772 10.5 5 10.5C5.55228 10.5 6 10.9477 6 11.5Z" fill="#363538"/>
<path d="M10 12.5C10.5523 12.5 11 12.0523 11 11.5C11 10.9477 10.5523 10.5 10 10.5C9.44771 10.5 9 10.9477 9 11.5C9 12.0523 9.44771 12.5 10 12.5Z" fill="#363538"/>
<path d="M16 11.5C16 12.0523 15.5523 12.5 15 12.5C14.4477 12.5 14 12.0523 14 11.5C14 10.9477 14.4477 10.5 15 10.5C15.5523 10.5 16 10.9477 16 11.5Z" fill="#363538"/>
<path d="M5 16C5.55228 16 6 15.5523 6 15C6 14.4477 5.55228 14 5 14C4.44772 14 4 14.4477 4 15C4 15.5523 4.44772 16 5 16Z" fill="#363538"/>
<path d="M11 15C11 15.5523 10.5523 16 10 16C9.44771 16 9 15.5523 9 15C9 14.4477 9.44771 14 10 14C10.5523 14 11 14.4477 11 15Z" fill="#363538"/>
<path d="M15 16C15.5523 16 16 15.5523 16 15C16 14.4477 15.5523 14 15 14C14.4477 14 14 14.4477 14 15C14 15.5523 14.4477 16 15 16Z" fill="#363538"/>
<path fill-rule="evenodd" clip-rule="evenodd" d="M5.75 1C5.75 0.585786 5.41421 0.25 5 0.25C4.58579 0.25 4.25 0.585786 4.25 1H4C1.79086 1 0 2.79086 0 5V16C0 18.2091 1.79086 20 4 20H16C18.2091 20 20 18.2091 20 16V5C20 2.79086 18.2091 1 16 1H15.75C15.75 0.585786 15.4142 0.25 15 0.25C14.5858 0.25 14.25 0.585786 14.25 1H5.75ZM14.25 4V2.5H5.75V4C5.75 4.41421 5.41421 4.75 5 4.75C4.58579 4.75 4.25 4.41421 4.25 4V2.5H4C2.61929 2.5 1.5 3.61929 1.5 5V16C1.5 17.3807 2.61929 18.5 4 18.5H16C17.3807 18.5 18.5 17.3807 18.5 16V5C18.5 3.61929 17.3807 2.5 16 2.5H15.75V4C15.75 4.41421 15.4142 4.75 15 4.75C14.5858 4.75 14.25 4.41421 14.25 4Z" fill="#363538"/>
</svg>
