<svg width="22" height="18" viewBox="0 0 22 18" fill="none" xmlns="http://www.w3.org/2000/svg">
<path d="M19.3696 3.06087H17.0739L15.8065 1.14783C15.3283 0.430435 14.4913 0 13.6304 0H8.36957C7.5087 0 6.67174 0.430435 6.19348 1.14783L4.92609 3.06087H2.63043C1.17174 3.06087 0 4.23261 0 5.6913V14.9696C0 16.4283 1.17174 17.6 2.63043 17.6H19.3696C20.8283 17.6 22 16.4283 22 14.9696V5.6913C22 4.23261 20.8283 3.06087 19.3696 3.06087ZM11 15.4478C7.72391 15.4478 5.06957 12.7935 5.06957 9.51739C5.06957 6.2413 7.72391 3.61087 11 3.61087C14.2761 3.61087 16.9304 6.26522 16.9304 9.5413C16.9304 12.7935 14.2761 15.4478 11 15.4478ZM19.0348 6.76739C19.0109 6.76739 18.987 6.76739 18.9391 6.76739H17.9826C17.5522 6.74348 17.2174 6.38478 17.2413 5.95435C17.2652 5.54783 17.5761 5.23696 17.9826 5.21304H18.9391C19.3696 5.18913 19.7283 5.52391 19.7522 5.95435C19.7761 6.38478 19.4652 6.74348 19.0348 6.76739Z" fill="#102B3C"/>
<path d="M11.0002 6.24133C9.1828 6.24133 7.7002 7.72394 7.7002 9.54133C7.7002 11.3587 9.1828 12.8174 11.0002 12.8174C12.8176 12.8174 14.3002 11.3348 14.3002 9.51742C14.3002 7.70003 12.8176 6.24133 11.0002 6.24133Z" fill="#102B3C"/>
</svg>
