<svg width="24" height="25" viewBox="0 0 24 25" fill="none" xmlns="http://www.w3.org/2000/svg">
<path fill-rule="evenodd" clip-rule="evenodd" d="M0 12.5C0 5.87187 5.37187 0.5 12 0.5C18.6281 0.5 24 5.87187 24 12.5C24 19.1281 18.6281 24.5 12 24.5C5.37187 24.5 0 19.1281 0 12.5ZM10.6749 17.3067L19.1007 8.85283C19.4288 8.52471 19.4288 7.99033 19.0984 7.65986C18.7679 7.33174 18.2335 7.33174 17.9054 7.66221L10.2296 15.3614L7.22806 11.8575C6.99837 11.4521 6.48275 11.3114 6.07728 11.5435C5.67181 11.7731 5.53119 12.2888 5.76322 12.6942L9.31556 17.1567C9.47025 17.431 9.75619 17.5833 10.0492 17.5833C10.1898 17.5833 10.3351 17.5481 10.4663 17.4731C10.5413 17.431 10.6093 17.3771 10.6656 17.3161L10.6749 17.3067Z" fill="white"/>
</svg>
