<svg width="42" height="42" viewBox="0 0 42 42" fill="none" xmlns="http://www.w3.org/2000/svg">
<circle cx="21" cy="21" r="18.5" fill="#F5F5F5" stroke="white" stroke-width="5"/>
<path d="M20 13H13C12.4696 13 11.9609 13.2107 11.5858 13.5858C11.2107 13.9609 11 14.4696 11 15V29C11 29.5304 11.2107 30.0391 11.5858 30.4142C11.9609 30.7893 12.4696 31 13 31H27C27.5304 31 28.0391 30.7893 28.4142 30.4142C28.7893 30.0391 29 29.5304 29 29V22" stroke="#102B3C" stroke-width="1.5" stroke-linecap="round" stroke-linejoin="round"/>
<path d="M27.5 11.5C27.8978 11.1022 28.4374 10.8787 29 10.8787C29.5626 10.8787 30.1022 11.1022 30.5 11.5C30.8978 11.8978 31.1213 12.4374 31.1213 13C31.1213 13.5626 30.8978 14.1022 30.5 14.5L21 24L17 25L18 21L27.5 11.5Z" stroke="#102B3C" stroke-width="1.5" stroke-linecap="round" stroke-linejoin="round"/>
</svg>
