<svg width="44" height="44" viewBox="0 0 44 44" fill="none" xmlns="http://www.w3.org/2000/svg">
<g clip-path="url(#clip0_3282_5844)">
<path d="M38.2962 44H5.70361V11.4074L16.2962 0H38.2962V44Z" fill="#EBEBEB"/>
<path d="M16.2962 11.4074H5.70361L16.2962 0V11.4074Z" fill="#DBDBDB"/>
<path d="M18.6094 19.9729C18.6293 19.9466 18.6476 19.9196 18.6639 19.8913C18.7661 19.6793 18.7661 19.4318 18.6639 19.2197C18.648 19.1915 18.6297 19.164 18.6094 19.1382C18.57 19.0686 18.5199 19.0057 18.4614 18.9508C18.4506 18.9412 18.4467 18.9273 18.4351 18.9182L14.3611 15.6589C14.0097 15.378 13.4965 15.4349 13.2156 15.7862C12.9343 16.1375 12.9912 16.6508 13.3425 16.9317L15.6028 18.7407H13.037C12.587 18.7407 12.2222 19.1056 12.2222 19.5555C12.2222 20.0055 12.587 20.3703 13.037 20.3703H15.6028L13.3425 22.1786C12.9912 22.4595 12.9343 22.9727 13.2156 23.324C13.4965 23.6754 14.0097 23.7323 14.3611 23.451L18.4351 20.1917C18.4467 20.183 18.4506 20.169 18.4614 20.1595C18.5199 20.105 18.57 20.0421 18.6094 19.9729Z" fill="#EA6B65"/>
<path d="M30.9629 18.7398H28.3971L30.6573 16.9316C31.0086 16.6507 31.0655 16.1375 30.7842 15.7861C30.5034 15.4348 29.9901 15.3779 29.6388 15.6592L25.5647 18.9185C25.5532 18.9272 25.5492 18.9412 25.5385 18.9507C25.48 19.0052 25.4299 19.0681 25.3905 19.1373C25.3706 19.1636 25.3523 19.1906 25.336 19.2189C25.2337 19.4309 25.2337 19.6784 25.336 19.8905C25.3523 19.9187 25.3706 19.9458 25.3905 19.972C25.4299 20.0412 25.48 20.1041 25.5385 20.1586C25.5492 20.1682 25.5532 20.1821 25.5647 20.1908L29.6388 23.4501C29.9901 23.7314 30.5034 23.6745 30.7842 23.3232C31.0655 22.9719 31.0086 22.4586 30.6573 22.1777L28.3971 20.3695H30.9629C31.4129 20.3695 31.7777 20.0046 31.7777 19.5547C31.7777 19.1047 31.4129 18.7398 30.9629 18.7398Z" fill="#EA6B65"/>
<path d="M28.0442 31.7776C27.7124 31.7776 27.4136 31.5763 27.2891 31.2683C26.4182 29.1119 24.3254 27.6999 22 27.6999C19.6745 27.6999 17.5817 29.1119 16.7108 31.2683C16.5401 31.6825 16.0675 31.881 15.6521 31.7131C15.2371 31.5452 15.035 31.0734 15.2001 30.6572C16.3201 27.8853 19.0104 26.0703 22 26.0703C24.9895 26.0703 27.6798 27.8853 28.7998 30.6572C28.9012 30.9083 28.8714 31.1935 28.7198 31.4183C28.5682 31.6427 28.3152 31.7776 28.0442 31.7776Z" fill="#EA6B65"/>
</g>
<defs>
<clipPath id="clip0_3282_5844">
<rect width="44" height="44" fill="white"/>
</clipPath>
</defs>
</svg>
