<svg width="18" height="16" viewBox="0 0 18 16" fill="none" xmlns="http://www.w3.org/2000/svg">
<path d="M16.3666 1.84123C15.941 1.41541 15.4356 1.07761 14.8794 0.847138C14.3232 0.61667 13.727 0.498047 13.1249 0.498047C12.5229 0.498047 11.9267 0.61667 11.3705 0.847138C10.8143 1.07761 10.3089 1.41541 9.88327 1.84123L8.99994 2.72457L8.1166 1.84123C7.25686 0.981492 6.0908 0.498493 4.87494 0.498493C3.65908 0.498493 2.49301 0.981492 1.63327 1.84123C0.773526 2.70098 0.290527 3.86704 0.290527 5.0829C0.290527 6.29876 0.773526 7.46482 1.63327 8.32457L2.5166 9.2079L8.99994 15.6912L15.4833 9.2079L16.3666 8.32457C16.7924 7.89894 17.1302 7.39358 17.3607 6.83736C17.5912 6.28115 17.7098 5.68497 17.7098 5.0829C17.7098 4.48083 17.5912 3.88465 17.3607 3.32844C17.1302 2.77222 16.7924 2.26686 16.3666 1.84123Z" fill="#FF245E"/>
</svg>
