<svg width="24" height="24" viewBox="0 0 24 24" fill="none" xmlns="http://www.w3.org/2000/svg">
<path d="M21.75 11V17C21.8088 17.5067 21.7522 18.0201 21.5845 18.5018C21.4168 18.9835 21.1423 19.421 20.7817 19.7817C20.421 20.1423 19.9835 20.4168 19.5018 20.5845C19.0201 20.7522 18.5067 20.8088 18 20.75H6.00004C5.49338 20.8088 4.98 20.7522 4.4983 20.5845C4.0166 20.4168 3.57906 20.1423 3.2184 19.7817C2.85774 19.421 2.5833 18.9835 2.4156 18.5018C2.24791 18.0201 2.19131 17.5067 2.25004 17V7.00003C2.19131 6.49337 2.24791 5.97999 2.4156 5.49829C2.5833 5.01659 2.85774 4.57905 3.2184 4.21839C3.57906 3.85773 4.0166 3.58329 4.4983 3.41559C4.98 3.2479 5.49338 3.1913 6.00004 3.25003H14C14.1989 3.25003 14.3897 3.32904 14.5304 3.4697C14.671 3.61035 14.75 3.80111 14.75 4.00003C14.75 4.19894 14.671 4.3897 14.5304 4.53036C14.3897 4.67101 14.1989 4.75003 14 4.75003H6.00004C4.42304 4.75003 3.75004 5.42303 3.75004 7.00003V16.25L6.29004 13.71C6.47884 13.5227 6.73405 13.4175 7.00004 13.4175C7.26602 13.4175 7.52123 13.5227 7.71004 13.71L8.65004 14.65C8.7435 14.7416 8.86916 14.793 9.00004 14.793C9.13091 14.793 9.25657 14.7416 9.35004 14.65L14.29 9.71003C14.4788 9.52267 14.734 9.41754 15 9.41754C15.266 9.41754 15.5212 9.52267 15.71 9.71003L20.25 14.25V11C20.25 10.8011 20.3291 10.6103 20.4697 10.4697C20.6104 10.329 20.8011 10.25 21 10.25C21.1989 10.25 21.3897 10.329 21.5304 10.4697C21.671 10.6103 21.75 10.8011 21.75 11ZM7.99304 7.75003C7.66102 7.75095 7.34295 7.88362 7.10868 8.11888C6.8744 8.35414 6.74307 8.67276 6.74354 9.00477C6.744 9.33678 6.87622 9.65504 7.11115 9.88965C7.34608 10.1242 7.66452 10.256 7.99654 10.256C8.32855 10.256 8.64699 10.1242 8.88192 9.88965C9.11685 9.65504 9.24907 9.33678 9.24953 9.00477C9.25 8.67276 9.11867 8.35414 8.8844 8.11888C8.65012 7.88362 8.33205 7.75095 8.00004 7.75003H7.99304ZM18.53 5.03003L18.75 4.81103V7.00003C18.75 7.19894 18.8291 7.3897 18.9697 7.53036C19.1104 7.67101 19.3011 7.75003 19.5 7.75003C19.6989 7.75003 19.8897 7.67101 20.0304 7.53036C20.171 7.3897 20.25 7.19894 20.25 7.00003V4.81103L20.47 5.03003C20.6122 5.16251 20.8003 5.23463 20.9946 5.2312C21.1889 5.22777 21.3742 5.14906 21.5117 5.01165C21.6491 4.87424 21.7278 4.68885 21.7312 4.49455C21.7346 4.30025 21.6625 4.1122 21.53 3.97003L20.03 2.47003C19.8893 2.32982 19.6987 2.2511 19.5 2.2511C19.3014 2.2511 19.1108 2.32982 18.97 2.47003L17.47 3.97003C17.3376 4.1122 17.2654 4.30025 17.2689 4.49455C17.2723 4.68885 17.351 4.87424 17.4884 5.01165C17.6258 5.14906 17.8112 5.22777 18.0055 5.2312C18.1998 5.23463 18.3879 5.16251 18.53 5.03003Z" fill="#102B3C"/>
</svg>
