<svg width="14" height="14" viewBox="0 0 14 14" fill="none" xmlns="http://www.w3.org/2000/svg">
<path d="M7.09091 14C6.12121 14 5.20539 13.8185 4.34343 13.4556C3.48148 13.0926 2.72727 12.5935 2.08081 11.9583C1.43434 11.3102 0.922559 10.5648 0.545455 9.72222C0.181818 8.86667 0 7.95278 0 6.98056C0 6.00833 0.181818 5.10093 0.545455 4.25833C0.922559 3.41574 1.43434 2.67685 2.08081 2.04167C2.74074 1.39352 3.50842 0.894444 4.38384 0.544444C5.27273 0.181481 6.22896 0 7.25253 0C8.37037 0 9.40741 0.207407 10.3636 0.622222C11.3199 1.03704 12.1212 1.62685 12.7677 2.39167L11.1919 3.90833C10.7744 3.33796 10.2155 2.9037 9.51515 2.60556C8.81482 2.29444 8.06061 2.13889 7.25253 2.13889C6.28283 2.13889 5.42761 2.3463 4.68687 2.76111C3.9596 3.16296 3.39394 3.72685 2.9899 4.45278C2.58586 5.1787 2.38384 6.0213 2.38384 6.98056C2.38384 7.93982 2.58586 8.78889 2.9899 9.52778C3.40741 10.2537 3.96633 10.8241 4.66667 11.2389C5.367 11.6537 6.16162 11.8611 7.05051 11.8611C7.99327 11.8611 8.80135 11.6991 9.47475 11.375C10.1616 11.038 10.6869 10.5454 11.0505 9.89722C11.4141 9.23611 11.596 8.42593 11.596 7.46667L13.0505 8.47778H7.0101V6.43611H14V6.74722C14 8.36759 13.697 9.71574 13.0909 10.7917C12.4983 11.8676 11.6835 12.6713 10.6465 13.2028C9.60943 13.7343 8.42424 14 7.09091 14Z" fill="#2E7417"/>
</svg>
