<svg width="21" height="20" viewBox="0 0 21 20" fill="none" xmlns="http://www.w3.org/2000/svg">
<path d="M4.16087 9.62256C4.18086 5.54823 7.49414 2.25 11.5803 2.25C15.6788 2.25 18.9998 5.56826 18.9998 9.65963C18.9998 10.0738 19.3356 10.4096 19.7498 10.4096C20.164 10.4096 20.4998 10.0738 20.4998 9.65963C20.4998 4.73812 16.5056 0.75 11.5803 0.75C6.65504 0.75 2.66078 4.73812 2.66078 9.65963V9.69759L2.99764 13.0161C2.9954 13.0375 2.99117 13.0699 2.98326 13.1116C2.9636 13.2154 2.92153 13.3752 2.83192 13.5658C2.65703 13.9378 2.2843 14.4639 1.46264 14.9253C1.27049 15.0332 1.06793 15.2207 0.97847 15.5098C0.889145 15.7984 0.949625 16.0686 1.04711 16.2693C1.22477 16.6352 1.58568 16.9126 1.96315 17.1242C2.75678 17.5691 4.10449 17.9859 6.13495 18.2415L7.61348 18.5148C8.02079 18.5901 8.41202 18.3209 8.48731 17.9136C8.5626 17.5063 8.29345 17.1151 7.88613 17.0398L6.36463 16.7585L6.34288 16.7558C4.4784 16.5227 3.35972 16.1623 2.77937 15.8604C3.51399 15.3245 3.94366 14.7266 4.18937 14.204C4.3395 13.8847 4.41704 13.602 4.45705 13.3908C4.47706 13.2852 4.48776 13.1971 4.49345 13.1306C4.49631 13.0974 4.49791 13.0694 4.4988 13.0473C4.49925 13.0363 4.49952 13.0267 4.49967 13.0186L4.49982 13.0076L4.49985 13.003L4.49986 13.0009V12.9989L4.4998 12.9615L4.16087 9.62256Z" fill="white"/>
<path d="M12.05 14.5C12.05 14.9142 11.7143 15.25 11.3 15.25C10.8858 15.25 10.55 14.9142 10.55 14.5C10.55 14.0858 10.8858 13.75 11.3 13.75C11.7143 13.75 12.05 14.0858 12.05 14.5Z" fill="white"/>
<path d="M14.55 14.5C14.55 14.9142 14.2143 15.25 13.8 15.25C13.3858 15.25 13.05 14.9142 13.05 14.5C13.05 14.0858 13.3858 13.75 13.8 13.75C14.2143 13.75 14.55 14.0858 14.55 14.5Z" fill="white"/>
<path d="M16.3 15.25C16.7143 15.25 17.05 14.9142 17.05 14.5C17.05 14.0858 16.7143 13.75 16.3 13.75C15.8858 13.75 15.55 14.0858 15.55 14.5C15.55 14.9142 15.8858 15.25 16.3 15.25Z" fill="white"/>
<path fill-rule="evenodd" clip-rule="evenodd" d="M19.1688 15.7682L19.3647 13.8377V13.7998C19.3647 10.7339 16.8766 8.25 13.8091 8.25C10.7417 8.25 8.25354 10.7339 8.25354 13.7998V13.9979C8.25354 17.9586 12.1683 20.7306 15.9081 19.4233L16.2554 19.3019L17.0597 19.1532C18.267 19.0005 19.1019 18.749 19.6173 18.4601C19.8558 18.3264 20.1364 18.1245 20.2829 17.8227C20.3648 17.6541 20.422 17.4132 20.3405 17.1498C20.2589 16.8859 20.0752 16.7197 19.9119 16.628C19.486 16.3888 19.3109 16.1281 19.2347 15.9661C19.1945 15.8805 19.177 15.8118 19.1696 15.7729L19.1688 15.7682ZM17.8646 13.7634L17.6653 15.7262L17.6653 15.7637L18.4153 15.7647C17.6653 15.7637 17.6653 15.7637 17.6653 15.7637V15.7656L17.6653 15.7676L17.6653 15.7719L17.6654 15.7815L17.6661 15.805C17.6669 15.8225 17.6681 15.8435 17.6702 15.8679C17.6743 15.9166 17.682 15.9789 17.6959 16.0521C17.7236 16.1984 17.7765 16.39 17.8773 16.6044C17.99 16.8441 18.1577 17.1017 18.4021 17.3508C18.0533 17.4637 17.5492 17.5804 16.8517 17.6676L16.8299 17.6703L15.8693 17.8478L15.4131 18.0073C12.646 18.9746 9.75354 16.9229 9.75354 13.9979V13.7998C9.75354 11.564 11.5684 9.75 13.8091 9.75C16.0377 9.75 17.845 11.5444 17.8646 13.7634Z" fill="white"/>
</svg>
