<svg width="16" height="18" viewBox="0 0 16 18" fill="none" xmlns="http://www.w3.org/2000/svg">
<path fill-rule="evenodd" clip-rule="evenodd" d="M11.3333 8.1665C11.3333 10.0075 9.84095 11.4998 8 11.4998C6.15905 11.4998 4.66667 10.0075 4.66667 8.1665C4.66667 6.32556 6.15905 4.83317 8 4.83317C9.84095 4.83317 11.3333 6.32556 11.3333 8.1665ZM10.0833 8.1665C10.0833 9.3171 9.15059 10.2498 8 10.2498C6.84941 10.2498 5.91667 9.3171 5.91667 8.1665C5.91667 7.01591 6.84941 6.08317 8 6.08317C9.15059 6.08317 10.0833 7.01591 10.0833 8.1665Z" fill="#363538"/>
<path fill-rule="evenodd" clip-rule="evenodd" d="M6.77363 16.793C3.28515 15.0419 0.874247 11.8869 0.5 8.1665C0.5 4.02437 3.85786 0.666504 8 0.666504C12.1421 0.666504 15.5 4.02437 15.5 8.1665C15.1287 11.8577 12.4412 14.9922 9.20678 16.7515C8.45122 17.1624 7.54231 17.1789 6.77363 16.793ZM8.60953 15.6534C8.21206 15.8695 7.73571 15.8773 7.33442 15.6759C4.19245 14.0987 2.09658 11.3133 1.7503 8.10449C1.78358 4.68127 4.56891 1.9165 8 1.9165C11.431 1.9165 14.2162 4.68108 14.2497 8.10414C13.9072 11.2404 11.5797 14.0379 8.60953 15.6534Z" fill="#363538"/>
</svg>
