<svg xmlns="http://www.w3.org/2000/svg" xmlns:xlink="http://www.w3.org/1999/xlink" width="360" height="418" fill="none" xmlns:v="https://vecta.io/nano"><style><![CDATA[.B{fill:#fff}.C{fill:#e6e6e6}.D{fill:#4eb5d7}.E{fill:#7acce6}.F{fill:#ffd0d0}.G{fill:#e6e7e8}.H{fill:#f3aaaa}.I{fill:#d5c6c6}.J{fill:#72b6f0}.K{fill:#f7f7f7}]]></style><path d="M278.127 383.12c-45.352 10.352-115.818 50.705-186.543 10.943S55.648 291.147 25.785 243.731 5.876 125.676 77.02 139.33s114.45 10.271 158.495-5.794c38.863-14.173 96.502-8.619 86.586 51.897s25.692 60.772 29.911 102.232-31.731 85.833-73.885 95.455zM-2.565 193.73c-.262-1.242-.426-2.501-.569-3.764l-.29-3.802c-.126-2.544-.093-5.097.045-7.653l.326-3.83.107-.958.13-.955.285-1.909a68.2 68.2 0 0 1 1.654-7.577c1.389-5.003 3.363-9.902 6.001-14.489s5.959-8.836 9.881-12.481c3.903-3.668 8.449-6.634 13.261-8.891 2.419-1.105 4.908-2.025 7.43-2.792l1.905-.516c.633-.18 1.274-.318 1.915-.458l.96-.209c.32-.07.639-.142.962-.193l1.931-.33.482-.081c.161-.025.323-.043.484-.064l.969-.121.968-.118c.322-.04.644-.081.968-.102 1.294-.093 2.582-.227 3.874-.24l1.933-.057 1.929.02c1.285.005 2.565.094 3.842.165.319.024.638.035.956.069l.954.095 1.903.195c.317.031.632.078.948.124l.945.136 1.885.285c1.252.223 2.496.476 3.736.725l3.686.926c-1.269.071-2.527.103-3.782.138l-3.752.176-3.725.254-1.852.163-.923.078c-.308.025-.614.071-.92.105-4.902.531-9.725 1.328-14.373 2.57l-1.735.482c-.291.074-.575.168-.86.26l-.854.273c-1.147.336-2.254.776-3.376 1.164-2.213.861-4.37 1.82-6.458 2.894-4.143 2.204-8.01 4.857-11.411 8.047-3.414 3.171-6.408 6.806-8.968 10.779s-4.685 8.278-6.463 12.769c-.891 2.245-1.681 4.543-2.408 6.874-.363 1.166-.697 2.343-1.019 3.526-.333 1.182-.619 2.377-.912 3.575a128.2 128.2 0 0 0-2.602 14.723zm364.412 102.733c.61 2.228.967 4.519 1.231 6.816l.297 3.462.124 3.478a77.91 77.91 0 0 1-1.114 13.933c-.789 4.619-2.003 9.186-3.634 13.619a74.58 74.58 0 0 1-2.757 6.535c-.52 1.065-1.052 2.124-1.619 3.165l-.423.782-.444.771c-.3.512-.585 1.032-.901 1.535l-.939 1.511-.98 1.487c-.325.496-.681.972-1.02 1.459l-.515.726-.535.711-.539.709c-.178.237-.359.472-.548.702l-1.12 1.383-1.161 1.348c-.196.223-.384.452-.586.669l-.605.651-.606.651-.302.326-.312.316-1.254 1.258c-.423.414-.857.817-1.289 1.221l-.649.604-.666.585c-1.762 1.576-3.629 3.025-5.532 4.406-3.833 2.731-7.901 5.089-12.148 6.987l-1.596.699a57.25 57.25 0 0 1-1.614.651l-.81.316c-.268.106-.538.21-.813.304l-1.639.57-.819.279-.829.253-1.658.492c-.276.082-.556.154-.836.224l-.839.21-1.681.396c.971-.629 1.959-1.202 2.927-1.809l1.448-.908.724-.447.713-.465 1.425-.921c.239-.149.474-.307.706-.467l.7-.476c.463-.322.937-.62 1.398-.941l1.373-.973c3.665-2.572 7.117-5.364 10.384-8.303.413-.361.801-.753 1.206-1.122.399-.376.806-.743 1.189-1.134l1.171-1.151 1.14-1.177.57-.587.552-.604 1.104-1.206 2.125-2.477 1.03-1.264 1.009-1.279.979-1.3a18.11 18.11 0 0 0 .481-.657l.472-.663.475-.66.458-.673c.302-.451.619-.891.908-1.35l.887-1.364.852-1.387c.292-.457.555-.933.832-1.399l.412-.703.394-.712c.541-.943 1.037-1.909 1.544-2.872.997-1.933 1.915-3.91 2.782-5.913 1.729-4.01 3.205-8.15 4.451-12.387 1.239-4.239 2.262-8.571 3.072-12.98s1.429-8.886 1.787-13.469zM132.208 415.984c-2.224.625-4.513.997-6.809 1.276l-3.459.319-3.478.146c-4.645.075-9.317-.259-13.94-1.024a76.95 76.95 0 0 1-13.642-3.545c-2.222-.8-4.411-1.703-6.553-2.715-1.067-.513-2.13-1.037-3.175-1.598l-.785-.418-.774-.439c-.514-.296-1.036-.578-1.541-.89l-1.518-.93-1.493-.97c-.498-.322-.977-.674-1.466-1.011l-.729-.51-.715-.531-.712-.534a21.02 21.02 0 0 1-.705-.543l-1.39-1.111-1.356-1.152c-.224-.195-.454-.382-.672-.583l-.656-.601-.655-.601-.327-.3-.319-.31-1.266-1.246c-.417-.42-.822-.851-1.229-1.28l-.609-.645-.589-.663c-1.587-1.751-3.048-3.609-4.442-5.503-2.755-3.815-5.139-7.868-7.065-12.103l-.71-1.591a59.75 59.75 0 0 1-.661-1.609l-.321-.808a18.81 18.81 0 0 1-.309-.811l-.58-1.635-.285-.818-.258-.827-.503-1.655a20.49 20.49 0 0 1-.229-.834l-.216-.838-.407-1.679c.636.967 1.215 1.952 1.828 2.916l.918 1.442.452.721.469.71.931 1.419c.15.238.31.472.471.703l.48.696c.325.461.626.934.951 1.393l.982 1.366c2.596 3.648 5.41 7.083 8.371 10.33.364.411.758.796 1.13 1.198.378.398.748.802 1.142 1.183l1.158 1.163 1.185 1.132.591.567.608.548 1.212 1.096 2.492 2.109 1.27 1.021 1.285 1 1.307.971a17.6 17.6 0 0 0 .66.477l.666.468.663.471.675.453c.453.299.895.613 1.356.899l1.37.878 1.392.843c.459.29.936.549 1.404.823l.705.407.715.39c.946.534 1.916 1.025 2.881 1.525 1.94.985 3.923 1.89 5.931 2.745 4.021 1.702 8.17 3.151 12.415 4.369 4.247 1.212 8.586 2.207 13 2.988s8.895 1.372 13.481 1.7z" fill="#d5f1f8"/><mask id="A" maskUnits="userSpaceOnUse" x="9" y="61" width="344" height="351"><path d="M278.127 383.12c-45.352 10.352-115.818 50.705-186.543 10.943S55.648 291.147 25.785 243.731 5.876 125.676 77.02 139.33s30.558-60.546 74.604-76.61c38.862-14.173 180.394 62.197 170.477 122.713s25.692 60.772 29.911 102.232-31.731 85.833-73.885 95.455z" class="B"/></mask><g mask="url(#A)"><path d="M151.255 153.056s5.221 23.597-9.016 30.6c0 0 18.14 45.465 30.884 45.465s19.991-46.957 19.991-46.957-9.42-1.93-6.382-26.97c0 0-18.806 17.152-35.477-2.138z" class="F"/><path d="M142.239 183.656s-31.611 8.19-40.337 17.375-14.16 52.66-14.16 87.563c0 0 18.676.229 40.949-5.282 0 0-22.962 81.516-23.421 122.389 0 0 67.509 18.37 133.181 0 0 0 1.837-42.25-9.645-90.012l21.279-44.623s9.644.23 16.533-1.378c0 0-16.227-61.003-27.249-73.173s-46.255-14.351-46.255-14.351l-19.761 36.809-31.114-35.317z" class="D"/><path d="M98.98 288.092s4.453 37.7 14.786 46.885 105.397-11.481 105.397-11.481 31.687-.306 39.954-3.674 2.043-39.975-.56-49.006l-18.328.949-1.778 19.431-30.234 2.143c-6.735.536-22.885.612-28.664-.23s-12.668-2.219-23.154-1.76-20.513-.536-26.636 2.755c0 0-.383-7.884-1.072-10.792 0 0-12.58 3.344-29.711 4.78z" class="F"/><path d="M129.763 294.105l.647 5.074.619 5.075-.205-.234 5.559 1.281 5.545 1.34 5.531 1.414 5.514 1.577.693.24.632.198c.202.076.424.095.636.141s.433.067.654.085c.881.078 1.788.023 2.698-.101l2.755-.51c.935-.187 1.866-.414 2.921-.469.274.002.538-.013.841.045l.22.034.175.036.336.073 1.388.277 2.797.536 5.597 1.099 11.169 2.375 5.555 1.37 2.76.804 2.715.933 5.326 2.079 5.294 2.086c3.542 1.32 7.216 2.371 11.027 2.533-1.902.055-3.813-.141-5.686-.509s-3.722-.87-5.539-1.451c-3.633-1.171-7.168-2.593-10.751-3.794-.894-.308-1.797-.579-2.699-.853l-2.733-.721c-1.835-.456-3.683-.877-5.538-1.274l-11.159-2.265-5.596-1.077-2.8-.551-1.406-.288-.36-.08c-.057-.012-.126-.03-.174-.037l-.133-.018c-.164-.039-.378-.028-.579-.032-.846.037-1.776.245-2.702.429s-1.879.387-2.854.507-1.976.168-2.987.063c-.253-.025-.506-.05-.757-.11s-.506-.088-.751-.18l-.724-.24-.65-.235c-1.769-.607-3.604-1.12-5.421-1.656l-5.481-1.548-10.99-3.026-.193-.053-.013-.181-.375-5.106-.348-5.105z" class="H"/><path d="M217.778 292.636s6.321-14.949 8.618-18.222 13.777-12.227 15.614-11.27-.517 5.932-5.396 10.409c0 0 10.715-6.697 14.428-6.62s1.947 4.353 1.947 4.353 1.497-.718 2.53 1.004-.888 4.593-2.878 6.085c0 0 1.493.842.077 3.521s-6.583 8.458-7.31 9.3c0 0-14.131.514-27.63 1.44z" class="F"/><path d="M128.691 283.312c-.441-3.656-.888-7.311-1.543-10.924-.319-1.806-.665-3.609-1.143-5.361l-.18-.655-.21-.641c-.128-.425-.301-.857-.457-1.286l-.972-2.58-3.861-10.349-3.717-10.406-1.785-5.229-1.746-5.244-1.679-5.266-1.609-5.289-1.517-5.318-.704-2.675c-.231-.893-.483-1.779-.684-2.68-.408-1.799-.856-3.587-1.186-5.404l-.267-1.357c-.092-.452-.18-.904-.236-1.363l-.37-2.74.573 2.701c.049.225.086.451.141.674l.171.669.34 1.336c.428 1.787.974 3.545 1.479 5.311s1.069 3.518 1.6 5.276l1.677 5.254 1.729 5.238 1.767 5.226 1.782 5.221 1.812 5.212 7.287 20.841.9 2.615c.146.44.304.868.429 1.328l.196.679.16.683c.416 1.819.698 3.648.937 5.48.226 1.833.404 3.669.553 5.506a116.95 116.95 0 0 1 .333 5.517zm105.31-91.036l-.345 1.21-.289 1.223-.267 1.228-.234 1.235-.427 2.475-.2 1.239-.17 1.245-.343 2.488-.294 2.494-.147 1.247-.126 1.25-.252 2.499-.797 10.016c-.257 3.34-.407 6.689-.593 10.034l-.225 5.022-.204 5.024-.326 10.055-.266 10.061-.284 10.068-.386-10.068-.128-10.076c-.025-1.68.003-3.359.028-5.039l.072-5.039c.004-.84.039-1.68.07-2.519l.092-2.519.196-5.038c.364-6.712.86-13.422 1.697-20.099.426-3.337.912-6.668 1.559-9.972l.241-1.238c.083-.413.18-.823.27-1.234.187-.82.351-1.645.576-2.457.408-1.631.874-3.256 1.502-4.815zm-30.757-9.014l-6.401 13.328-3.287 6.622-3.33 6.599-3.369 6.58-3.401 6.563-6.904 13.073-.381.712-.512-.607-3.603-4.271-3.578-4.294-.151-.18.112-.189 2.439-4.122 2.474-4.103-2.156 4.279-2.191 4.259-.04-.369 3.77 4.126 3.745 4.148-.893.105 6.683-13.183 3.393-6.565 3.424-6.548 3.463-6.529 3.507-6.506 7.187-12.928z" fill="#1e749c"/><path d="M132.594 186.472c3.277 3.166 6.446 6.431 9.572 9.736l4.657 4.987 4.586 5.053 4.511 5.119 4.426 5.197 4.311 5.297 2.081 2.711c.694.902 1.337 1.848 1.984 2.783l-2.276-2.543-1.143-1.264-1.156-1.253-4.602-5.031-2.296-2.519-2.295-2.521-4.561-5.068-4.527-5.099-4.486-5.138-8.786-10.447z" fill="#1e749c"/><path d="M142.978 120.12s-2.146 47.403 26.502 47.403 28.648-50.74 28.648-50.74.505-29.558-29.027-32.18-26.123 35.517-26.123 35.517z" class="F"/><path d="M197.992 120.603s2.282-2.449 4.49-.542-1.421 21.194-7.115 18.94l2.625-18.398zm-55.012 0s-2.145-2.557-4.454-.76.263 21.235 6.073 19.261l-1.619-18.501z" class="F"/><path d="M201.447 119.459s6.88-56.291-43.409-41.967c0 0-24.82 2.145-18.893 41.967 0 0 3.003-.745 4.101 4.186l.098 1.121s.854.4.938-2.977 1.22-10.687 3.323-14.58 9.592-7.389 10.938-11.442c0 0 25.156-2.225 31.466 5.721s6.731 19.969 6.226 23.293c0 0 .077.889 1.364.766 0 0 .163-6.72 3.848-6.088z" fill="#3c2415"/><path d="M251.042 266.933c.486.005.991.038 1.453.267s.814.676.96 1.175c.155.498.168 1.021.12 1.526-.057.508-.161.994-.333 1.489l-.371-.351c.472-.214.962-.257 1.459-.138.491.124.916.438 1.222.805.302.347.558.829.63 1.325.084.498.013.984-.102 1.435-.234.913-.707 1.698-1.233 2.422a10.44 10.44 0 0 1-1.872 1.933l-.06-.93c.876.575 1.053 1.516.982 2.283-.068.783-.359 1.454-.675 2.079-.672 1.219-1.444 2.286-2.252 3.336l-2.482 3.074-1.274 1.502-1.296 1.472-.196.223-.289.01-6.908.24-6.911.218-6.914.186-6.922.122 6.885-.752 6.899-.575 6.907-.449 6.915-.336-.485.233 2.56-2.964 2.474-3.01 2.207-3.112c.288-.528.53-1.084.584-1.609.037-.263.014-.51-.052-.723a1.19 1.19 0 0 0-.14-.289c-.027-.045-.062-.083-.094-.12l-.049-.048c-.011-.012-.044-.034-.021-.021l-.06-.93c.641-.469 1.239-1.03 1.746-1.657s.944-1.319 1.181-2.05c.117-.363.191-.739.15-1.088a1.89 1.89 0 0 0-.4-.973c-.222-.298-.504-.526-.834-.643a1.65 1.65 0 0 0-1.044.013l-.621.224.25-.575a6.31 6.31 0 0 0 .406-1.341c.085-.46.117-.935.02-1.385-.09-.451-.353-.856-.748-1.115s-.888-.35-1.372-.408zm-14.428 6.62l-2.225 2.227-2.137 2.198-1.038 1.12-1.009 1.153-2.053 2.383c.231-1.054.628-2.074 1.177-3.002.254-.479.577-.911.885-1.355l1.045-1.233c.737-.787 1.56-1.492 2.453-2.091s1.853-1.109 2.902-1.4z" class="H"/><path d="M252.989 271.286l-4.609 2.882-4.706 2.64-1.171.651-1.153.659-1.05.683-.998.868-4.117 3.538c1.016-1.52 2.15-2.934 3.359-4.298l.956-1.005c.391-.361.772-.611 1.159-.879l2.356-1.411 4.881-2.399 5.093-1.929zm-.348 7.089c-1.152.091-2.141.559-3.098 1.056-.949.514-1.859 1.1-2.739 1.751-.229.148-.439.327-.657.493l-.66.496-1.303 1.037-1.322 1.05-1.384 1.029c.265-.519.582-1.001.897-1.488.326-.476.698-.917 1.066-1.364.375-.44.797-.839 1.209-1.249l1.354-1.107c.941-.694 1.998-1.262 3.13-1.635a6.03 6.03 0 0 1 .867-.226c.288-.072.595-.087.889-.12.597-.011 1.217.009 1.751.277z" class="H"/><path opacity=".5" d="M186.327 159.252c-6.313 20.319-30.775 18.931-37.457 18.151 3.451-5.892 3.573-13.678 3.147-18.84 0 0 6.321 9.348 18.178 8.959 10.105-.33 15.952-8.031 16.132-8.27z" class="F"/><path d="M156.536 284.126c-2.763.306-5.587-.204-8.09-1.505-3.516-1.827-6.118-5.071-7.141-8.898l-8.035-26.785 2.096-.56 8.035 26.785c.866 3.24 3.069 5.986 6.045 7.533s6.49 1.773 9.64.62l6.697-2.452.746 2.037-6.697 2.452a14.09 14.09 0 0 1-3.296.773z" class="G"/><path d="M147.848 285.088a14.11 14.11 0 0 1-3.386-.033l-7.071-.928.282-2.151 7.072.928a12 12 0 0 0 13.521-11.387l1.982-27.894 2.168.088-1.982 27.894c-.161 3.959-1.991 7.693-5.022 10.245-2.158 1.817-4.802 2.932-7.564 3.238z" class="G"/><path d="M156.815 213.607a17.05 17.05 0 0 0-24.8 2.746 17.05 17.05 0 0 0-3.027 13.272l3.583 17.694 3.709-.411-3.639-17.977c-.699-3.676.142-7.358 2.366-10.368s5.497-4.895 9.217-5.307 7.327.711 10.155 3.162 4.455 5.86 4.577 9.6l.381 18.338 3.709-.411-.374-18.048c-.154-4.718-2.289-9.199-5.857-12.29z" fill="#414042"/><path d="M170.73 277.469c-.194-.395-.737-1.339-1.594-1.566-1.366-.364-3.614.948-4.703 1.947-.843.775-1.209 1.515-1.088 2.201.146.829.339 1.213.862 1.716.432.417 1.115.576 2.034.474l.593-.095c1.321-.271 3.619-1.178 4.159-2.458.344-.817-.069-1.824-.263-2.219zm-32.349 3.105c-1.303-.751-3.826-1.551-5.1-.887-.8.416-1.129 1.474-1.234 1.909s-.29 1.527.234 2.261h0c.82 1.149 3.302 1.538 4.673 1.513l.61-.038c.934-.103 1.576-.412 1.913-.922.406-.615.512-1.04.473-1.894-.032-.708-.56-1.362-1.569-1.942z" fill="#231f20"/><path d="M143.402 180.907c-5.544 9.014 1.019 27.922 1.087 28.109.44 1.245-.214 2.609-1.455 3.045a2.41 2.41 0 0 1-.795.136c-.985 0-1.902-.61-2.25-1.588-.303-.863-7.388-21.24-.658-32.194 2.329-3.788 5.949-6.027 10.763-6.651.355-.048.702-.01 1.023.092-.45 1.701-1.064 3.365-1.892 4.916-2.591.631-4.504 1.991-5.823 4.135zm58.369 36.131c-.757 15.178-2.918 29.098-2.939 29.234-.184 1.18-1.2 2.019-2.355 2.019-.123 0-.246-.011-.372-.028-1.302-.204-2.192-1.425-1.988-2.727.021-.136 2.145-13.842 2.888-28.77 1.268-25.576-2.461-33.52-4.8-35.978-.778-.818-1.62-1.275-2.595-1.401-.777-1.077-1.558-2.567-2.178-4.616a2.32 2.32 0 0 1 .576-.137c2.935-.31 5.581.682 7.657 2.868 5.09 5.352 7.146 18.655 6.106 39.536z" fill="#414042"/><path d="M185.168 258.841c.56 6.206 5.57 10.825 11.19 10.318s9.721-5.948 9.161-12.154-5.569-10.825-11.189-10.318-9.722 5.949-9.162 12.154z" fill="#bcbec0"/><path d="M196.4 268.353c5.621-.506 9.723-5.948 9.163-12.154s-5.569-10.825-11.189-10.319-9.722 5.949-9.163 12.154 5.569 10.826 11.189 10.319z" class="G"/><path d="M186.572 257.888c.485 5.377 4.826 9.38 9.696 8.941s8.423-5.155 7.939-10.532-4.826-9.38-9.696-8.94-8.424 5.154-7.939 10.531z" fill="#d1d3d4"/><path d="M190.562 257.528c.266 2.944 2.642 5.135 5.308 4.895s4.612-2.822 4.346-5.766-2.642-5.135-5.308-4.894-4.611 2.822-4.346 5.765z" class="G"/><path d="M143.839 130.515c-.3-.567-.468-1.134-.599-1.702a11.36 11.36 0 0 1-.239-1.707c-.036-.57-.031-1.14.012-1.712l.1-.861.133-.888c.06.049.114.109.175.174l.133.199c.094.138.151.274.222.416.126.281.225.567.304.854a8.42 8.42 0 0 1 .282 1.733c.036.58.019 1.161-.054 1.744-.08.582-.204 1.166-.469 1.75zm51.626.377c-.083-.613-.038-1.183.047-1.741a8.98 8.98 0 0 1 .413-1.617c.183-.523.411-1.03.689-1.517s.604-.957 1.053-1.377c.082.623.036 1.194-.048 1.75a9.14 9.14 0 0 1-.412 1.608c-.183.519-.41 1.022-.687 1.508-.283.485-.604.957-1.055 1.386z" class="B"/><path d="M171.072 167.523c-19.189 0-22.742-16.027-23.802-17.437s-1.805-2.249-1.805-2.249l-.719-5.587-.654-.123-.361-7.614c0-1.088-.429-4.308-.429-4.308s21.358-3.422 26.537-3.422 26.553 3.422 26.553 3.422-.445 3.22-.445 4.308-.361 7.614-.361 7.614l-.654.123-1.06 5.587s-.745.84-1.805 2.249-5.07 17.437-20.995 17.437z" fill="#afe5dc"/><path d="M144.746 142.25a209.99 209.99 0 0 0 12.546 1.43l3.141.232 3.143.176 3.144.129 3.144.063 3.144.024 3.143-.075 3.14-.137 3.138-.201 3.135-.277 3.124-.393 1.567-.19 1.554-.267 3.123-.514-3.044.884-1.533.415-1.552.332-3.118.618-3.147.451c-1.048.172-2.106.239-3.162.334l-3.171.235-3.178.117-3.18.007c-1.06.002-2.118-.05-3.177-.096l-3.172-.174-3.165-.274-3.154-.365-3.141-.459-3.124-.559-6.168-1.466zm.72 5.587c3.47 2.961 7.328 5.414 11.419 7.288 2.053.916 4.163 1.7 6.334 2.236 2.165.545 4.379.904 6.604.95 2.225.068 4.449-.148 6.627-.604l1.626-.382 1.593-.509c.539-.152 1.049-.38 1.567-.592l.778-.313.39-.157c.128-.056.251-.123.377-.185 4.052-1.927 7.735-4.637 11.091-7.732-2.945 3.487-6.517 6.512-10.62 8.687-.127.069-.252.144-.381.209l-.395.181-.792.363c-.53.24-1.056.487-1.612.665l-1.648.577-1.691.449a28.64 28.64 0 0 1-6.951.706c-2.335-.076-4.651-.456-6.892-1.068-2.237-.63-4.409-1.469-6.464-2.525-2.063-1.041-4.016-2.279-5.862-3.646-1.826-1.393-3.577-2.89-5.098-4.598z" fill="#90beb4"/><path d="M142.764 100.231s27.016-14.93 54.742 0l6.066-19.516c.464-1.436.441-2.949-.012-4.326a6.97 6.97 0 0 0-1.871-2.921c-3.794-3.535-12.244-8.127-30.541-8.127-18.812 0-27.74 4.853-31.763 8.423-1.001.888-1.695 2.028-2.045 3.267s-.357 2.577.016 3.862l5.408 19.338z" class="D"/><path d="M180.633 77.202h-7.095v-7.096h-6.089v7.096h-7.095v6.089h7.095v7.096h6.089v-7.096h7.095v-6.089z" fill="#effafc"/></g><path d="M330.332 120.663c-2.251-3.027-6.548-2.975-6.729-2.972l.028 1.434c.037-.001 3.751-.034 5.556 2.4 1.241 1.676 1.339 4.174.29 7.424-1.758 5.447-5.428 11.894-9.58 16.826-4.505 5.353-8.797 8.001-11.776 7.265s-5.543-5.078-7.037-11.914c-1.376-6.298-1.622-13.713-.641-19.351.586-3.365 1.836-5.529 3.715-6.434 2.73-1.314 6.002.446 6.035.464l.692-1.256c-.159-.088-3.937-2.135-7.339-.505-2.326 1.115-3.845 3.633-4.515 7.485-1.011 5.809-.761 13.436.652 19.903.752 3.444 1.77 6.3 3.024 8.488 1.445 2.519 3.151 4.037 5.07 4.512s4.136-.075 6.588-1.632c2.129-1.352 4.359-3.405 6.629-6.102 4.263-5.065 8.036-11.697 9.847-17.309 1.201-3.72 1.03-6.657-.509-8.726z" class="C"/><path d="M324.693 117.199c.497.049.841.689.768 1.43s-.534 1.302-1.031 1.253l-3.304-.324.264-2.684 3.303.325z" class="D"/><path d="M319.655 118.059c-.098.996.514 1.871 1.367 1.955s1.623-.656 1.72-1.652-.514-1.872-1.366-1.955-1.623.656-1.721 1.652z" class="E"/><path d="M310.149 113.605c-.463-.187-1.065.219-1.346.908s-.133 1.401.329 1.59l3.075 1.251 1.017-2.497-3.075-1.252z" class="D"/><g class="E"><path d="M314.207 116.713c-.377.927-1.326 1.416-2.12 1.093s-1.131-1.336-.753-2.263 1.326-1.417 2.12-1.094 1.131 1.337.753 2.264zm12.974 21.292l.008-.02.005-.021.004-.02a.34.34 0 0 0 0-.078l-.003-.021-.005-.023c-.003-.013-.005-.019-.007-.024l-.023-.061-.011-.024-.014-.025-.014-.026-.017-.025c-.005-.009-.011-.017-.017-.026l-.02-.026-.021-.026-.023-.026-.026-.028-.058-.057-.028-.025-.029-.024-.03-.024-.031-.024-.031-.022a1.73 1.73 0 0 0-.21-.125c-.428-.214-.864-.216-.998-.009h-.001l-.011.021-.392.681-.375.644-.389.636-.795 1.262-.202.312-.208.31-.416.618-.429.61-.215.305-.106.152-.11.151-.442.6-.222.3-.228.295-.456.59-.469.579-.958 1.142-.244.281-.249.278-.123.139-.127.137-.252.274-2.127 2.085-1.141.956-1.204.873a13.48 13.48 0 0 1-1.278.76c-.439.229-.894.43-1.362.592a6.69 6.69 0 0 1-1.446.335c-.49.051-.99.035-1.475-.071-.492-.135-.943-.354-1.355-.628a6.7 6.7 0 0 1-1.123-.97 9.97 9.97 0 0 1-.929-1.159 13.55 13.55 0 0 1-.777-1.267l-.66-1.333-.564-1.378-.91-2.836-.097-.359-.047-.18-.045-.181-.091-.362-.085-.362-.316-1.457-.145-.731-.129-.734-.064-.368-.057-.368-.111-.737-.028-.185-.023-.185-.049-.369-.095-.74-.08-.741-.039-.371-.034-.371-.116-1.486-.048-.745-.032-.745-.029-.781-.001-.027h0c-.023-.246-.41-.448-.888-.457-.079-.002-.156.002-.23.011l-.053.007-.021.003-.039.007-.038.008-.04.01-.08.023-.033.011-.033.013-.032.013-.033.016-.033.017-.026.014-.025.016-.023.016-.021.016a.42.42 0 0 0-.045.039l-.016.017-.016.019c-.008.009-.011.014-.015.019-.017.025-.029.048-.038.072-.003.01-.005.014-.006.02s-.004.015-.005.021-.003.015-.003.021l-.002.02c0 .021.002.042.007.062l.005.233.202 3.299.381 3.284.129.816.065.409.075.406.149.813.168.81.806 3.207.505 1.575.589 1.547.161.381.169.378.175.375.089.187.093.185.804 1.448c.292.469.604.926.948 1.359a10.26 10.26 0 0 0 1.13 1.21c.41.37.856.701 1.338.971a5.88 5.88 0 0 0 1.533.599h0c.532.139 1.085.197 1.636.184s1.101-.1 1.636-.236a10.16 10.16 0 0 0 1.564-.545c.506-.223.995-.482 1.472-.761a17.53 17.53 0 0 0 1.385-.907l.169-.12.165-.125.33-.25.326-.255.32-.262 1.241-1.095 1.181-1.159 2.207-2.462.526-.638.511-.65.255-.326.248-.33.495-.662 1.866-2.729 1.716-2.825.112-.204c.014-.016.026-.033.035-.052z"/><path d="M329.785 167.734l.101-.544.043-.274.038-.274.105-1.103.021-1.114-.003-.14-.005-.141-.015-.282-.023-.283-.014-.142-.017-.142a9.84 9.84 0 0 0-.202-1.138c-.094-.379-.214-.756-.365-1.126l-.058-.138-.029-.069-.032-.069-.132-.272-.145-.267c-.011-.022-.025-.044-.038-.065l-.04-.065-.08-.13c-.052-.088-.112-.171-.169-.255l-.09-.124-.093-.122-.095-.12-.098-.117-.203-.226-.434-.422-.228-.196-.118-.094-.118-.092c-.32-.238-.654-.452-1.001-.637l-.528-.259-.134-.059-.067-.029-.068-.027-.135-.055-.137-.051c-.729-.27-1.485-.442-2.25-.527l-.144-.014-.071-.007-.072-.005-.284-.018-.071-.005-.071-.002-.141-.004-.142-.004-.142-.002-.563.012-.141.006-.14.008-.279.021-.278.027-.276.031-.275.038-.137.019-.136.022-.272.045-.269.052-.135.025-.134.029-.267.057-2.078.565-.254.08-.252.083-.503.167-.251.084-.126.044-.124.045-.499.18-.249.09-.248.094-.494.192-.248.096-.245.1-.49.203-3.826 1.823-.295.16c.144-2.415.421-4.823.827-7.208l-.303-.052-1.337-.228-.303-.052a68.68 68.68 0 0 0-.902 8.365l-.014.348c-1.648 1.007-3.233 2.118-4.743 3.321a46.67 46.67 0 0 0-6.115 5.853 45.17 45.17 0 0 0-4.941 6.878l.265.155 1.172.684.265.154c1.362-2.334 2.95-4.537 4.726-6.578a44.78 44.78 0 0 1 5.856-5.605l3.459-2.497-.002.442.003.526.002.263.004.265.103 2.14a16.98 16.98 0 0 0 .319 2.175l.062.272c.009.046.023.091.034.136l.036.136.035.136.018.068.02.067.081.271.042.135.046.134.093.268.104.266.053.133.026.066.029.066.118.261.06.131.064.129.065.13.068.127.069.127.071.126.147.248.156.243.08.119.082.118.083.118.086.115.086.115.089.113.09.112.091.111.186.218.194.211a11 11 0 0 0 .825.791l.218.183.224.177.056.044.057.042.115.085.115.084.117.081a10.56 10.56 0 0 0 .966.599 11.34 11.34 0 0 0 1.022.498 11.17 11.17 0 0 0 1.068.391l.548.155.277.067.279.058a11.02 11.02 0 0 0 1.13.164 11.37 11.37 0 0 0 1.137.041l.142-.002.142-.005.283-.013.283-.022.141-.014.141-.015 1.116-.18 1.091-.283.135-.043.133-.043.266-.092.264-.099.066-.024.065-.027.13-.053 1.02-.471c.664-.345 1.3-.744 1.895-1.199l.863-.72.795-.793.722-.857.085-.111.084-.112.083-.113.081-.113.16-.229.154-.233.57-.958.493-.997c.304-.675.553-1.374.755-2.085l.261-1.076zm-2.158.544c-.176.62-.392 1.227-.656 1.812l-.426.862-.491.824-.132.2-.137.196-.07.097-.071.096-.071.096-.073.095-.614.729-.672.671-.73.608a10.94 10.94 0 0 1-1.605 1.016l-.863.398-.11.045-.055.022-.055.021-.222.083-.225.078-.112.036-.113.036-.916.238-.931.15-.117.012-.117.012-.234.018-.235.012-.117.003-.117.002c-.313.004-.625-.007-.936-.034a9 9 0 0 1-.921-.133l-.228-.048-.227-.054-.45-.128-.879-.322-.842-.41c-.275-.149-.539-.316-.795-.493l-.097-.067-.094-.069-.094-.069-.047-.035-.046-.036-.183-.145-.179-.15a9.08 9.08 0 0 1-.672-.644l-.156-.171-.151-.176-.074-.089-.072-.09-.072-.091-.068-.093-.07-.093-.066-.094-.065-.095-.065-.095-.124-.194-.117-.198-.057-.1-.055-.101-.054-.101-.051-.103-.052-.102-.048-.105-.095-.212-.023-.052-.022-.055-.042-.108-.085-.217-.077-.222-.039-.11-.034-.113-.068-.226-.017-.057-.015-.057-.03-.115-.03-.115-.03-.116-.052-.233c-.138-.624-.225-1.27-.282-1.926l-.095-2.003-.004-.254-.002-.256-.003-.51.003-.511.001-.256.005-.255.008-.511.004-.132 1.323-.737 3.661-1.744.468-.194.234-.097.236-.091.473-.183.237-.091.238-.086.477-.171.119-.043.12-.042.24-.08.481-.161.241-.079.241-.076 1.923-.523.24-.051.12-.026.12-.023.24-.045.239-.04.12-.019.12-.017.239-.033.238-.027.239-.023.238-.018.118-.007.119-.005.473-.01.117.002.118.003.117.003.058.002.059.004.233.015.058.004.057.006.115.011a7.46 7.46 0 0 1 1.778.416l.107.04.105.042.052.021.052.023.104.045.403.198a5.8 5.8 0 0 1 .747.475l.337.277a4.87 4.87 0 0 1 .309.3l.143.16.069.082.066.083c.023.027.043.056.064.085l.062.086.06.087.029.044.028.046.056.091.028.045c.01.015.019.03.027.046l.103.189.094.195.023.049.021.05.042.101c.111.27.202.553.274.846s.123.595.16.903l.013.115.012.116.019.234.012.236.005.118.003.119-.019.959-.091.962-.034.239-.037.239-.089.475-.226.937z"/></g><path d="M294.081 184.099c3.188-1.489 4.566-5.282 3.076-8.47s-5.281-4.566-8.47-3.077-4.566 5.282-3.077 8.47 5.282 4.566 8.471 3.077z" class="C"/><path d="M289.791 184.832a6.7 6.7 0 0 1-4.892-8.102c.885-3.583 4.52-5.777 8.103-4.892s5.776 4.52 4.891 8.103a6.7 6.7 0 0 1-8.102 4.891zm3.057-12.372a6.06 6.06 0 0 0-7.328 4.424 6.06 6.06 0 0 0 4.424 7.327 6.06 6.06 0 0 0 7.328-4.424 6.06 6.06 0 0 0-4.424-7.327z" class="E"/><path d="M295.409 179.142c.459-2.219-.968-4.389-3.186-4.848s-4.388.968-4.847 3.186a4.1 4.1 0 0 0 3.185 4.847c2.219.459 4.389-.967 4.848-3.185z" class="C"/><path d="M290.259 182.938c-2.538-.627-4.093-3.202-3.465-5.74s3.202-4.093 5.74-3.465a4.75 4.75 0 0 1 3.465 5.74 4.75 4.75 0 0 1-5.74 3.465zm1.968-7.963c-1.853-.458-3.733.677-4.191 2.53s.677 3.733 2.53 4.191 3.733-.678 4.19-2.53-.677-3.733-2.529-4.191z" class="E"/><path d="M291.785 178.431a.4.4 0 0 1-.777-.192.4.4 0 1 1 .777.192z" fill="#ccc"/><path d="M323.993 253.26c1.349-4.546 3.707-14.111 5.336-17.216s5.702-13.283 6.57-17.457l.354-1.382s.187-.966.785-.813.298 1.09.298 1.09l-.353 1.382c-1.327 4.335-2.552 14.964-2.613 18.469s-2.582 13.029-3.58 17.664a20.64 20.64 0 0 1-.588 2.196c-.81 2.424-1.607 2.734-1.607 2.734s-1.05.606-2.731.177c-1.643-.42-2.31-1.466-2.31-1.466s-.551-.653-.099-3.167a20.48 20.48 0 0 1 .538-2.211z" fill="#d5dddf"/><path d="M323.454 255.47c3.62-.709 6.748 1.723 6.748 1.723-.81 2.424-1.607 2.733-1.607 2.733s-1.051.607-2.731.178c-1.643-.42-2.311-1.466-2.311-1.466s-.55-.654-.099-3.168zm6.99-14.486l.577.147c1.217.311 1.952 1.551 1.641 2.768l-2.42 9.465c-.311 1.217-1.55 1.952-2.768 1.641l-.576-.148c-1.218-.311-1.953-1.55-1.641-2.768l2.419-9.464c.311-1.218 1.551-1.952 2.768-1.641z" class="D"/><g class="C"><path d="M326.24 252.561c.206-.804 1.025-1.29 1.829-1.084s1.29 1.024 1.084 1.829c-.19.744-.906 1.215-1.649 1.118-.06-.007-.12-.019-.18-.034l-.175-.056c-.698-.273-1.099-1.029-.909-1.773z"/><path d="M326.912 252.464c.12-.469.597-.752 1.066-.632s.753.597.633 1.067a.88.88 0 0 1-.885.659l-.222.867a1.6 1.6 0 0 1-.178-.035c-.061-.015-.119-.034-.175-.056l.22-.867c-.363-.18-.564-.594-.459-1.003z"/></g><path d="M327.985 251.804a.91.91 0 0 1 .654 1.102.91.91 0 0 1-.891.681l-.222.869-.025-.003c-.121-.015-.247-.048-.359-.092l-.028-.007.223-.872a.91.91 0 0 1-.454-1.025c.124-.484.618-.777 1.102-.653zm-.502 2.588l.221-.864.023.001a.85.85 0 0 0 .855-.637.85.85 0 0 0-.611-1.032.85.85 0 0 0-1.032.611.85.85 0 0 0 .445.97l.021.011-.221.864a1.44 1.44 0 0 0 .299.076z" class="D"/><path d="M328.484 242.861l-1.958 7.655 3.38.864 1.957-7.655-3.379-.864z" fill="#999"/><path d="M326.757 250.346l1.861-7.282 3.007.768-1.862 7.282-3.006-.768zm-.469.278l3.753.959 2.052-8.029-3.753-.959-2.052 8.029z" class="C"/><path d="M337.038 216.391c.597.153.298 1.091.298 1.091l-.343 1.341-1.083-.276.343-1.342s.187-.966.785-.814z" fill="#999"/><g class="E"><path d="M36.071 275.373l.068-.032-.068.032zm-.106.049l.068-.032-.068.032zm9.658-24.559l-.012-.017-.013-.016-.014-.016-.016-.015-.016-.015-.019-.016-.021-.017-.023-.016a.28.28 0 0 0-.025-.017l-.027-.017-.028-.017-.03-.017-.032-.017-.033-.017-.035-.018c.177.085.297.169.344.248l.01.018-.01-.018z"/><path d="M45.635 250.885zm.01.019zm-9.051 24.221l.067-.033-.067.033zm-.418.199l.068-.032-.068.032zm.104-.049l.068-.032-.068.032zm9.42-24.203l-.014-.056-.007-.024.027.103-.005-.023zm-.607 8.159l-.005.085.005-.085zm.637 8.059zm-9.032 7.784l.067-.033-.067.033zm-.944.445l.068-.031-.068.031zm-.213.095l.069-.03-.069.03zm-.106.048l.069-.031-.069.031z"/><path d="M45.671 250.969l-.018-.046a.72.72 0 0 1 .024.065l-.006-.019zm-10.342 24.74l.069-.03-.069.03zm1.782-.839l.067-.033-.067.033zm1.113-.578l.064-.034-.064.034zm-.301.16l.066-.034-.066.034zm.695-.374l.064-.035-.064.035zm.099-.055l.062-.034-.062.034zm-.296.163l.064-.036-.064.036zm.099-.054l.065-.035-.065.035zm-.396.213l.064-.034-.064.034zm-.809.422l.067-.034-.067.034zm.407-.209l.066-.035-.066.035zm-.817.415l.067-.034-.067.034zm8.131-24.464l.042.017-.042-.017zm.77 17.229z"/><path d="M45.243 250.597l-.038-.017-.04-.018-.041-.018-.043-.017.192.085-.03-.015zm-8.235 24.324l.067-.033-.067.033zm8.793-7.237zm-10.686 8.118l.069-.03-.069.03zm-.645.27l.069-.028-.069.028zm.431-.179l.069-.029-.069.029zm-.323.134l.068-.028-.068.028zm.108-.044l.069-.028-.069.028zm.108-.045l.069-.029-.069.029zm-.648.264l.069-.027-.069.027zm-1.09.405l.069-.024-.069.024zm-.109.038l.069-.024-.069.024zm.764-.276l.069-.026-.069.026zm11.979-7.622zm.016-.052zm-.033.103zm.048-.155zm-.065.206zm.12-1.345v-.001zm.012.072zm.007.054zm-.158 1.27zm.13-1.448zm-.011-.051zm-.339 1.952zm.2-.402zm-.172.354zm-.149.236zm.032-.047zm.031-.047zm.03-.047zm.158-.288zm-.024.048zm-.025.049zm-.026.048zm-.53-18.785l.04.016-.04-.016zm-1.944 20.914zm-1.119-21.719l2.56.635c-.647-.2-1.525-.414-2.56-.635zm1.339 21.57zm-.685.461l.03-.02-.03.02zm.312-.208l.022-.015-.022.015zm1.728-21.145zm-.057-.019zm.203 19.839l.018-.016c-.006.006-.012.01-.018.016zm-6.981-21.281l-.11-.019.11.019z"/><path d="M41.831 249.657l-.114-.024.114.024zm3.925 18.838zm-.819 1.47l.016-.016c-.005.006-.011.011-.016.016zm-.085.082l.017-.016-.017.016zm-.044.04l.018-.016-.018.016zm-.044.039l.018-.016c-.006.006-.012.011-.018.016zm.255-.246zm.083-.091zm-4.962 3.418l.057-.034-.057.034zm-.092.054l.057-.034-.057.034zm4.845-22.807l.039.015-.039-.015zm-5.032 22.917l.06-.035-.06.035zm-.092.055l.06-.035-.06.035zm.735-.438l.055-.033-.055.033zm-.09.054l.055-.033-.055.033zm4.443-22.601l.023.009-.023-.009zm-4.535 22.657l.057-.034-.057.034zm-1.411.818l.063-.035-.063.035zm.29-.163l.061-.035-.061.035zm5.789-23.263l.041.017-.041-.017zm-5.982 23.372l.062-.035-.062.035zm.384-.218l.061-.035-.061.035zm5.293-23.263l.026.009-.026-.009zm.054.018c.009.004.02.007.03.011l-.03-.011zm-.109-.036l.023.007-.023-.007zm-2.826 21.813l.044-.029-.044.029zm-1.031.648l.053-.033-.053.033zm4.07-22.388zm-3.545 22.062l.048-.031-.048.031zm3.494-22.08l.034.012-.034-.012zm-3.41 22.027l.049-.031-.049.031zm-15.252 5.294l.06.004-.06-.004zm-.103-.008l.06.005-.06-.005zm-.309-.031l.059.007-.059-.007zm-.102-.012l.059.007-.059-.007zm1.139.081l.062.001c-.021 0-.041-.001-.062-.001zm.105.001l.062.001c-.021 0-.041 0-.062-.001zm-2.643-.358l.055.015-.055-.015zm-3.194-1.699l-.022-.019v.001l.021.018zm3.686 1.821l.057.012-.057-.012zm-.394-.095l.056.014-.056-.014zm.098.025l.056.014-.056-.014zm7.876-.602l.069-.022-.069.022zm-7.079.768l.058.009-.058-.009zm-.301-.054l.057.011-.057-.011zm.1.019l.057.01-.057-.01zm-.2-.04l.057.012-.057-.012zm4.193.071l.065-.009-.065.009zm-8.654-2.562l.04.042-.04-.042zm9.416 2.437l.067-.012-.067.012zm-1.304.192l.064-.007-.064.007zm1.086-.153l.066-.011-.066.011zm-.218.037l.066-.011-.066.011zm-.218.033l.065-.009-.065.009zm-.325.045l.065-.008-.065.008zm-1.29.107l.063-.002-.063.002zm-.424.009h.062-.062zm.106-.001l.062-.001-.062.001zm5.331-.978l.069-.023-.069.023zm-4.586.948l.064-.005-.064.005zm.108-.008l.064-.005-.064.005zm-.215.015l.063-.004-.063.004zm4.803-.991l.069-.023-.069.023zm-4.909.997l.063-.004-.063.004zm-6.401-1.805l.044.035-.044-.035zm.084.065l.045.034-.045-.034zm-.331-.267l.043.036-.043-.036zm-.163-.142l.042.037-.042-.037zm10.732 1.456l.068-.02-.068.02zm-10.154-.983l.045.033-.045-.033zm.342.242l.047.03-.047-.03zm9.922.709l.068-.02-.068.02zm-10.179-.889l.045.033-.045-.033zm-1.059-.914l.04.041-.04-.041zm-.077-.08l.04.042-.04-.042zm.234.236l.041.039-.041-.039zm10.641 1.77l.068-.018-.068.018zm-10.482-1.62l.042.038-.042-.038z"/><path d="M11.08 263.243c.442 1.848.865 2.292 5.234 7.237l.211.077.105.039.053.019.053.018.213.071.107.035.108.032.215.065.108.03.108.03.108.029.054.015.027.007.027.007.218.052a15.53 15.53 0 0 0 1.767.316l1.789.136 1.794-.013.112-.004.112-.007.224-.012.112-.007.112-.008.224-.016.894-.081 1.779-.238 1.766-.322 1.752-.393 1.738-.455 1.724-.506 1.71-.552.425-.145.212-.073.212-.074.212-.073.212-.075.423-.151 6.68-2.665-6.638 2.78c-2.25.834-4.539 1.572-6.874 2.142l-1.758.393-1.774.317-1.788.227-.898.076-.225.014-.113.007-.113.005-.225.011-.113.005-.113.003a23.06 23.06 0 0 1-1.803-.007l-1.795-.162c-.595-.083-1.186-.198-1.767-.35l-.218-.058-.027-.007-.027-.008-.054-.016-.108-.032-.108-.032-.108-.032-.214-.07-.107-.035-.106-.038-.212-.076-.053-.02-.052-.02-.105-.042-.209-.083 3.821 4.349.046.053c7.523 4.096 18.492-1.983 24.344-6.536-1.166-4.264-.603-10.418-.269-14.573-8.179-1.627-21.248-3.564-22.854-3.52-1.468.039-5.4 2.674-7.895 4.034-.516 1.916-1.279 3.788-1.824 5.397a31.63 31.63 0 0 1 .826-.637 26.7 26.7 0 0 1 .849-.607 20.63 20.63 0 0 1 1.778-1.095 15.53 15.53 0 0 1 1.896-.882l.122-.047.123-.045.247-.087.249-.081.031-.01.031-.01.063-.018.126-.038a12.18 12.18 0 0 1 1.018-.249l.258-.047.259-.041.26-.034.065-.008.065-.007.131-.013.065-.006c.022-.002.043-.004.066-.005l.133-.007c.044-.003.088-.002.132-.003l.131-.001a15.21 15.21 0 0 1 .523.008c.349.009.696.026 1.044.043l.521.028.521.032 2.082.152 1.04.088 1.039.092.52.049.519.049 1.039.104.519.053.519.055 1.037.112 1.037.118 1.036.122 1.036.126 1.035.133 2.068.28.517.073.516.076.516.075.516.079c1.375.211 2.748.437 4.116.692l-4.127-.616-.517-.071-.517-.07-.517-.069-.517-.067-1.035-.132-.259-.033-.259-.031-.518-.064-1.036-.123-1.036-.121-1.036-.116-1.037-.112-1.037-.109-.519-.054-.519-.052-1.038-.102-1.038-.097-4.157-.34-.52-.035-.52-.031-1.04-.049-.52-.011-.129.001c-.043.001-.087 0-.129.002l-.128.006a1.39 1.39 0 0 0-.064.005l-.064.006-.129.011-.064.006-.064.007-.257.031-.256.039-.255.045a12.16 12.16 0 0 0-1.997.56 15.75 15.75 0 0 0-1.895.853c-.307.162-.61.332-.908.51a22.47 22.47 0 0 0-.883.554 29.25 29.25 0 0 0-.86.589l-.84.619c-.494 1.457-.81 2.697-.603 3.559zm1.831 3.33a13.7 13.7 0 0 1 .792-.602l.204-.141.207-.138c.069-.046.139-.09.209-.134l.105-.067.106-.065a17.17 17.17 0 0 1 .862-.497l.44-.233.222-.113.111-.055.112-.054c.597-.29 1.207-.554 1.826-.795.309-.12.621-.234.936-.341a19.7 19.7 0 0 1 .951-.299l.12-.034.12-.033c.08-.022.161-.042.242-.062a6.04 6.04 0 0 1 .492-.104 1.33 1.33 0 0 1 .062-.01l.062-.008.124-.016.248-.027.062-.007.062-.006.124-.011.248-.021a62.91 62.91 0 0 1 1.987-.119l1.988-.077.994-.029.497-.012.497-.012 7.954-.055.994.007.994.011 1.988.034 3.975.115-7.952-.045-.497.001-.497.003-.994.005-1.988.018-.994.011-.994.015-.994.017-.497.01-.497.01-.497.011-.497.012-.993.028-.993.032-.993.038-1.983.108c-.082.005-.165.013-.247.019l-.123.011-.062.005-.062.006-.246.026-.122.015-.061.008c-.02.002-.041.005-.061.008-.16.024-.321.06-.482.098l-.24.059-.12.032-.119.032c-.637.176-1.264.387-1.883.619a25.22 25.22 0 0 0-.922.365c-.305.127-.607.263-.907.402l-.112.053c-.038.017-.075.035-.112.053l-.223.109-.443.225a18.37 18.37 0 0 0-.868.481 15.26 15.26 0 0 0-1.646 1.11zm10.349 10.512l.052.022-.052-.022zm8.699-.122l.068-.02-.068.02zm-8.416.232l.053.019-.053-.019zm-.376-.149l.052.022-.052-.022zm.759.28l.054.017-.054-.017zm.097.03l.055.016-.055-.016zm-.385-.126l.053.018-.053-.018zm.192.065l.054.017-.054-.017zm-1.663-.755l.048.028-.048-.028z"/><path d="M21.002 275.695c-.008-.006-.015-.013-.023-.02l.023.02h0zm11.067 1.235l.069-.021-.069.021zm-9.813-.338l.048.028-.048-.028zm.541.287l.05.024-.05-.024zm-.273-.138l.049.026-.049-.026zm9.655.155l.069-.021-.069.021zm-2.196.563l.067-.013-.067.013zm.658-.142l.067-.016-.067.016zm-.219.05l.067-.015-.067.015zm14.798-7.724zm-14.469 7.648l.068-.017-.068.017zm14.503-7.693l-.002.003zm-15.162 7.839l.067-.014-.067.014zm15.722-9.504v.021-.021zm-.004.163zm-.024.231v-.001-.001.002zm.026-.285zm.002-.055v.021-.021zm-.019.278zm.017-.419zm-.002-.054zm.004.108v-.02.02zm-.06-15.976c-.032 1.504-.461 4.261-.656 7.223l.651-7.058.005-.156.001-.047.001-.051v-.094-.044-.046l-.002-.088-.001-.039-.002-.042-.005-.081-.003-.036-.003-.036-.008-.073-.004-.032-.005-.032-.011-.065-.005-.028c.013.063.024.139.032.223a5.48 5.48 0 0 1 .014.602z"/></g><g class="B"><path d="M13.907 265.83l.207-.138.209-.134.105-.067.106-.065.862-.497.44-.233.222-.113.111-.055.112-.054 1.826-.795.936-.341.951-.299.12-.034.12-.033.242-.062.492-.104.062-.01.062-.008.124-.016.248-.027.062-.007.062-.006.124-.011.248-.021 1.987-.119 1.988-.077.994-.029.497-.012.497-.012 7.954-.056.994.008.994.011 1.988.034 3.975.115-7.952-.045-.497.001-.497.003-.994.005-1.988.018-.994.011-.994.015-.994.017-.497.01-.497.01-.497.011-.497.012-.993.028-.993.032-.993.038-1.983.108-.247.019-.123.011-.062.005-.062.006-.246.026-.122.015-.061.008-.061.008a5.9 5.9 0 0 0-.482.098l-.24.059-.12.032-.119.032-1.883.619-.922.365-.907.402-.112.053-.112.053-.223.109-.443.225-.868.48a15.2 15.2 0 0 0-1.646 1.11l.792-.601.205-.141zm2.724 4.766l.053.019.053.018.213.071.107.035.108.032.215.065.108.03.108.03.108.029.054.015.027.007.027.007.218.053a15.98 15.98 0 0 0 1.767.316l1.789.135 1.794-.013.112-.004.112-.006.224-.013.112-.007.112-.008.224-.016.894-.081 1.779-.237 1.766-.323 1.752-.393 1.738-.455 1.724-.506 1.71-.552.425-.145.212-.073.212-.073.212-.074.212-.075.423-.151 6.68-2.664-6.638 2.779c-2.25.834-4.54 1.572-6.874 2.142l-1.758.393-1.774.317-1.788.227-.898.076-.225.014-.113.007-.113.005-.225.011-.113.005-.113.003a23.06 23.06 0 0 1-1.803-.007l-1.795-.162a15.38 15.38 0 0 1-1.767-.35l-.218-.058-.027-.007-.027-.008-.054-.016-.108-.032-.108-.031-.108-.033-.214-.07-.107-.035-.106-.038-.212-.076-.053-.019-.052-.021-.105-.041-.209-.084.211.078.105.038zm-3.272-12.156l1.778-1.095c.611-.335 1.244-.632 1.896-.882l.122-.047.123-.045.247-.087.249-.081.031-.01.031-.01.063-.018.126-.038 1.018-.249.258-.047.259-.041.26-.034.065-.008.065-.007.131-.013.065-.006.066-.005.133-.007.132-.003.132-.001.524.008 1.044.043.521.028.521.032 2.082.152 1.04.088 1.04.092.52.049.52.049 1.038.104.519.053.519.055 1.037.112 1.037.118 1.036.122 1.036.126 1.035.133 2.068.28.517.073.516.076.516.075.516.079 4.115.692-4.127-.616-.517-.071-.517-.07-.517-.069-.517-.067-1.035-.132-.259-.033-.259-.031-.518-.064-1.036-.123-1.036-.121-1.036-.116-1.037-.112-1.037-.109-.519-.054-.519-.052-1.038-.102-1.038-.097-4.157-.34-.52-.035-.52-.031-1.04-.049-.52-.011-.129.001-.129.002-.128.006-.064.005-.065.005-.129.012-.065.006-.064.007-.257.031-.256.039-.255.045a12.17 12.17 0 0 0-1.997.56c-.65.24-1.282.529-1.896.853l-.908.51-.883.554-.86.589-.84.619.826-.638.849-.606zm32.352-7.32zm.015.095zm-.113-.367zm-.044-.049l-.017-.015.017.015zm.153.386zm-.136-.369zm.055.081zm-.009-.017zm.018.037l.002.004z"/><path d="M45.533 250.768l.018.015-.018-.015zm.172.323zm-.028-.106zm-.641-.476l.036.014-.036-.014zm-.046-.019l.035.014-.035-.014zm.694.519zm-.999-.628l.022.008-.022-.008zm.779.337l.024.016-.024-.016zm-.085-.051l.028.016c-.009-.006-.018-.011-.028-.016zm-.749-.304zm.228.078z"/><path d="M45.409 250.684l.027.016-.027-.016zm-30.558 1.085l.809-.583 1.655-1.113 1.701-1.041.875-.478.902-.42.116-.046.117-.041.237-.073a1.69 1.69 0 0 1 .242-.046l.015-.001.015-.001.031-.002h.031.031l.124.003.062.002.062.004.124.006.124.008.124.009.497.04 1.985.196 3.962.463 7.904 1.088 3.935.652.49.091.245.046.245.047.489.097.122.024.122.026.244.051.244.051.061.013.061.014.122.028.243.055.122.027.061.014.06.015.484.12.481.131-.122 1.905-.48-.135-.484-.123-.061-.016-.061-.014-.122-.029-.243-.056-.122-.029-.061-.014-.061-.013-.244-.053-.244-.054-.122-.026-.122-.025-.49-.1-.245-.049-.245-.047-.491-.094-3.942-.675-3.956-.589-3.964-.531-3.971-.469-1.99-.199-.499-.04-.5-.029-.126-.002-.031-.001-.032.002-.032.001-.032.004a1.87 1.87 0 0 0-.248.046c-.163.041-.322.093-.478.151l-.921.392-.897.443-1.755.959-1.72 1.02-1.689 1.071.843-.537.852-.524 1.725-1.01 1.757-.953.897-.44.92-.388a4.44 4.44 0 0 1 .475-.149 1.85 1.85 0 0 1 .243-.044c.081-.008.164-.004.247-.003l.498.029.498.041 1.989.201 3.97.473 7.92 1.109 3.943.662.491.092.245.046.245.048.49.098.123.024.122.026.244.052.244.052.061.013.061.014.122.027.244.056.122.027.061.014.061.015.485.12.481.132-.049.623c-8.179-1.627-21.248-3.564-22.854-3.52-1.468.039-5.4 2.674-7.895 4.034.087-.325.168-.652.239-.978l.021-.092.84-.534.849-.521a67.58 67.58 0 0 1 1.719-1.006 48 48 0 0 1 1.752-.946 27.33 27.33 0 0 1 .895-.435l.455-.2a8.62 8.62 0 0 1 .463-.18c.156-.054.314-.105.475-.14a1.55 1.55 0 0 1 .243-.037c.04-.003.082 0 .123 0l.124.003.248.013.248.018.124.009.124.01.248.021 1.981.197 3.956.462 7.892 1.087 3.929.652.49.09.245.046.245.047.488.097.122.024.122.026.244.051.244.051.061.013.061.014.121.028.243.055.121.027.061.014.06.015.483.119.48.132-.479-.135-.483-.122-.06-.015-.061-.015-.121-.028-.242-.056-.121-.028-.061-.014-.061-.014-.243-.052-.243-.053-.122-.026-.122-.025-.488-.099-.244-.049-.245-.047-.489-.093a141.14 141.14 0 0 0-3.928-.664l-.492-.076-.492-.076-.985-.146-.986-.142-.986-.138-3.95-.519-3.957-.459-1.983-.195-.248-.02-.124-.01-.124-.009-.249-.017-.249-.013c-.041-.002-.083-.002-.125-.002s-.083-.003-.126 0a1.6 1.6 0 0 0-.249.038c-.163.036-.322.088-.479.143a7.7 7.7 0 0 0-.464.183l-.456.201a25.53 25.53 0 0 0-.895.439c-.591.303-1.173.623-1.75.952a67.06 67.06 0 0 0-1.714 1.014 55.68 55.68 0 0 0-1.682 1.066 4.61 4.61 0 0 1 .291-.841 25.63 25.63 0 0 1 .793-.608zm30.428-1.154l.032.016-.032-.016z"/><path d="M45.272 250.612zm.076.038l.03.016c-.01-.006-.02-.011-.03-.016zm-.832-.324zm-.088.92l-.48-.135-.483-.123-.061-.015-.061-.015-.121-.028-.243-.056-.121-.028-.061-.015-.061-.013-.244-.053-.244-.053-.122-.026-.122-.025-.489-.099-.245-.048-.245-.047-.49-.094-3.934-.665-3.948-.578-3.956-.52-3.964-.459-1.986-.194-.498-.039-.124-.009-.125-.008-.125-.006-.062-.003-.062-.003-.125-.001-.031-.001-.031.001-.032.001-.016.001-.016.002c-.084.009-.167.026-.247.048l-.239.074-.117.042-.116.046c-.309.126-.608.272-.904.425l-.874.482-1.699 1.046-1.65 1.122-1.593 1.2a5.19 5.19 0 0 1 1.247-1.678c.205-.185.427-.359.665-.518l1.781-1.202c1.656-1.105 3.424-2.202 4.27-2.213.239-.004.8.041 1.598.124 2.748.284 8.304 1.023 13.148 1.83l.182.031.384.064.294.051.11.019.126.021.142.025.625.11a.93.93 0 0 1 .056.01l2.868.548.162.034.114.024c.016.004.032.007.048.011 1.035.22 1.913.435 2.56.635.008.269.003.585-.012.943zm.145-.901zm.219.073l.028.01-.028-.01zm.962 1.513zm-.59-1.369l.036.016-.036-.016zm.589.995zm-.014-.235zm.011.154zm.002.039zm.003.365zm-.012-.514z"/></g><path d="M15.653 251.176l1.65-1.121 1.699-1.047.874-.482.904-.424.116-.046.117-.043.239-.074c.081-.022.163-.039.247-.048l.016-.002.016-.001.032-.001c.011-.001.021-.001.031-.001l.031.001.125.002.063.002.062.003.125.007.125.007.124.009.498.039 1.986.194 3.964.459 3.956.52 3.948.578 3.934.666.49.093.245.047.245.048.489.099.122.025.122.027.244.052.244.053.061.014.061.014.121.028.243.056.121.029.061.014.061.015.483.123.48.135-.481-.132-.484-.119-.06-.015-.061-.014-.122-.028-.243-.055-.122-.027-.061-.014-.061-.013-.244-.051-.244-.052-.122-.025-.122-.025-.489-.097-.245-.047-.245-.045-.49-.091-3.935-.653-7.904-1.088-3.962-.462-1.985-.197-.497-.039-.124-.009-.124-.008-.124-.007-.062-.003-.062-.003-.124-.002h-.031a.16.16 0 0 0-.031 0l-.031.001-.015.001-.015.002c-.081.008-.162.024-.242.046l-.237.072-.117.042-.116.045a10.8 10.8 0 0 0-.902.421l-.874.478-1.701 1.041-1.655 1.113-.809.583-.791.607 1.593-1.2zm-.203.975l1.714-1.014 1.75-.952.895-.438.456-.202.464-.182c.157-.056.316-.108.479-.144a1.59 1.59 0 0 1 .249-.038c.042-.003.084 0 .126 0l.125.002.249.013.249.017.124.009.124.01.248.021 1.982.194 3.957.459 3.95.519.986.138.986.142.985.146.492.076.492.076 3.928.664.489.094.245.047.244.048.488.099.122.025.122.026.243.053.243.053.061.013.061.014.121.028.242.056.121.029.061.014.06.015.483.123.479.134-.48-.131-.483-.12-.06-.015-.061-.014-.121-.027-.243-.055-.121-.028-.061-.013-.061-.013-.244-.052-.244-.051-.122-.026-.122-.024-.488-.097-.245-.046-.245-.046-.49-.091-3.929-.652-7.892-1.086-3.956-.463-1.982-.197-.248-.02-.124-.011-.124-.009-.248-.017-.248-.014-.124-.002c-.041-.001-.083-.004-.123 0a1.44 1.44 0 0 0-.243.036c-.161.035-.319.086-.475.141l-.463.18-.455.2-.895.435-1.752.946-1.719 1.005-.849.521-.84.535 1.681-1.066zm27.89.747l-.061-.015-.061-.014-.122-.027-.244-.056-.122-.028-.061-.014-.061-.013-.244-.052-.244-.051-.122-.026-.123-.025-.49-.098-.245-.047-.245-.046-.491-.092-3.943-.662-7.92-1.109-3.97-.474-1.989-.201-.498-.04-.498-.029c-.083-.001-.166-.007-.247.002a1.85 1.85 0 0 0-.243.045 4.43 4.43 0 0 0-.475.149l-.919.388-.897.439-1.757.954-1.725 1.01-.852.523-.843.538 1.689-1.071 1.72-1.02 1.755-.959.897-.443.921-.392.478-.152a2.08 2.08 0 0 1 .248-.046l.032-.003.032-.002.032-.001h.032l.126.003.5.028.499.04 1.99.199 3.971.47 3.964.531 3.956.589 3.942.674.491.094.245.048.245.049.49.1.123.025.122.026.244.053.244.053.061.014.061.014.122.028.243.057.122.029.061.014.061.015.484.124.48.135-.481-.132-.486-.12z" class="I"/><g class="B"><path d="M45.724 268.63l.006-.022-.006.022zm.013-.05l.005-.022-.005.022zm.012-.05l.005-.022-.005.022zm.021-.102zm0-.957zm-.021-.103zm.03.155zm-.019-.103z"/><path d="M45.786 268.327l.008-.062.005-.044.005-.054.004-.053.003-.054.002-.053v-.02-.034-.054l-.002-.053-.003-.055-.002-.033c1.707-.668 3.397-1.419 4.891-2.458 2.467-1.715 4.01-4.057 4.233-6.423.196-2.079-.563-4.094-1.501-6.323-.331-.789-.682-1.526-1.32-1.873-.63-.342-1.422-.244-2.184-.086-1.442.3-2.837.744-4.173 1.33l-.016-.603.245-.103a21.72 21.72 0 0 1 3.829-1.174c.351-.072.814-.156 1.276-.155.502 0 .924.098 1.291.298.376.204.697.518.98.96.242.377.424.794.59 1.188l1.176 3.202c.344 1.245.464 2.354.366 3.392-.126 1.337-.625 2.643-1.481 3.882-.758 1.096-1.792 2.117-2.991 2.95-1.611 1.121-3.423 1.908-5.24 2.61l.007-.045zm-.132.528l-.009.024.009-.024zm-.251.522l-.015.024.015-.024z"/><path d="M45.687 268.757l-.007.023.007-.023zm-.016.049l-.008.024.008-.024zm-.296.617l-.016.025a.48.48 0 0 1 .016-.025zm-.123.178l-.001.001-.023.031.024-.032zm.302-.504l-.012.025.012-.025zm.022-.048l-.011.025c.003-.009.007-.017.011-.025zm.04-.096l-.01.024.01-.024zm-.019.048l-.01.024.01-.024zm.039-.097l-.009.024.009-.024zm-.451.784l-.03.037.03-.037zm.615-2.011z"/><path d="M45.128 269.758l.023-.027-.023.027zm.677-2.029zm-23.909 8.603l.154.075.36.155.183.07.091.035.046.018.023.009.023.007.186.064.093.031.093.03a10.38 10.38 0 0 0 1.528.353 12.03 12.03 0 0 0 1.563.132 14.4 14.4 0 0 0 1.568-.056l1.555-.214 1.531-.344a27.04 27.04 0 0 0 2.978-.987l1.445-.611 1.417-.673 1.391-.726.344-.189.342-.192.679-.392 2.659-1.663 2.572-1.795a3.58 3.58 0 0 1-.062.744c.17-.136.322-.283.456-.44l-.044.05-.038.043-.04.042-.014.015-.026.026c-.005.006-.01.011-.015.016l-.026.025a.22.22 0 0 1-.016.016l-.026.025-.017.016-.027.024-.017.015-.027.024-.017.015c-.009.009-.019.016-.028.024l-.017.015-.029.024-.017.014-.032.025-.051.04-.061.045-1.226.866-.071.049-.072.049-.072.049-.017.012-.056.038-.074.05-.02.014-.054.036-.022.015-.053.036-.025.016-.051.034c-.009.007-.018.013-.028.019l-.048.032-.031.021-.046.031-.03.02-.047.031-.031.02-.047.031-.035.023-.043.029-.037.024-.042.028-.039.025-.041.027-.041.027-.039.025-.041.027-.04.026-.044.028-.037.024-.043.028-.039.026-.044.028-.038.025-.047.03-.036.023-.046.03-.038.024-.046.029-.038.024-.048.031-.036.022-.049.031-.037.023-.048.03-.038.024-.049.031-.037.023-.05.031-.037.023-.051.031-.036.023-.052.032-.036.022-.052.033-.036.021-.053.033-.036.022-.054.033-.035.021-.055.034-.035.021-.055.033-.035.021-.056.034-.035.021-.057.034-.033.02-.058.035-.034.02-.057.034-.035.021-.057.033-.035.021-.058.034-.034.021-.06.035-.033.019-.06.035-.034.02-.06.035-.034.019-.059.035-.035.02-.059.034-.035.021-.061.034-.034.02-.061.035-.034.02-.061.034-.035.02-.061.035-.035.02-.062.034-.034.02-.063.035-.034.019-.062.034-.036.02-.062.034-.035.02-.064.035-.034.019-.065.035-.034.018-.065.035-.034.019-.064.035-.035.019-.064.034-.036.019-.064.034-.036.019-.065.035-.035.018-.066.035-.035.018-.066.035-.035.018-.066.034-.035.019-.066.034-.035.018-.067.035-.035.018-.067.034-.035.018-.067.034-.035.018-.067.034-.035.018-.067.033-.036.018-.067.034-.036.018-.067.033-.036.018-.067.033-.036.018-.067.032-.037.018-.067.033-.036.018-.068.032-.037.018-.068.032-.037.018-.068.032-.037.017-.068.032-.038.018-.067.031-.038.018-.068.031-.037.018-.068.031-.038.017-.068.031-.038.017-.068.031-.038.017-.069.031-.038.016-.069.031-.038.017-.069.03-.038.016-.069.031-.038.016-.069.03-.038.016-.069.03-.039.016-.069.029-.039.017-.069.029-.039.016-.069.029-.039.016-.068.028-.04.016-.069.028-.039.016-.069.028-.039.016-.069.027-.039.016-.069.027-.039.016-.069.026-.04.016-.069.027-.04.015-.069.026-.04.016-.069.026-.04.015-.069.025-.04.015-.069.026-.04.015-.069.025-.041.014-.069.025-.04.015-.069.024-.041.015-.069.024-.041.014-.069.023-.041.014-.069.024-.041.014-.069.023-.041.014-.069.022-.041.014-.069.022-.041.014-.069.022-.041.013-.069.022-.041.013-.069.021-.041.013-.069.021-.041.012-.068.021-.042.012-.068.02-.042.013-.068.02-.042.012-.068.019-.042.012-.068.019-.042.012-.068.018-.042.012-.068.018-.042.011-.068.018-.042.011-.068.018-.042.011-.068.017-.042.01-.068.017-.042.011-.068.016-.042.01-.067.016-.042.01-.067.015-.042.01-.067.015-.043.01-.067.014-.043.01-.067.014-.043.009-.067.014-.043.008-.067.014-.043.008-.066.013-.043.008-.067.013-.043.008-.066.012-.043.007-.066.012-.043.007-.066.012-.043.007-.066.01-.043.007-.066.01-.043.007-.065.01-.043.006-.065.009-.043.006-.066.009-.043.006-.065.008-.043.006-.065.007-.043.006-.065.007-.043.005-.064.007-.044.004-.064.006-.043.005-.064.006-.043.003-.064.006-.044.003-.064.005-.044.004-.064.004-.044.003-.063.004-.044.003-.063.003-.044.003-.063.003-.043.002-.063.002-.043.002-.063.002-.044.001-.062.001-.044.001-.062.001-.043.001h-.062-.043-.062-.044c-.021 0-.041 0-.062-.001h-.043c-.021 0-.041-.001-.062-.001l-.043-.001-.061-.002c-.014 0-.029-.001-.043-.001l-.061-.003c-.015 0-.029-.001-.043-.001l-.061-.003-.044-.002-.061-.004a.64.64 0 0 1-.044-.002l-.06-.004-.044-.003-.06-.004-.044-.004-.06-.005-.043-.003-.06-.006-.043-.004-.059-.006-.044-.004-.059-.007-.043-.005-.059-.007-.043-.006-.059-.007-.043-.006-.058-.008-.043-.007-.058-.008-.043-.007-.058-.01-.043-.007-.058-.01-.043-.007-.057-.011-.043-.008-.057-.011-.043-.008-.057-.012-.043-.009-.057-.012-.043-.01-.056-.013-.043-.009-.056-.014-.043-.01-.056-.014-.043-.011-.055-.015-.043-.011-.055-.015-.043-.012-.055-.016-.042-.012-.054-.016-.042-.013-.054-.017-.042-.014-.054-.017-.042-.014-.054-.018-.042-.015-.053-.018-.042-.015-.053-.019-.042-.016-.053-.02-.042-.016-.052-.021-.042-.016-.052-.021-.042-.017-.052-.022-.042-.018-.051-.022-.042-.019-.051-.022-.042-.019-.051-.024-.041-.019-.05-.024-.041-.021-.05-.024-.041-.021-.05-.025-.041-.022-.049-.026-.041-.021-.049-.027-.041-.022-.049-.028-.041-.023-.048-.028c-.014-.007-.027-.016-.041-.024l-.048-.028-.041-.024-.048-.029-.041-.025-.047-.03-.04-.026-.047-.03-.04-.026-.046-.031-.04-.027-.046-.032-.034-.023.196.093z"/><path d="M45.129 269.757zm.09-.112l-.026.033.026-.033zm.575-2.019zm-.092 1.081l-.007.023.007-.023zm-.387.806l-.02.028.02-.028zm.216-.369l-.012.026.012-.026zm.256-1.569l-.003-.02.003.02zm-.07 1.083l-.006.022.006-.022zm-1.192-.312l.054.191a3.6 3.6 0 0 1 .142.932l-.639.454-.643.448-1.302.875-2.665 1.651-.68.39-.342.191-.344.188-1.391.723-1.416.671-1.444.608a26.8 26.8 0 0 1-2.972.989 18.93 18.93 0 0 1-3.079.564 14.33 14.33 0 0 1-1.564.062c-.522-.009-1.044-.049-1.56-.126s-1.028-.189-1.527-.342a9.46 9.46 0 0 1-1.256-.483l-.199-.095-.052-.037-.04-.028-.045-.033-.04-.029-.045-.033-.04-.03-.045-.034-.039-.03-.044-.035-.039-.031-.044-.035-.039-.032-.044-.035-.039-.033-.043-.036-.039-.033-.021-.018.167.077.015.006.091.042.046.021.023.011.023.01.186.076.093.039.047.019.047.017.189.069.094.035.047.016.048.016.191.062.096.03.097.028a11.2 11.2 0 0 0 1.571.335 13.21 13.21 0 0 0 1.602.12 15.94 15.94 0 0 0 1.606-.06l1.593-.211 1.572-.334 1.547-.435 1.52-.521 2.957-1.258 2.848-1.488 2.735-1.685 1.321-.914.325-.236.162-.119.161-.121.637-.489-2.617 1.86-2.74 1.673-.35.196-.352.193-.353.19-.355.188-1.437.714-2.955 1.253-1.517.523-1.544.436c-1.038.259-2.093.452-3.159.55s-2.141.095-3.202-.048c-.53-.071-1.056-.177-1.57-.324a9.89 9.89 0 0 1-1.335-.486l-.167-.077-.022-.019-.039-.034-.042-.038-.038-.034-.042-.039-.038-.035-.041-.039-.038-.036-.041-.04-.038-.037-.041-.04-.038-.037-.04-.041-.038-.039-.04-.041-.037-.039-.04-.042-.037-.04-.039-.043-.037-.041-.039-.043-.014-.016h0c7.523 4.097 18.492-1.982 24.343-6.535zm.982.845l-.009.019.009-.019zm-.077.14l-.013.022.013-.022zm.027-.046l-.012.021.012-.021zm.025-.047l-.011.02a.86.86 0 0 0 .011-.02zm-.137.23l-.017.026.017-.026z"/></g><g class="I"><path d="M21.896 276.332l-.198-.095h0l.198.095z"/><path d="M42.149 271.264l-2.659 1.663-.679.392-.342.192-.344.189-1.391.726-1.417.673-1.445.611a27.09 27.09 0 0 1-2.978.987l-1.531.344-1.555.214a14.15 14.15 0 0 1-1.568.056c-.523-.011-1.046-.053-1.563-.132a10.38 10.38 0 0 1-1.528-.352l-.093-.031-.093-.031-.186-.063-.023-.008-.023-.009-.046-.017-.091-.035-.183-.071-.36-.155-.154-.075a9.46 9.46 0 0 0 1.256.483c.5.153 1.011.266 1.527.342a11.99 11.99 0 0 0 1.56.126c.522.009 1.045-.014 1.565-.062 1.04-.099 2.069-.295 3.079-.564a26.82 26.82 0 0 0 2.972-.989l1.444-.608 1.416-.671 1.391-.723.344-.188.342-.191.68-.39 2.665-1.651 1.302-.875.643-.448.639-.454-2.572 1.795zm-20.981 4.507l-.167-.077h0l.167.077z"/><path d="M24.073 276.582c1.061.142 2.137.144 3.202.047s2.121-.29 3.159-.55l1.544-.436 1.517-.523 2.955-1.252 1.437-.715.355-.187.353-.19.352-.193.35-.196 2.74-1.674 2.617-1.86-.637.489-.161.121-.162.119-.325.236-1.321.914-2.735 1.685-2.848 1.488-2.957 1.258-1.52.521-1.547.436-1.572.334-1.593.21-1.606.06a13.01 13.01 0 0 1-1.602-.12c-.531-.075-1.056-.185-1.571-.335l-.097-.027-.096-.031-.191-.062-.048-.016-.047-.016-.094-.035-.189-.069-.047-.017-.046-.019-.093-.039-.186-.076-.023-.01-.023-.01-.046-.021-.091-.042-.015-.007c.432.194.879.355 1.334.486.515.146 1.041.253 1.571.324z"/></g><g fill="#cbe5f1"><path d="M45.437 268.561l-.077-.28-.019-.07-.018-.071-.036-.141-.237-1.138c-.133-.764-.22-1.536-.278-2.309l-.096-2.324.029-2.326.11-2.324.163-2.321.179-2.321.075-1.161.039-1.163.039.019.034.018.032.017.03.017.028.017.027.017.025.016.023.017.021.016.019.016.018.016.016.016a.13.13 0 0 1 .014.016c.006.006.009.011.013.016l.012.017.012.022.009.018.009.019.016.041.008.022.007.024.015.056.006.026.006.028.011.065.004.031.004.033.008.073.003.035.003.037.005.083.002.038.001.042.002.09.001.043v.046.098.047l-.001.05-.005.156c-.057 1.537-.463 4.204-.651 7.06l-.005.084-.006.086c-.17 2.718-.132 5.59.595 7.812l.047.161.013.054.006.024.006.029.005.023.006.03.004.021.006.033h0l.008.052.003.02.005.031.003.023.003.029.003.026.003.026.002.028.002.02.001.022.003.051.002.051.001.051v.055l-.001.054-.003.054-.004.055-.005.055-.006.057-.008.063-.008.051-.006.032-.01.05-.004.02-.006.03-.005.02-.006.024-.006.027-.007.028h0l-.006.022-.008.028-.006.022-.008.027-.007.023-.009.027-.007.022-.006.019-.01.031-.007.02-.011.029-.008.022-.01.027-.01.024-.01.025-.01.024-.01.024-.011.024-.011.024-.011.024-.011.024a4.68 4.68 0 0 0-.104-.559z"/><path d="M45.128 269.757c.015-.202.013-.405-.006-.606s-.056-.402-.108-.597l-.08-.293-.075-.293-.068-.296-.062-.296c-.16-.793-.266-1.595-.338-2.401l-.025-.302-.022-.302-.019-.303-.017-.302-.041-1.212.018-2.425.11-2.424.17-2.42.186-2.42.076-1.211.03-1.213.023.009.046.017.05.019.048.019.047.018.007.003.037.015.043.019.041.018.039.018.033.016-.019.581-.032.581-.085 1.16-.191 2.32-.17 2.321-.114 2.325-.025 2.328.032 1.164.006.146.007.145.007.145.009.145.009.146.01.145.022.29.291 2.31.247 1.137.037.141.018.071.02.07.079.279a3.64 3.64 0 0 1 .105.572l-.017.034-.012.023-.013.025-.012.022-.014.025-.012.022-.014.025-.012.021-.015.026-.012.02-.016.027-.012.019-.018.027-.012.018-.019.028-.011.017-.02.029-.033.045-.034.046-.035.045-.037.046-.027.033z"/><path d="M44.659 270.213a3.61 3.61 0 0 0 .062-.744 3.6 3.6 0 0 0-.142-.932l-.053-.191c-1.166-4.265-.603-10.418-.269-14.573l.049-.623.122-1.904c.014-.358.019-.674.011-.944.018.006.02.006.021.007a1.04 1.04 0 0 1 .055.017l.058.018.056.018c.02.007.022.007.023.008.011.003.021.007.032.011s.016.005.023.007l.032.011c.01.003.018.006.027.009s.019.007.026.009.021.007.03.01l.022.008c.016.208.011.41.003.612l-.03.606-.086 1.21-.199 2.418-.176 2.421-.114 2.424c-.023.809-.03 1.619-.014 2.428s.054 1.618.13 2.424.186 1.609.351 2.401l.065.297.071.295.077.293.083.292c.108.389.151.797.126 1.2-.013.015-.013.016-.014.016a3.3 3.3 0 0 1-.456.441z"/></g><path d="M45.128 269.757a3.64 3.64 0 0 0-.126-1.2l-.082-.292-.077-.293-.071-.295-.065-.297c-.165-.792-.275-1.596-.351-2.401l-.13-2.425.014-2.427.114-2.424.176-2.421.199-2.418.086-1.21.03-.606.012-.607-.03 1.213-.076 1.211-.186 2.42-.169 2.42-.11 2.424-.018 2.425.041 1.212.017.302.019.303.022.302.025.302a21.78 21.78 0 0 0 .338 2.401l.063.296.068.296.075.293.08.293a3.54 3.54 0 0 1 .108.597c.019.202.02.404.006.606zm.302-1.194l-.079-.28-.02-.07-.019-.07-.037-.141-.247-1.138c-.138-.764-.229-1.536-.291-2.309l-.022-.291-.01-.145-.009-.145-.009-.145-.007-.146-.007-.145-.006-.145-.032-1.164.025-2.328.114-2.325.17-2.322.191-2.319.085-1.161.032-.581.019-.581-.039 1.163-.075 1.161-.179 2.321-.163 2.321-.11 2.324-.029 2.327.096 2.323.278 2.309.237 1.138.035.141.018.071.019.07.077.281c.048.188.081.379.098.573a3.51 3.51 0 0 0-.104-.572z" class="I"/><path d="M39.262 332.768c1.368.514 3.224 1.029 5.226 1.45s3.908.696 5.368.776c1.619.088 2.24-.098 2.279-.283l.878-4.179c.362-1.723-.194-3.537-1.454-4.764-.018.021-.04.039-.065.057l-.019.012c-.026.016-.055.032-.089.045-.041.016-.082.028-.126.039l-.033.008-.151.028c-.277.04-.662.047-1.143.02-.981-.053-2.261-.238-3.603-.52s-2.588-.628-3.508-.974c-.451-.169-.8-.33-1.038-.478l-.127-.086-.028-.021-.096-.083a.55.55 0 0 1-.067-.081.18.18 0 0 1-.013-.019c-.016-.026-.029-.052-.036-.077a5.19 5.19 0 0 0-3.249 3.775l-.878 4.178c-.039.186.454.606 1.972 1.177zm8.845 10.68c-1.469-.081-3.384-.357-5.395-.78s-3.875-.94-5.252-1.457c-.673-.253-1.194-.493-1.548-.713-.193-.12-.333-.233-.423-.339l-1.19 5.663c-.039.185.454.605 1.972 1.176 1.369.514 3.224 1.029 5.226 1.45s3.908.696 5.368.776c1.619.088 2.24-.097 2.279-.283l1.19-5.663c-.125.062-.298.108-.524.141-.413.058-.986.068-1.703.029z" class="E"/><g class="J"><path d="M34.661 346.452c.354.22.875.46 1.548.713 1.377.517 3.242 1.035 5.252 1.457s3.926.699 5.395.78c.718.039 1.291.029 1.704-.03.469-.066.717-.196.759-.395l1.251-5.954c-.022.104-.1.188-.236.255l-1.19 5.663c-.039.185-.659.371-2.279.283-1.46-.08-3.366-.356-5.368-.776s-3.857-.936-5.226-1.45c-1.518-.571-2.011-.991-1.972-1.177l1.19-5.663c-.097-.115-.135-.224-.114-.327l1.739-8.277.087.019.087.018.878-4.179c.362-1.723 1.601-3.159 3.248-3.776-.01-.035-.012-.072-.005-.108l.018-.085a5.38 5.38 0 0 0-2.187 1.465c-.624.695-1.056 1.548-1.249 2.468l-3.868 18.408c-.042.2.133.418.536.668z"/><path d="M51.557 325.769a5.19 5.19 0 0 1 1.455 4.763l-.878 4.179.087.018.087.018-1.678 7.985 2.556-12.163a5.34 5.34 0 0 0-.151-2.762 5.37 5.37 0 0 0-1.412-2.222l-.018.086c-.007.036-.023.068-.048.098zm-9.928-1.871l.029.022-.029-.022z"/><path d="M51.494 325.825l-.02.013c.007-.004.014-.009.02-.013zm-.269.105l.034-.008c-.011.002-.022.005-.034.008z"/></g><path d="M46.588 324.226c-2.242-.471-4.111-1.088-4.814-1.551l-.187.89c-.01.048.064.153.321.307a5.61 5.61 0 0 0 .786.371l.191.073c.911.343 2.148.686 3.482.966s2.604.465 3.577.518l.71.012.256-.015c.377-.034.512-.11.523-.163l.187-.89c-.83.141-2.789-.046-5.032-.518z" class="E"/><path d="M41.417 323.638c.007.026.02.051.036.077.004.007.008.013.013.02.017.025.038.05.063.076.031.031.064.059.099.087l.028.021.127.086c.238.148.587.309 1.038.478.92.346 2.166.692 3.508.974s2.622.467 3.603.521c.481.026.865.019 1.142-.02l.151-.028.033-.008a1 1 0 0 0 .121-.038c.039-.015.067-.03.094-.046l.019-.013c.025-.017.047-.036.064-.056.025-.03.041-.062.049-.098l.018-.085.186-.887c-.055.017-.119.032-.192.044l-.187.891c-.011.053-.146.129-.523.163l-.256.015c-.191.006-.426.003-.71-.013-.972-.053-2.242-.236-3.577-.517s-2.571-.623-3.482-.966l-.191-.073c-.362-.144-.614-.269-.786-.372-.257-.154-.331-.258-.321-.306l.187-.891a1.34 1.34 0 0 1-.157-.118l-.186.887-.018.085c-.007.037-.006.073.005.11z" class="J"/><path d="M50.395 342.987l1.678-7.984c-.125.061-.299.107-.523.139-.413.059-.986.069-1.704.03-1.469-.081-3.384-.357-5.395-.78s-3.875-.94-5.252-1.457c-.673-.253-1.194-.493-1.548-.713a1.81 1.81 0 0 1-.423-.338l-1.678 7.984c-.039.186.454.605 1.972 1.176 1.368.515 3.224 1.029 5.226 1.45s3.908.696 5.368.776c1.619.088 2.24-.097 2.279-.283zm-3.386-3.4c-.059.28-.333.459-.612.4l-2.075-.436-.436 2.075c-.059.28-.333.459-.612.4l-.816-.172c-.279-.058-.458-.332-.4-.612l.436-2.075-2.075-.436c-.279-.059-.458-.333-.4-.612l.171-.816c.059-.279.333-.458.612-.399l2.075.436.436-2.076c.059-.279.333-.458.612-.399l.816.171c.279.059.458.333.4.612l-.436 2.076 2.076.436c.279.058.458.332.399.612l-.171.815z" class="B"/><path d="M52.222 334.729l-.087-.018c-.039.185-.659.371-2.279.283-1.46-.08-3.366-.356-5.368-.776s-3.857-.936-5.226-1.45c-1.518-.571-2.011-.991-1.972-1.177l-.087-.018-.087-.018-1.739 8.276c-.022.104.017.212.114.328.09.107.229.219.423.339.354.22.875.46 1.548.713 1.377.518 3.242 1.035 5.252 1.458s3.926.699 5.395.779c.718.039 1.291.029 1.704-.029.225-.032.398-.079.524-.141.135-.067.214-.151.236-.254l.061-.292 1.678-7.985-.088-.018zm-4.105 8.541c-1.46-.08-3.366-.356-5.368-.776s-3.857-.936-5.226-1.45c-1.518-.571-2.011-.99-1.972-1.176l1.678-7.984a1.81 1.81 0 0 0 .423.338c.354.22.875.46 1.548.712 1.377.518 3.242 1.036 5.252 1.458s3.926.699 5.395.78c.718.039 1.291.029 1.704-.03.224-.032.398-.078.523-.139l-1.678 7.984c-.039.186-.659.371-2.279.283z" class="J"/><path d="M46.781 338.159l-2.075-.436.436-2.075c.059-.28-.12-.554-.4-.612l-.816-.172a.52.52 0 0 0-.612.4l-.436 2.075-2.075-.436c-.279-.058-.554.12-.612.4l-.171.815a.52.52 0 0 0 .4.613l2.075.436-.436 2.075c-.059.279.12.554.4.612l.816.172a.52.52 0 0 0 .612-.4l.436-2.075 2.075.436c.279.058.554-.12.612-.4l.171-.815a.52.52 0 0 0-.4-.613z" fill="#ff245e"/><path d="M46.766 323.374c2.917.613 5.358.746 5.452.298l-.058.276.081-.388c-.094.449-2.535.315-5.452-.298s-5.205-1.473-5.111-1.921l.107-.507-.188.895.058-.276c-.094.447 2.194 1.308 5.111 1.921z" fill="#ccc"/><g class="B"><path d="M41.774 322.675c.703.463 2.572 1.08 4.814 1.551s4.201.659 5.031.517a1.29 1.29 0 0 0 .192-.045c.134-.042.213-.1.229-.173l.121-.577.058-.276c-.094.448-2.535.315-5.452-.298s-5.205-1.474-5.11-1.922l-.058.276-.121.577c-.015.074.034.158.139.251a1.42 1.42 0 0 0 .157.119z"/><path d="M46.79 323.262c2.916.613 5.357.746 5.452.298l1.139-5.421c-.094.448-2.535.315-5.452-.298s-5.205-1.473-5.111-1.921l-1.032 4.913-.107.508c-.094.448 2.194 1.308 5.111 1.921zm5.273-1.086l.236-1.152.248-1.15.128-.574.134-.573-.108.578-.113.577-.207 1.01.217-1.008.128-.574.134-.573-.108.579-.114.577-.236 1.152-.248 1.15-.128.574-.134.572.108-.578.114-.577.206-1.008-.217 1.006-.128.574-.134.573.108-.578.113-.577zm-1.145.036l.236-1.152.248-1.15.128-.574.134-.573-.108.578-.114.577-.207 1.011.217-1.008.128-.574.134-.573-.108.578-.114.577-.236 1.152-.248 1.15-.128.574-.134.573.108-.578.113-.577.206-1.008-.217 1.005-.128.574-.134.573.108-.578.114-.577zm-.891-1.204l.248-1.15.128-.574.134-.573-.108.578-.114.577-.207 1.011.218-1.008.128-.574.134-.573-.108.578-.114.577-.236 1.152-.248 1.15-.128.574-.134.573.108-.578.114-.577.206-1.009-.217 1.007-.128.574-.134.572.108-.578.113-.577.235-1.152zm-1.108-.141l.248-1.15.128-.574.134-.572-.108.578-.114.577-.207 1.01.218-1.008.128-.574.134-.573-.108.578-.114.577-.236 1.152-.248 1.15-.128.574-.134.573.108-.578.114-.577.206-1.009-.217 1.007-.128.574-.134.572.108-.578.114-.577.235-1.152zm-1.099-.184l.248-1.15.128-.574.134-.573-.108.578-.114.577-.207 1.01.217-1.008.128-.574.134-.573-.108.578-.114.578-.236 1.152-.248 1.15-.128.574-.134.572.108-.578.113-.577.206-1.008-.217 1.006-.128.574-.134.573.108-.578.114-.577.236-1.152zm-1.09-.229l.248-1.15.128-.574.134-.573-.108.578-.114.577-.207 1.01.217-1.008.128-.574.134-.573-.108.579-.114.577-.236 1.152-.248 1.15-.128.574-.134.572.108-.578.114-.577.206-1.008-.217 1.006-.128.574-.134.573.108-.578.113-.577.236-1.152zm-1.08-.273l.248-1.15.128-.574.134-.573-.108.578-.114.577-.207 1.011.218-1.009.128-.574.134-.573-.108.579-.113.577-.236 1.152-.248 1.15-.128.574-.134.572.108-.578.114-.577.206-1.008-.217 1.006-.128.574-.134.573.108-.578.114-.577.235-1.152zm-1.071-.318l.248-1.149.128-.574.134-.573-.108.578-.113.577-.207 1.009.217-1.007.128-.574.134-.573-.108.578-.114.577-.236 1.152-.248 1.15-.128.574-.134.573.108-.578.114-.577.206-1.008-.217 1.005-.128.574-.134.573.108-.578.114-.577.236-1.152zm-1.052-.406l.248-1.149.128-.574.134-.573-.108.578-.114.577-.207 1.01.217-1.008.128-.574.134-.573-.108.578-.114.578-.236 1.152-.248 1.15-.128.574-.134.572.108-.578.114-.577.206-1.008-.217 1.006-.128.574-.134.573.108-.578.114-.577.236-1.153zm-1.27.659l.236-1.152.248-1.15.128-.574.134-.573-.108.578-.114.577-.207 1.011.218-1.008.128-.574.134-.573-.108.578-.113.577-.236 1.152-.248 1.15-.128.574-.134.573.108-.578.114-.577.206-1.009-.217 1.006-.128.574-.134.573.108-.578.113-.577z"/></g><g fill="#b3b3b3"><path d="M42.036 321.271l.134-.573.128-.574.217-1.006.029-.144.03-.141.207-1.011.114-.577.108-.578-.134.573-.128.574-.248 1.149-.236 1.152-.114.578-.108.578zm1.142-.084l-.108.578.134-.573.128-.574.217-1.006.03-.144.031-.142.207-1.01.114-.577.108-.578-.134.573-.128.574-.248 1.149-.236 1.153-.114.577zm1.052.405l-.108.579.134-.573.128-.574.217-1.006.03-.144.03-.142.207-1.01.113-.577.108-.578-.134.573-.128.574-.248 1.15-.236 1.152-.114.576z"/><use xlink:href="#C"/><path d="M46.382 322.183l-.108.578.134-.573.128-.574.217-1.006.03-.144.031-.142.207-1.01.114-.577.108-.578-.134.573-.128.574-.248 1.149-.236 1.153-.113.577zm5.46 1.148l.134-.573.128-.574.217-1.005.03-.145.031-.142.207-1.01.113-.576.108-.578-.134.572-.128.574-.248 1.15-.236 1.152-.114.577-.108.578zm-1.146.036l.134-.573.128-.574.217-1.005.03-.144.031-.142.207-1.011.114-.577.108-.578-.134.573-.128.574-.248 1.15-.236 1.152-.114.577-.108.578z"/><use xlink:href="#C" x="4.377" y="0.827"/><path d="M48.57 322.596l-.108.578.134-.572.128-.574.217-1.007.029-.143.031-.142.207-1.01.114-.577.108-.578-.134.572-.128.574-.248 1.15-.236 1.152-.113.577zm-1.099-.184l-.108.578.134-.573.128-.574.217-1.006.03-.144.031-.142.207-1.01.114-.577.108-.578-.134.573-.128.574-.248 1.15-.236 1.152-.114.577z"/></g><path d="M47.929 317.841c2.917.613 5.357.747 5.452.298s-2.194-1.308-5.111-1.921-5.357-.746-5.452-.298 2.194 1.308 5.111 1.921zm.315-1.497c2.596.546 4.636 1.295 4.557 1.674s-2.249.243-4.845-.302-4.636-1.295-4.557-1.674 2.249-.243 4.845.302z" fill="#ccc"/><path d="M47.955 317.716c2.596.545 4.765.68 4.845.302s-1.961-1.128-4.557-1.674-4.765-.68-4.845-.302 1.96 1.128 4.557 1.674z" class="B"/><path d="M42.515 319.118l-.206 1.008-.114.577-.108.578.134-.573.128-.574.248-1.149.236-1.153.114-.577.108-.578-.134.573-.128.574-.218 1.009-.03.141-.029.144zm1.034.494l-.206 1.008-.113.577-.108.578.134-.572.128-.574.248-1.15.236-1.152.113-.578.108-.578-.134.573-.128.574-.217 1.008-.031.142-.03.144zm1.052.406l-.206 1.008-.114.577-.108.578.134-.572.128-.575.248-1.149.236-1.152.114-.578.108-.578-.134.573-.128.574-.217 1.008-.031.142-.03.144zm1.071.317l-.206 1.008-.113.577-.108.578.134-.572.128-.574.248-1.15.236-1.152.114-.577.108-.579-.134.573-.128.574-.217 1.009-.031.141-.029.144zm1.08.274l-.206 1.008-.114.577-.108.578.134-.573.128-.574.248-1.15.236-1.152.114-.577.108-.578-.134.573-.128.574-.217 1.008-.031.142-.03.144zm5.568.57l-.206 1.008-.114.576-.108.579.134-.573.128-.574.248-1.15.236-1.152.114-.577.108-.578-.134.573-.128.574-.217 1.007-.031.142-.03.145zm-1.145.036l-.206 1.008-.113.577-.108.578.134-.573.128-.574.248-1.15.236-1.152.114-.577.108-.578-.134.573-.128.574-.217 1.008-.031.142-.03.144zm-1.126-.053l-.206 1.009-.113.577-.108.578.134-.573.128-.574.248-1.15.236-1.152.114-.577.108-.578-.134.573-.128.574-.218 1.008-.03.141-.029.144zm-1.108-.14l-.206 1.008-.113.577-.108.578.134-.573.128-.574.248-1.149.236-1.153.114-.576.108-.578-.134.572-.128.574-.218 1.009-.03.141-.029.144zm-1.099-.184l-.206 1.008-.114.577-.108.578.134-.573.128-.574.248-1.15.236-1.152.114-.577.108-.578-.134.573-.128.574-.217 1.007-.031.142-.03.145z" fill="#b3b3b3"/><path d="M300.511 391.599l.02-.02c.007-.006.014-.013.02-.02s.014-.013.021-.02l.02-.02c.007-.006.014-.013.021-.02l.02-.02c.007-.006.014-.013.02-.019l.021-.021c.007-.006.013-.013.02-.02l.021-.019.02-.02.021-.02.02-.02.021-.02.02-.02.021-.02c.006-.007.013-.014.02-.02l.02-.02.021-.02.02-.02.021-.02.02-.02.021-.02c.006-.007.013-.013.02-.02l.021-.02c.006-.007.013-.013.02-.02l.02-.02.021-.02c.006-.007.013-.013.02-.02l.02-.02c.007-.006.014-.013.021-.02s.014-.013.021-.02l.02-.02a.37.37 0 0 0 .02-.019l.021-.021c.007-.006.013-.013.02-.019l.021-.02.02-.02.021-.02c.006-.007.013-.014.02-.02l.02-.02.021-.02.02-.021.021-.019.02-.02.021-.02c.006-.007.013-.014.02-.02l.02-.02.021-.02.02-.02.021-.02.02-.02.02-.02c.007-.006.014-.013.021-.02l.02-.02.021-.02c.007-.006.014-.013.02-.02s.014-.013.021-.02.014-.013.02-.02l.021-.019c.006-.007.013-.014.02-.02l.021-.021.02-.019.02-.02.021-.02c.006-.007.014-.014.02-.02l.021-.02c.006-.007.013-.014.02-.02l.021-.02c.006-.007.013-.014.02-.02l.02-.02.021-.02.02-.02.02-.02.021-.02c.006-.007.014-.013.02-.02l.021-.02c.007-.006.014-.013.02-.02s.014-.013.021-.02l.02-.02c.007-.006.014-.013.021-.02l.02-.02c.007-.006.014-.013.02-.02l.021-.019.02-.02.021-.02.02-.02.021-.02.02-.02.021-.02.02-.02.021-.02.02-.02.021-.02c.006-.007.013-.013.02-.02l.021-.02c.006-.007.013-.014.02-.02l.021-.02c.006-.007.013-.013.02-.02l.021-.02a5.47 5.47 0 0 0 1.627-3.901v-16.648a5.49 5.49 0 0 0-5.489-5.489h-10.009v.593h.19c.262 0 .475.213.475.475s-.213.474-.475.474h-1.804c-.262 0-.475-.212-.475-.474s.213-.475.475-.475h.19v-.593h-9.446v.593h.19c.262 0 .474.213.474.475s-.212.474-.474.474H276.2c-.262 0-.475-.212-.475-.474s.213-.475.475-.475h.19v-.593h-5.927a5.47 5.47 0 0 0-3.882 1.608l-.02.02c-.007.006-.014.013-.021.02l-.02.02c-.007.006-.014.013-.02.02l-.021.019-.02.021-.021.019-.02.02-.02.02-.021.02c-.006.007-.014.013-.02.02l-.021.02c-.006.007-.013.013-.02.02l-.02.02c-.007.006-.014.013-.021.02l-.02.02c-.007.006-.014.013-.02.02s-.014.013-.021.02-.014.013-.02.02-.014.013-.021.02-.014.013-.02.019l-.021.02-.02.02-.02.02-.021.02-.02.02-.021.02c-.006.007-.013.013-.02.02s-.014.013-.02.02l-.021.02-.02.02c-.007.006-.014.013-.02.02s-.014.013-.021.02-.014.013-.02.019l-.021.02c-.006.007-.014.014-.02.02l-.021.02c-.006.007-.014.013-.02.02l-.021.02c-.006.007-.013.013-.02.02l-.02.02c-.007.006-.014.013-.021.02l-.02.02-.021.02-.02.02-.021.02-.02.02-.021.02-.02.02-.021.02-.02.02-.021.02-.02.02-.021.02-.02.02c-.007.006-.014.013-.021.02s-.013.013-.02.02-.014.013-.02.02-.014.013-.021.02-.013.013-.02.02l-.021.019c-.006.007-.013.014-.02.02l-.021.02c-.006.007-.013.014-.02.02l-.021.021-.02.019-.021.021-.02.019-.021.021-.02.02-.021.019-.02.02-.021.02c-.006.007-.013.014-.02.02l-.021.02-.02.02-.021.02c-.006.007-.013.014-.02.02l-.021.02-.02.02-.02.02-.021.02-.02.02c-.007.006-.014.013-.021.02s-.013.013-.02.02-.014.013-.021.02l-.02.02c-.007.006-.014.013-.021.02l-.02.02c-.007.006-.014.013-.021.02l-.02.02c-.007.006-.014.013-.021.02l-.02.02c-.007.006-.014.013-.021.02l-.02.019-.02.02c.984-.938 2.317-1.514 3.785-1.514h28.23a5.49 5.49 0 0 1 5.489 5.49v16.648a5.49 5.49 0 0 1-5.489 5.489h-28.23a5.49 5.49 0 0 1-5.489-5.489v-16.648a5.47 5.47 0 0 1 1.418-3.683 5.47 5.47 0 0 0-1.424 3.689v16.648a5.49 5.49 0 0 0 5.489 5.489h28.23a5.47 5.47 0 0 0 3.883-1.608z" class="C"/><path d="M262.916 387.712a5.49 5.49 0 0 0 5.489 5.489h28.23a5.49 5.49 0 0 0 5.489-5.489v-16.648a5.49 5.49 0 0 0-5.489-5.489h-28.23a5.47 5.47 0 0 0-3.785 1.514l-.162.161-.017.017-.047.05-.051.054c-.89.985-1.427 2.276-1.427 3.693v16.648zm11.499-9.269c0-.648.525-1.174 1.173-1.174h4.813v-4.813c0-.648.525-1.173 1.173-1.173h1.892c.648 0 1.173.525 1.173 1.173v4.813h4.813c.648 0 1.173.526 1.173 1.174v1.891c0 .648-.525 1.173-1.173 1.173h-4.813v4.813c0 .648-.525 1.173-1.173 1.173h-1.892c-.648 0-1.173-.525-1.173-1.173v-4.813h-4.813c-.648 0-1.173-.525-1.173-1.173v-1.891z" fill="#f9f9f9"/><path d="M275.588 381.507h4.813v4.813c0 .648.525 1.173 1.173 1.173h1.891c.648 0 1.174-.525 1.174-1.173v-4.813h4.812c.648 0 1.174-.525 1.174-1.173v-1.891c0-.648-.526-1.174-1.174-1.174h-4.812v-4.813c0-.648-.526-1.173-1.174-1.173h-1.891c-.648 0-1.173.525-1.173 1.173v4.813h-4.813c-.648 0-1.173.526-1.173 1.174v1.891c0 .648.525 1.173 1.173 1.173z" fill="#ed1c24"/><path d="M277.815 364.157v-.594-2.871c0-1.178 1.236-2.136 2.757-2.136h3.932c1.52 0 2.757.958 2.757 2.136v2.871.594h1.424v-.594-2.871c0-1.963-1.876-3.56-4.181-3.56h-3.932c-2.306 0-4.181 1.597-4.181 3.56v2.871.594h1.424z" fill="#000"/><g fill="#333"><use xlink:href="#D"/><use xlink:href="#D" x="10.87"/></g><g class="B"><path d="M25.862 164.52l1.026-1.528c.025-.037.012-.096-.029-.167l.984-1.466c.045-.067-.051-.215-.228-.378l-1.155 1.721c.149.527-.299 1.347-.598 1.818zm-3.275 1.64l1.533-2.283a.27.27 0 0 0 .015-.024c-.411-.178-.73-.226-.817-.096l-1.43 2.13c.2.052.439.145.698.273z"/><path d="M24.084 167.165a3.79 3.79 0 0 1 .518.544l1.43-2.13c.087-.13-.077-.407-.399-.72l.005-.008-.022.031-1.533 2.283zm1.735-4.892l1.156-1.722c-.218-.102-.391-.134-.436-.067l-.984 1.466c-.082-.012-.14-.001-.165.036l-1.039 1.548c.32-.452.919-1.195 1.469-1.261z"/></g><path d="M28.059 159.78l3.895-5.802.076-.266-.217.171-3.892 5.797c.041-.011.076-.011.099.005s.034.049.038.095z" fill="gray"/><path d="M22.587 166.16a6.96 6.96 0 0 1 .781.455 7.04 7.04 0 0 1 .716.55l1.533-2.283.022-.031.223-.331c.299-.471.747-1.292.598-1.818l1.155-1.721.246-.367c.037-.055.219-.601.198-.833-.004-.047-.016-.08-.039-.095s-.058-.017-.099-.005c-.226.059-.663.448-.7.503l-.246.367-1.156 1.723c-.549.066-1.148.808-1.468 1.26l-.215.319-.015.024-1.533 2.283z" fill="#4fbe24"/><g class="B"><path d="M24.097 168.462l-.345.514c.177.236.247.431.173.542l-.055.082.4-.596c.074-.111.004-.306-.173-.542zM9.236 184.735l1.894-2.822-.37-.248.085-.127.37.249.333-.496-.37-.249.061-.091.37.249.345-.514-.37-.249.061-.091.37.249.345-.514-.37-.249.061-.091.37.249.345-.514-.37-.248.061-.091.37.248.333-.496-.37-.248.085-.127.37.248.333-.496-.37-.248.061-.091.37.248.345-.513-.37-.249.061-.091.37.248.345-.513-.37-.249.061-.091.37.248.345-.514-.37-.248.061-.091.37.248.333-.496-.37-.248.085-.127.37.249.333-.496-.37-.249.061-.091.37.248.345-.514-.37-.248.061-.091.37.248.345-.514-.37-.248.061-.091.37.248.345-.513-.37-.249.061-.091.37.249.333-.496-.37-.249.085-.126.37.248.333-.496-.37-.248.061-.091.37.248.345-.514-.37-.248.061-.091.37.248.345-.514-.37-.248.061-.091.37.248.345-.514-.37-.248.061-.091.37.248.333-.496-.37-.248.085-.127.37.249.333-.496-.37-.249.061-.091.37.248.345-.513-.086-.058c-.23-.045-.395-.026-.46.07L8.624 184.845l-.604.524.758.509.458-1.143zm14.506-14.944c.074-.111.004-.306-.173-.542l-.345.514c.177.236.247.431.173.542l-.182.271-.231.344c.074-.111.004-.306-.173-.542L11.95 186.556l-.886.857.758.509.214-.694 11.706-17.437zm-3.225-2.661l.061-.091.102.069a1.14 1.14 0 0 1 .358.046l.243-.362-.291-.196c-.081.01-.14.04-.174.089l-.345.514c.016-.023.039-.041.066-.055l-.02-.014z"/><path d="M20.372 167.911l-.261-.176.061-.091.37.249.313-.466c-.285-.074-.493-.065-.567.045l-.395.589.05-.075c.062-.092.216-.113.43-.075zm1.011-1.271l-.085-.02.068.045.017-.025z"/></g><g fill="#4d4d4d"><path d="M21.592 167.72l.036.024-.061.091-.522-.351-.19-.057-.313.465.158.106c.366.126.823.358 1.29.671.551.37.993.77 1.235 1.093l.345-.513c-.242-.323-.684-.724-1.235-1.093a7.03 7.03 0 0 0-.742-.436z"/><path d="M22.517 167.883c.551.37.993.77 1.235 1.093l.345-.514c-.242-.323-.684-.723-1.235-1.093s-1.089-.627-1.479-.729l-.017.025 1.268.851-.085.126-1.268-.851-.243.362c.391.102.928.36 1.48.73z"/></g><g fill="#1a1a1a"><path d="M20.989 166.596l-.078-.053.085-.126.302.202.085.021c.39.101.928.359 1.479.729s.993.77 1.235 1.093c.177.236.247.431.173.542l.183-.273-.003.004c.176-.263-.454-.995-1.408-1.635s-1.87-.946-2.046-.683l.003-.005-.184.273c.033-.049.093-.079.174-.089zm-.134.831l.19.058-.508-.341c-.027.014-.05.032-.066.055l-.184.273c.075-.111.282-.119.567-.045z"/><path d="M23.752 168.976c-.242-.323-.684-.723-1.235-1.093s-1.089-.628-1.479-.729a1.14 1.14 0 0 0-.358-.046l.912.612c.236.119.487.265.742.436.551.37.993.77 1.235 1.093.177.236.247.431.173.542l.129-.191.055-.082c.074-.111.004-.306-.173-.542z"/><path d="M19.761 168.257l.006-.008.001.001c.079-.103.282-.11.56-.038h0 .001c.391.102.928.359 1.478.729s.992.77 1.234 1.092l.001.001h0c.177.236.247.432.173.542l.182-.271c.074-.111.004-.306-.173-.542-.242-.323-.684-.724-1.235-1.093-.466-.314-.923-.546-1.29-.672l.522.351-.061.091-.789-.53c-.214-.037-.368-.016-.43.076l-.05.074-.133.199.001-.001.001-.001z"/></g><g class="K"><path d="M19.989 168.531l-.284-.191.056-.083-.001.001-.001.001-.23.342c.065-.096.23-.115.46-.07z"/><path d="M20.136 168.497l.191-.285c-.278-.072-.48-.065-.56.038l.368.247z"/><path d="M21.597 169.064l.176.118 1.268.851c-.242-.322-.683-.722-1.234-1.092s-1.088-.627-1.478-.729l1.268.852z"/><path d="M23.042 170.034l-.231.344c.177.236.247.431.173.542l.231-.343c.074-.111.004-.307-.173-.543zm.001-2.934c.954.641 1.584 1.373 1.408 1.635l.003-.004.275-.41.047-.07c.074-.111.004-.306-.173-.542a3.79 3.79 0 0 0-.518-.544 7.05 7.05 0 0 0-.716-.55 6.95 6.95 0 0 0-.781-.455 3.8 3.8 0 0 0-.699-.273c-.285-.074-.493-.066-.567.045l-.322.48-.003.005c.176-.263 1.093.043 2.047.683z"/></g><path d="M9.55 187.009l-.964-.647-.479 1.198L6.2 190.4l.74.497 2.61-3.888zm-2.434 4.006l.74.497 1.906-2.84.928-.897-.965-.648-2.61 3.888zm14.481-21.951l-1.268-.851v-.001h0l-.191.285.68.457-.061.091-.68-.457-.345.514.68.457-.061.091-.68-.457-.333.496 1.268.851-.085.127-1.268-.851-.333.496.68.456-.061.092-.68-.457-.345.514.68.456-.061.091-.68-.456-.345.514.68.456-.061.091-.68-.456-.345.514.68.456-.061.091-.68-.456-.333.496 1.268.851-.085.127-1.268-.852-.333.496.68.457-.061.091-.68-.456-.345.513.68.457-.061.091-.68-.457-.345.514.68.457-.061.091-.68-.457-.345.514.68.456-.061.091-.68-.456-.333.496 1.268.851-.085.127-1.268-.851-.333.496.68.456-.061.091-.68-.456-.345.513.68.457-.061.091-.68-.456-.345.513.68.457-.061.091-.68-.456-.345.513.68.457-.061.091-.68-.457-.333.496 1.268.851-.085.127-1.268-.851-.333.496.68.456-.061.092-.68-.457-.345.514.68.456-.061.092-.68-.457-.345.514.68.456-.061.091-.68-.456-.345.514.68.456-.061.091-.68-.456-.333.496 1.268.851-.085.127-1.268-.852-1.894 2.822-.458 1.144 1.055.708 11.763-17.523zm1.445.97h0-.001l-1.268-.852-11.763 17.523 1.055.708.886-.856 10.861-16.179.231-.344z" fill="#abd3dd"/><path d="M9.559 187.016l-2.61 3.888.176.118 2.61-3.888-.176-.118zm12.214-17.834l-.176-.118-11.763 17.523.176.118 11.763-17.523z" class="B"/><path d="M6.94 190.897l-.74-.497-.632-.425c-.116-.078-.274-.047-.352.07s-.047.274.069.352l2.921 1.961c.117.078.274.047.352-.07s.047-.274-.069-.352l-.632-.424-.74-.497-.176-.118zm3.07-4.192l-.176-.118-1.055-.708-.758-.509-.79-.53c-.116-.078-.274-.047-.352.069s-.047.274.069.352l1.638 1.1.964.648.176.118.965.648 1.638 1.1c.117.078.274.047.352-.07s.047-.274-.069-.352l-.79-.531-.758-.509-1.054-.708z" class="K"/><g fill="#000"><path d="M22.634 167.516l-1.268-.851-.068-.045-.302-.203-.085.126.078.053.292.196 1.268.851.085-.127zm-2.03 3.024l-1.268-.851-.37-.248-.085.127.37.248 1.268.851.085-.127zm1.024-2.796l-.036-.024-.912-.612-.102-.069-.061.091.02.014.508.341.522.35.061-.091zm-1.456-.1l-.061.091.261.176.789.529.061-.091-.523-.351-.157-.106-.37-.248zm.644 1.31l-.68-.457-.369-.247-.001-.001-.005.008-.056.083.284.191.086.058.68.456.061-.091z"/><use xlink:href="#E"/><path d="M18.574 173.565l-1.268-.851-.37-.249-.085.127.37.248 1.268.852.085-.127zm1.024-2.797l-.68-.456-.37-.248-.061.091.37.248.68.457.061-.092zm-.406.605l-.68-.456-.37-.249-.061.092.37.248.68.456.061-.091z"/><use xlink:href="#F"/><use xlink:href="#F" x="-0.406" y="0.605"/><path d="M16.543 176.589l-1.268-.851-.37-.248-.085.126.37.249 1.268.851.085-.127zm1.025-2.796l-.68-.457-.37-.248-.061.091.37.249.68.456.061-.091z"/><use xlink:href="#E" x="-3.248" y="4.839"/><use xlink:href="#E" x="-3.654" y="5.444"/><path d="M16.349 175.607l-.68-.456-.37-.248-.061.091.37.248.68.456.061-.091zm-1.836 4.006l-1.268-.851-.37-.248-.085.127.37.248 1.268.851.085-.127zm1.024-2.796l-.68-.456-.37-.249-.061.092.37.248.68.456.061-.091z"/><use xlink:href="#F" x="-3.655" y="5.444"/><path d="M14.725 178.027l-.68-.457-.37-.248-.061.091.37.249.68.456.061-.091z"/><use xlink:href="#E" x="-6.091" y="9.073"/><path d="M12.483 182.638l-1.268-.851-.37-.249-.085.127.37.248 1.268.852.085-.127zm1.024-2.797l-.68-.456-.37-.248-.061.091.37.248.68.457.061-.092zm-.406.605l-.68-.456-.37-.249-.061.092.37.248.68.457.061-.092zm-.406.605l-.68-.456-.37-.248-.061.091.37.248.68.456.061-.091z"/><use xlink:href="#F" x="-6.497" y="9.678"/></g><path d="M82.509 133.729a4.52 4.52 0 0 0-5.685 2.914 4.52 4.52 0 0 0 2.914 5.685l10.356 3.338 2.771-8.599-10.356-3.338z" class="K"/><path d="M106.136 146.089c.766-2.374-.539-4.92-2.914-5.685l-10.356-3.338-2.771 8.6 10.356 3.337c2.375.766 4.92-.539 5.685-2.914z" class="D"/><path d="M106.136 146.089c-.765 2.375-3.31 3.68-5.685 2.914l-20.713-6.675c-1.187-.383-2.107-1.21-2.635-2.239a4.59 4.59 0 0 1-.195-.435c.545.766 1.332 1.37 2.296 1.68l20.713 6.676a4.52 4.52 0 0 0 5.685-2.914v-.001c.33-1.024.275-2.079-.085-3.011.126.179.239.365.339.559.527 1.029.662 2.259.279 3.446z" class="C"/><path d="M348.567 324.894a7.3 7.3 0 0 0 3.95-9.536 7.3 7.3 0 0 0-9.536-3.95 7.3 7.3 0 0 0-3.949 9.536 7.3 7.3 0 0 0 9.535 3.95z" class="B"/><path d="M353.059 317.978h-14.597v.344h14.597v-.344z" fill="#dbdbdb"/><path d="M353.059 318.15a7.3 7.3 0 0 1-13.889 3.14 7.29 7.29 0 0 0 5.879 2.973 7.3 7.3 0 0 0 7.298-7.299 7.27 7.27 0 0 0-.708-3.14 7.27 7.27 0 0 1 1.42 4.326z" class="C"/><defs ><path id="C" d="M45.301 321.91l-.108.578.134-.573.128-.574.217-1.006.029-.144.031-.141.207-1.011.114-.577.108-.578-.134.573-.128.574-.248 1.15-.236 1.152-.113.577z"/><path id="D" d="M276.201 364.157c-.262 0-.475.212-.475.475s.213.474.475.474h1.804c.262 0 .474-.212.474-.474s-.212-.475-.474-.475h-.19-1.424-.19z"/><path id="E" d="M20.41 169.559l-.68-.457-.37-.248-.061.091.37.248.68.457.061-.091z"/><path id="F" d="M18.786 171.978l-.68-.456-.37-.249-.061.091.37.249.68.456.061-.091z"/></defs></svg>