<svg width="80" height="80" viewBox="0 0 80 80" fill="none" xmlns="http://www.w3.org/2000/svg">
<g opacity="0.8">
<path d="M40.0001 39.3197C49.0631 39.3197 56.4104 32.0101 56.4104 22.9932C56.4104 13.9763 49.0631 6.66669 40.0001 6.66669C30.937 6.66669 23.5898 13.9763 23.5898 22.9932C23.5898 32.0101 30.937 39.3197 40.0001 39.3197Z" fill="#B7C4DB"/>
<path d="M48.5472 46.1227H31.4532C21.5386 46.1227 13.3335 54.2864 13.3335 64.15C13.3335 66.531 14.3591 68.572 16.4104 69.5924C19.4873 71.293 26.325 73.3334 40.0002 73.3334C53.6755 73.3334 60.5128 71.293 63.5898 69.5924C65.2992 68.572 66.6668 66.531 66.6668 64.15C66.6668 53.946 58.4618 46.1227 48.5472 46.1227Z" fill="#B7C4DB"/>
</g>
</svg>
