<svg width="24" height="24" viewBox="0 0 24 24" fill="none" xmlns="http://www.w3.org/2000/svg">
<path fill-rule="evenodd" clip-rule="evenodd" d="M12.0004 2C8.23485 2 5.18224 5.05261 5.18224 8.81818V14.7278H4.95443C4.0758 14.7278 3.36353 15.4401 3.36353 16.3187C3.36353 17.1974 4.0758 17.9096 4.95444 17.9096H19.0453C19.924 17.9096 20.6362 17.1974 20.6362 16.3187C20.6362 15.4401 19.924 14.7278 19.0453 14.7278H18.8186V8.81818C18.8186 5.0526 15.766 2 12.0004 2Z" fill="#201135"/>
<path d="M9.27304 19.2727C9.27304 19.996 9.58432 20.6897 10.1384 21.2012C10.6925 21.7127 11.444 22 12.2276 22C13.0112 22 13.7627 21.7127 14.3168 21.2012C14.8708 20.6897 15.1821 19.996 15.1821 19.2727L12.2276 19.2727H9.27304Z" fill="#201135"/>
</svg>
