<svg width="16" height="16" viewBox="0 0 16 16" fill="none" xmlns="http://www.w3.org/2000/svg">
<g clip-path="url(#clip0_307_2748)">
<path d="M9.66667 15.9996C9.44467 15.9996 9.236 15.8889 9.112 15.7029L7.97667 13.9996H6.66667C6.29867 13.9996 6 13.7009 6 13.3329C6 12.9649 6.29867 12.6662 6.66667 12.6662H8.33333C8.556 12.6662 8.764 12.7776 8.888 12.9629L9.584 14.0069L11.07 11.0342C11.1793 10.8169 11.3973 10.6756 11.6407 10.6662C11.8993 10.6602 12.1127 10.7809 12.238 10.9889L14.044 13.9996H15.3333C15.7013 13.9996 16 14.2982 16 14.6662C16 15.0342 15.7013 15.3329 15.3333 15.3329H13.6667C13.4327 15.3329 13.2153 15.2102 13.0953 15.0096L11.72 12.7176L10.2633 15.6316C10.1567 15.8442 9.94533 15.9842 9.708 15.9989C9.69467 15.9996 9.68067 15.9996 9.66667 15.9996Z" fill="#516078"/>
<path d="M5.99996 6.66667C7.84091 6.66667 9.33329 5.17428 9.33329 3.33333C9.33329 1.49238 7.84091 0 5.99996 0C4.15901 0 2.66663 1.49238 2.66663 3.33333C2.66663 5.17428 4.15901 6.66667 5.99996 6.66667Z" fill="#516078"/>
<path d="M4.66667 13.3333C4.66667 12.2307 5.564 11.3333 6.66667 11.3333H8.33333C8.67933 11.3333 9.01267 11.422 9.30533 11.5847L9.878 10.4387C10.1693 9.858 10.724 9.47733 11.354 9.376C10.7473 8.546 9.774 8 8.66667 8H3.33333C1.49267 8 0 9.49267 0 11.3333V13.5C0 13.776 0.224 14 0.5 14H4.78933C4.71467 13.7907 4.66667 13.568 4.66667 13.3333Z" fill="#516078"/>
</g>
<defs>
<clipPath id="clip0_307_2748">
<rect width="16" height="16" fill="white"/>
</clipPath>
</defs>
</svg>
