<svg width="21" height="18" viewBox="0 0 21 18" fill="none" xmlns="http://www.w3.org/2000/svg">
<path d="M18.5056 3.95293C18.8944 3.53441 19.1328 2.97434 19.1328 2.35938C19.1328 1.06703 18.0814 0.015625 16.7891 0.015625C15.4967 0.015625 14.4453 1.06703 14.4453 2.35938C14.4453 2.97434 14.6837 3.53441 15.0725 3.95293C13.8882 4.57352 13.0781 5.81496 13.0781 7.24219V8.41406C13.0781 8.73766 13.3405 9 13.6641 9H19.9141C20.2377 9 20.5 8.73766 20.5 8.41406V7.24219C20.5 5.81496 19.69 4.57352 18.5056 3.95293ZM16.7891 1.1875C17.4352 1.1875 17.9609 1.7132 17.9609 2.35938C17.9609 3.00555 17.4352 3.53125 16.7891 3.53125C16.1429 3.53125 15.6172 3.00555 15.6172 2.35938C15.6172 1.7132 16.1429 1.1875 16.7891 1.1875ZM19.3281 7.82812H14.25V7.24219C14.25 5.84215 15.389 4.70312 16.7891 4.70312C18.1891 4.70312 19.3281 5.84215 19.3281 7.24219V7.82812Z" fill="white"/>
<path d="M7.92188 8.41406V7.24219C7.92188 5.81496 7.11184 4.57352 5.92746 3.95293C6.31629 3.53441 6.55469 2.97434 6.55469 2.35938C6.55469 1.06703 5.50328 0.015625 4.21094 0.015625C2.91859 0.015625 1.86719 1.06703 1.86719 2.35938C1.86719 2.97434 2.10559 3.53441 2.49441 3.95293C1.31004 4.57352 0.5 5.81496 0.5 7.24219V8.41406C0.5 8.73766 0.762344 9 1.08594 9H7.33594C7.65953 9 7.92188 8.73766 7.92188 8.41406ZM4.21094 1.1875C4.85711 1.1875 5.38281 1.7132 5.38281 2.35938C5.38281 3.00555 4.85711 3.53125 4.21094 3.53125C3.56477 3.53125 3.03906 3.00555 3.03906 2.35938C3.03906 1.7132 3.56477 1.1875 4.21094 1.1875ZM6.75 7.82812H1.67188V7.24219C1.67188 5.84215 2.8109 4.70312 4.21094 4.70312C5.61098 4.70312 6.75 5.84215 6.75 7.24219V7.82812Z" fill="white"/>
<path d="M17.2034 10.7341C16.9745 10.5053 16.6036 10.5053 16.3747 10.7341L14.031 13.0779C13.8021 13.3067 13.8021 13.6777 14.031 13.9065C14.2598 14.1354 14.6308 14.1354 14.8596 13.9065L16.2031 12.563V16.8125H4.79688V11.1484C4.79688 10.8248 4.53453 10.5625 4.21094 10.5625C3.88734 10.5625 3.625 10.8248 3.625 11.1484V17.3984C3.625 17.722 3.88734 17.9844 4.21094 17.9844H16.7891C17.1127 17.9844 17.375 17.722 17.375 17.3984V12.563L18.7185 13.9065C18.9473 14.1354 19.3183 14.1354 19.5471 13.9065C19.776 13.6777 19.776 13.3067 19.5471 13.0779L17.2034 10.7341Z" fill="white"/>
</svg>
