<svg width="25" height="24" viewBox="0 0 25 24" fill="none" xmlns="http://www.w3.org/2000/svg">
<path d="M5.66087 11.6226C5.68086 7.54823 8.99414 4.25 13.0803 4.25C17.1788 4.25 20.4998 7.56826 20.4998 11.6596C20.4998 12.0738 20.8356 12.4096 21.2498 12.4096C21.664 12.4096 21.9998 12.0738 21.9998 11.6596C21.9998 6.73812 18.0056 2.75 13.0803 2.75C8.15504 2.75 4.16078 6.73812 4.16078 11.6596V11.6976L4.49764 15.0161C4.4954 15.0375 4.49117 15.0699 4.48326 15.1116C4.4636 15.2154 4.42153 15.3752 4.33192 15.5658C4.15703 15.9378 3.7843 16.4639 2.96264 16.9253C2.77049 17.0332 2.56793 17.2207 2.47847 17.5098C2.38914 17.7984 2.44963 18.0686 2.54711 18.2693C2.72477 18.6352 3.08568 18.9126 3.46315 19.1242C4.25678 19.5691 5.60449 19.9859 7.63495 20.2415L9.11348 20.5148C9.52079 20.5901 9.91202 20.3209 9.98731 19.9136C10.0626 19.5063 9.79345 19.1151 9.38613 19.0398L7.86463 18.7585L7.84288 18.7558C5.9784 18.5227 4.85972 18.1623 4.27937 17.8604C5.01399 17.3245 5.44366 16.7266 5.68937 16.204C5.8395 15.8847 5.91704 15.602 5.95705 15.3908C5.97706 15.2852 5.98776 15.1971 5.99345 15.1306C5.99631 15.0974 5.99791 15.0694 5.9988 15.0473C5.99925 15.0363 5.99952 15.0267 5.99967 15.0186L5.99982 15.0076L5.99985 15.003L5.99986 15.0009V14.9989L5.9998 14.9615L5.66087 11.6226Z" fill="white"/>
<path d="M13.55 16.5C13.55 16.9142 13.2143 17.25 12.8 17.25C12.3858 17.25 12.05 16.9142 12.05 16.5C12.05 16.0858 12.3858 15.75 12.8 15.75C13.2143 15.75 13.55 16.0858 13.55 16.5Z" fill="white"/>
<path d="M16.05 16.5C16.05 16.9142 15.7143 17.25 15.3 17.25C14.8858 17.25 14.55 16.9142 14.55 16.5C14.55 16.0858 14.8858 15.75 15.3 15.75C15.7143 15.75 16.05 16.0858 16.05 16.5Z" fill="white"/>
<path d="M17.8 17.25C18.2143 17.25 18.55 16.9142 18.55 16.5C18.55 16.0858 18.2143 15.75 17.8 15.75C17.3858 15.75 17.05 16.0858 17.05 16.5C17.05 16.9142 17.3858 17.25 17.8 17.25Z" fill="white"/>
<path fill-rule="evenodd" clip-rule="evenodd" d="M20.6688 17.7682L20.8647 15.8377V15.7998C20.8647 12.7339 18.3766 10.25 15.3091 10.25C12.2417 10.25 9.75354 12.7339 9.75354 15.7998V15.9979C9.75354 19.9586 13.6683 22.7306 17.4081 21.4233L17.7554 21.3019L18.5597 21.1532C19.767 21.0005 20.6019 20.749 21.1173 20.4601C21.3558 20.3264 21.6364 20.1245 21.7829 19.8227C21.8648 19.6541 21.922 19.4132 21.8405 19.1498C21.7589 18.8859 21.5752 18.7197 21.4119 18.628C20.986 18.3888 20.8109 18.1281 20.7347 17.9661C20.6945 17.8805 20.677 17.8118 20.6696 17.7729L20.6688 17.7682ZM19.3646 15.7634L19.1653 17.7262L19.1653 17.7637L19.9153 17.7647C19.1653 17.7637 19.1653 17.7637 19.1653 17.7637V17.7656L19.1653 17.7676L19.1653 17.7719L19.1654 17.7815L19.1661 17.805C19.1669 17.8225 19.1681 17.8435 19.1702 17.8679C19.1743 17.9166 19.182 17.9789 19.1959 18.0521C19.2236 18.1984 19.2765 18.39 19.3773 18.6044C19.49 18.8441 19.6577 19.1017 19.9021 19.3508C19.5533 19.4637 19.0492 19.5804 18.3517 19.6676L18.3299 19.6703L17.3693 19.8478L16.9131 20.0073C14.146 20.9746 11.2535 18.9229 11.2535 15.9979V15.7998C11.2535 13.564 13.0684 11.75 15.3091 11.75C17.5377 11.75 19.345 13.5444 19.3646 15.7634Z" fill="white"/>
</svg>
