<svg width="16" height="16" viewBox="0 0 16 16" fill="none" xmlns="http://www.w3.org/2000/svg">
<path fill-rule="evenodd" clip-rule="evenodd" d="M11.4999 6.99999C11.4999 7.59093 11.3835 8.1761 11.1573 8.72206C10.9312 9.26803 10.5997 9.7641 10.1819 10.182C9.76401 10.5998 9.26794 10.9313 8.72197 11.1575C8.17601 11.3836 7.59085 11.5 6.9999 11.5C6.40895 11.5 5.82379 11.3836 5.27782 11.1575C4.73186 10.9313 4.23578 10.5998 3.81792 10.182C3.40005 9.7641 3.06859 9.26803 2.84244 8.72206C2.61629 8.1761 2.4999 7.59093 2.4999 6.99999C2.4999 5.80651 2.974 4.66192 3.81792 3.81801C4.66183 2.97409 5.80642 2.49999 6.9999 2.49999C8.19337 2.49999 9.33796 2.97409 10.1819 3.81801C11.0258 4.66192 11.4999 5.80651 11.4999 6.99999ZM10.6799 11.74C9.47428 12.676 7.95727 13.1173 6.4377 12.9741C4.91813 12.831 3.51024 12.1141 2.50065 10.9694C1.49105 9.8247 0.955652 8.33828 1.00343 6.81274C1.05122 5.28719 1.6786 3.83719 2.75785 2.75794C3.83711 1.67869 5.2871 1.05131 6.81265 1.00352C8.3382 0.955741 9.82461 1.49114 10.9693 2.50074C12.114 3.51033 12.8309 4.91822 12.974 6.43779C13.1172 7.95735 12.6759 9.47436 11.7399 10.68L14.7799 13.72C14.8536 13.7887 14.9127 13.8715 14.9537 13.9635C14.9947 14.0555 15.0167 14.1548 15.0185 14.2555C15.0203 14.3562 15.0017 14.4562 14.964 14.5496C14.9263 14.643 14.8701 14.7278 14.7989 14.799C14.7277 14.8703 14.6429 14.9264 14.5495 14.9641C14.4561 15.0018 14.3561 15.0204 14.2554 15.0186C14.1547 15.0168 14.0553 14.9948 13.9634 14.9538C13.8714 14.9128 13.7886 14.8537 13.7199 14.78L10.6799 11.74Z" fill="#597173"/>
</svg>
