<svg width="16" height="16" viewBox="0 0 16 16" fill="none" xmlns="http://www.w3.org/2000/svg">
<g clip-path="url(#clip0_57_263)">
<path d="M1.51606 8.90665V3.90669C1.51606 3.56057 1.24718 3.28 0.915517 3.28C0.583827 3.28 0.314941 3.56057 0.314941 3.90669V12.0933C0.314941 12.4395 0.583827 12.72 0.915517 12.72C1.24718 12.72 1.51606 12.4395 1.51606 12.0933V10.9193L13.8174 10.8891V12.0632C13.8174 12.4093 14.0862 12.6899 14.4179 12.6899C14.7496 12.6899 15.0184 12.4093 15.0184 12.0632V10.8891V9.24985V8.87648L1.51606 8.90665Z" fill="#224F68"/>
<path d="M15.0184 8.36982H5.88867V6.00982C5.88867 5.32499 6.42071 4.76982 7.07701 4.76982H12.6194C13.9443 4.76982 15.0184 5.89059 15.0184 7.27315V8.36982Z" fill="#224F68"/>
<path d="M3.75182 8.09984C4.56156 8.09984 5.21799 7.41487 5.21799 6.56992C5.21799 5.72497 4.56156 5.04 3.75182 5.04C2.94207 5.04 2.28564 5.72497 2.28564 6.56992C2.28564 7.41487 2.94207 8.09984 3.75182 8.09984Z" fill="#224F68"/>
</g>
<defs>
<clipPath id="clip0_57_263">
<rect width="15.3333" height="16" fill="white"/>
</clipPath>
</defs>
</svg>
