<svg xmlns="http://www.w3.org/2000/svg" width="198" height="105" fill="none" xmlns:v="https://vecta.io/nano"><g clip-path="url(#A)"><g fill-rule="evenodd" fill="#0070c0"><path d="M52.335 5.834c-24.809 0-45.083 19.482-46.446 44.028L.01 51.437C.575 22.933 23.785 0 52.335 0c26.371 0 48.187 19.566 51.807 45.017l-5.664 1.518c-2.92-22.956-22.465-40.7-46.143-40.7zm46.516 47.237c-.305 25.51-21.014 46.095-46.516 46.095-25.118 0-45.586-19.97-46.488-44.946L.099 55.76C1.778 83.237 24.523 105 52.335 105c28.904 0 52.335-23.505 52.335-52.5l-.009-.985-5.81 1.557z"/><path d="M46.677 18.277c1.6-.645 2.73-2.216 2.73-4.051 0-2.41-1.948-4.364-4.35-4.364s-4.35 1.954-4.35 4.364a4.36 4.36 0 0 0 1.546 3.336l-.634 2.828-6.629-1.013-5.962-8.341-3.636 2.615 5.86 8.199-.236 1.435 1.431.237.005.007.493.075 2.428.402.005-.03 15.085 2.305 5.599 7.578-5.591 4.992H57.2l3.342-2.983 5.228-4.646 15.732 2.455-.868 5.174h4.536l.752-4.484 9.645 1.505 1.634.285-.947-4.719-29.678-4.632.002-.01-4.356-.721-.444 2.698-2.358 2.095-6.461-8.745-6.907-1.055.625-2.79zm28.75 52.598h-10.18l14.758 20.082 3.601-2.663L72.469 73.14l2.959-2.265zm-16.118 0h-21.97l18.672 3.062 6.588 8.648-8.435 4.491c-.632-.359-1.362-.564-2.141-.564-2.403 0-4.35 1.954-4.35 4.364s1.948 4.364 4.35 4.364c2.368 0 4.294-1.898 4.349-4.26l8.98-4.781 7.138 9.37 3.555-2.725-16.736-21.97zm-24.252 0h-4.564l-2.734 13.72 10.695 1.731-1.8 10.836 4.413.738 2.539-15.286-10.549-1.707 2-10.032zm-19.589 0h8.695c-.086 2.334-2 4.2-4.347 4.2s-4.261-1.865-4.347-4.199zM10.905 38.85h5.422l-5.545-8.124-3.691 2.535 3.815 5.588zm17.546 0h4.563l.354-1.765-5.147-7.099-.138.101a4.36 4.36 0 0 0 .425-1.884c0-2.41-1.948-4.364-4.35-4.364s-4.35 1.954-4.35 4.364 1.948 4.364 4.351 4.364c.196 0 .389-.013.578-.038l-.133.097 3.992 5.506-.144.719zm8.424 0h4.567l.298-1.493.099-.503c1.623-.633 2.773-2.216 2.773-4.069 0-2.41-1.948-4.364-4.35-4.364s-4.35 1.954-4.35 4.364a4.36 4.36 0 0 0 1.513 3.308l-.549 2.756zm33.967 0a4.33 4.33 0 0 0-2.941-1.148c-1.134 0-2.167.435-2.941 1.148h5.881zM58.877 20.995c1.32 0 2.504-.59 3.301-1.522l17.426 2.471.889-10.266-4.457-.388-.48 5.548-12.624-1.79c-.632-1.628-2.209-2.781-4.055-2.781-2.403 0-4.35 1.954-4.35 4.364s1.947 4.364 4.35 4.364zm42.147 27.917c2.886 0 5.225-2.347 5.225-5.242s-2.339-5.242-5.225-5.242-5.225 2.347-5.225 5.242 2.339 5.242 5.225 5.242z"/></g><path d="M25.444 60.887c0 1.076-.216 2.04-.649 2.891a6.72 6.72 0 0 1-1.73 2.169c-.705.594-1.521 1.053-2.45 1.373s-1.89.482-2.883.482a8.26 8.26 0 0 1-1.97-.241l-1.874-.481-1.585-.482c-.48-.161-.873-.241-1.177-.241-.192 0-.36.048-.505.144a1.12 1.12 0 0 0-.336.338c-.08.144-.144.297-.192.458l-.096.506H9.35v-8.506h.649c.128 1.044.376 2 .745 2.868s.857 1.614 1.465 2.241a6.65 6.65 0 0 0 2.186 1.446c.865.337 1.842.506 2.931.506a6.48 6.48 0 0 0 1.753-.241 4.91 4.91 0 0 0 1.561-.771 4.03 4.03 0 0 0 1.129-1.253c.288-.514.432-1.108.432-1.783 0-.707-.192-1.341-.577-1.904-.368-.578-.857-1.109-1.465-1.591-.609-.498-1.305-.964-2.09-1.398l-2.402-1.349-2.378-1.422a12.78 12.78 0 0 1-2.09-1.639 8.44 8.44 0 0 1-1.489-2c-.368-.739-.553-1.574-.553-2.506 0-1.012.192-1.92.577-2.723.4-.803.929-1.478 1.585-2.024.656-.562 1.409-.988 2.258-1.277a8.5 8.5 0 0 1 2.714-.434 6.43 6.43 0 0 1 1.658.217l1.585.482 1.393.458c.416.145.761.217 1.033.217.192 0 .352-.048.48-.145s.24-.209.336-.337a1.71 1.71 0 0 0 .216-.458 3.43 3.43 0 0 0 .144-.434h.697v8.482h-.697c-.08-.964-.288-1.872-.624-2.723-.336-.867-.793-1.614-1.369-2.241a6.02 6.02 0 0 0-2.042-1.518c-.801-.386-1.721-.578-2.762-.578a4.83 4.83 0 0 0-1.585.265 4.55 4.55 0 0 0-1.393.771c-.4.321-.729.715-.985 1.181-.24.45-.36.964-.36 1.542 0 .675.192 1.285.576 1.831s.889 1.052 1.513 1.518c.641.466 1.361.916 2.162 1.349l2.45 1.301 2.474 1.398a12.43 12.43 0 0 1 2.138 1.663 7.54 7.54 0 0 1 1.537 2.048c.384.739.576 1.591.576 2.555zm25.344-6.121c0 1.751-.288 3.414-.865 4.988s-1.393 2.964-2.45 4.169c-1.041 1.189-2.306 2.136-3.795 2.843-1.473.691-3.123 1.036-4.948 1.036s-3.483-.345-4.972-1.036a11.79 11.79 0 0 1-3.795-2.795c-1.041-1.189-1.841-2.57-2.402-4.145s-.841-3.245-.841-5.012c0-1.783.296-3.446.889-4.988.609-1.558 1.457-2.908 2.546-4.048 1.089-1.157 2.386-2.064 3.891-2.723 1.505-.675 3.163-1.012 4.972-1.012 1.778 0 3.387.345 4.828 1.036 1.441.675 2.674 1.599 3.699 2.771 1.041 1.157 1.842 2.506 2.402 4.048a14.15 14.15 0 0 1 .841 4.867zm-4.132.241a26.77 26.77 0 0 0-.144-2.747 16.37 16.37 0 0 0-.456-2.699c-.224-.867-.529-1.679-.913-2.434s-.873-1.414-1.465-1.976-1.305-1.004-2.138-1.325c-.817-.337-1.786-.506-2.907-.506-1.025 0-1.93.169-2.714.506-.769.321-1.441.763-2.018 1.325s-1.057 1.221-1.441 1.976a13.19 13.19 0 0 0-.937 2.41c-.224.835-.384 1.703-.48 2.602a23.84 23.84 0 0 0-.144 2.578 24.31 24.31 0 0 0 .144 2.578 16.5 16.5 0 0 0 .504 2.651c.24.867.553 1.695.937 2.482s.865 1.478 1.441 2.072 1.257 1.068 2.042 1.422 1.689.53 2.714.53c1.073 0 2.01-.161 2.81-.482.817-.321 1.521-.755 2.114-1.301a7.34 7.34 0 0 0 1.465-1.952 11.36 11.36 0 0 0 .937-2.386 15.85 15.85 0 0 0 .505-2.627 25.85 25.85 0 0 0 .144-2.699zM76.66 43.224c-.737 0-1.337.064-1.802.193s-.824.345-1.081.651-.432.707-.529 1.205c-.096.482-.144 1.076-.144 1.783V57.08c0 1.687-.16 3.197-.48 4.53-.304 1.317-.825 2.433-1.561 3.349-.721.916-1.69 1.623-2.907 2.121-1.217.481-2.73.722-4.54.722-2.002 0-3.635-.249-4.9-.747-1.249-.498-2.226-1.221-2.931-2.169-.704-.964-1.185-2.137-1.441-3.518-.24-1.398-.36-2.988-.36-4.771V46.91c0-.675-.032-1.245-.096-1.711s-.208-.843-.432-1.133c-.208-.305-.529-.522-.961-.651-.416-.129-.985-.193-1.705-.193v-.651h9.873v.651c-.705 0-1.266.064-1.681.193s-.737.345-.961.651c-.224.289-.376.667-.456 1.133-.064.466-.096 1.036-.096 1.711v10.771c0 1.141.072 2.233.216 3.277.16 1.029.464 1.936.913 2.723a5.16 5.16 0 0 0 1.946 1.855c.849.45 1.954.675 3.315.675a9.51 9.51 0 0 0 3.171-.53c1.008-.353 1.921-.916 2.738-1.686.4-.37.713-.851.937-1.446a10.75 10.75 0 0 0 .504-1.904 14.29 14.29 0 0 0 .192-2l.048-1.759V46.91c0-.771-.04-1.39-.12-1.855-.064-.482-.224-.859-.48-1.133-.24-.273-.592-.458-1.057-.554s-1.081-.145-1.85-.145v-.651h8.72v.651z" fill="#0070c0"/><path d="M94.798 67.152H75.726v-.699c.576 0 1.089-.032 1.537-.097.449-.08.817-.225 1.105-.434.304-.225.536-.538.696-.94s.24-.932.24-1.59V46.284c0-.643-.08-1.165-.24-1.566s-.392-.707-.696-.916c-.288-.225-.656-.378-1.105-.458s-.961-.12-1.537-.12v-.699H86.39v.699c-.592 0-1.113.04-1.561.12s-.825.233-1.129.458c-.305.209-.536.514-.697.916s-.24.924-.24 1.566v16.217c0 .61.048 1.116.144 1.518.096.386.257.699.481.94.24.225.56.386.961.482.4.08.905.121 1.514.121h2.45c1.185 0 2.178-.065 2.979-.193.801-.145 1.489-.402 2.066-.771.593-.386 1.113-.916 1.561-1.591.448-.69.905-1.582 1.37-2.674l.624.096-2.114 6.723zm33.529-6.266c-1.048 1.888-2.369 3.372-3.964 4.453-1.579 1.066-3.463 1.599-5.65 1.599-1.731 0-3.296-.305-4.693-.913s-2.59-1.446-3.577-2.512-1.746-2.322-2.278-3.768-.797-3.014-.797-4.704c0-1.736.281-3.357.843-4.864.577-1.522 1.382-2.847 2.415-3.974 1.048-1.142 2.293-2.04 3.736-2.695 1.458-.655 3.075-.982 4.852-.982a9.17 9.17 0 0 1 1.641.137 11.08 11.08 0 0 1 1.481.32 12.52 12.52 0 0 1 1.435.502l1.481.617c.227 0 .425-.053.592-.16a1.43 1.43 0 0 0 .41-.388 1.96 1.96 0 0 0 .251-.502l.182-.525h.615l.501 7.901h-.501a12.87 12.87 0 0 0-1.116-2.672c-.441-.822-.98-1.53-1.618-2.124-.623-.594-1.352-1.058-2.187-1.393s-1.792-.502-2.87-.502c-1.064 0-2.005.16-2.825.48-.805.304-1.519.731-2.142 1.279a7.95 7.95 0 0 0-1.549 1.918 11.91 11.91 0 0 0-1.003 2.375c-.243.837-.425 1.713-.546 2.626a22.57 22.57 0 0 0-.16 2.672c0 1.385.167 2.702.501 3.951s.851 2.344 1.55 3.288a7.62 7.62 0 0 0 2.711 2.238c1.108.548 2.43.822 3.964.822.972 0 1.822-.114 2.551-.343a7.17 7.17 0 0 0 2.005-.959 9.33 9.33 0 0 0 1.686-1.53 26.18 26.18 0 0 0 1.549-2.032l.524.365zm16.598 5.481v-.662c.258 0 .524-.015.797-.046.273-.046.524-.122.752-.228a1.62 1.62 0 0 0 .569-.434c.152-.198.228-.457.228-.776 0-.304-.091-.731-.273-1.279l-.615-1.69-.684-1.621-.478-1.073h-9.022l-.296.617-.433.959-.501 1.119-.479 1.165-.341 1.05c-.092.32-.137.571-.137.754 0 .305.099.556.296.754a2.15 2.15 0 0 0 .729.434 4.49 4.49 0 0 0 .889.228l.797.069v.662h-7.336v-.662c.547-.015 1.018-.145 1.413-.388s.736-.556 1.025-.936a6.16 6.16 0 0 0 .774-1.256l.616-1.393 8.224-19.206h.592l8.088 19.343.638 1.484a5.8 5.8 0 0 0 .752 1.187 3.47 3.47 0 0 0 1.048.822c.41.198.934.312 1.572.343v.662h-9.204zM140.778 47.8l-4.055 9.5h8.019l-3.964-9.5zm30.7 18.567l-7.883-10.893a7 7 0 0 1-.82.046h-.843-.41l-.41-.046v6.783c0 .715.038 1.302.114 1.758.091.442.258.792.501 1.05.243.244.585.411 1.025.502.456.091 1.048.137 1.777.137v.662h-9.979v-.662c.745 0 1.337-.046 1.777-.137s.775-.259 1.003-.502c.228-.259.372-.609.433-1.05.06-.457.091-1.043.091-1.758V47.138c0-.731-.031-1.317-.091-1.758-.061-.457-.205-.815-.433-1.073s-.562-.434-1.003-.525-1.032-.137-1.777-.137v-.617h8.772l2.096.069a13.64 13.64 0 0 1 2.118.297 10.37 10.37 0 0 1 1.982.639 5.21 5.21 0 0 1 1.641 1.073c.47.442.843.982 1.116 1.621s.41 1.401.41 2.284-.144 1.667-.433 2.352c-.288.67-.691 1.248-1.207 1.736a6.61 6.61 0 0 1-1.8 1.188 11.51 11.51 0 0 1-2.255.708l4.761 6.737 1.23 1.576a7.77 7.77 0 0 0 1.276 1.188c.456.335.957.601 1.504.799.562.198 1.215.335 1.959.411v.662h-6.242zm-2.62-17.082a5.44 5.44 0 0 0-.365-2.032c-.243-.609-.592-1.127-1.048-1.553-.44-.441-.972-.776-1.595-1.005-.607-.244-1.283-.365-2.027-.365-.441 0-.889.03-1.344.091l-1.367.206v9.728h.979a12.08 12.08 0 0 0 2.461-.251c.805-.167 1.526-.441 2.164-.822a4.72 4.72 0 0 0 1.549-1.553c.395-.655.593-1.469.593-2.443z" fill="#0070c0"/><path d="M195.593 66.367h-17.907v-.662c.729 0 1.306-.046 1.732-.137.44-.091.774-.259 1.002-.502.228-.259.38-.609.456-1.05.076-.457.114-1.043.114-1.758V47.047c0-.731-.031-1.317-.092-1.758s-.205-.784-.432-1.028-.562-.403-1.003-.48c-.44-.091-1.033-.137-1.777-.137v-.617h17.907l.273 5.093h-.638l-.569-1.85c-.167-.502-.403-.898-.706-1.187-.289-.289-.691-.495-1.208-.617-.501-.122-1.184-.183-2.05-.183h-6.425v9.226h5.126c.714 0 1.284-.046 1.709-.137.44-.107.79-.282 1.048-.525.273-.259.471-.601.592-1.028.137-.442.251-1.005.342-1.69h.638v8.153h-.638c-.091-.685-.205-1.248-.342-1.69-.121-.441-.311-.792-.569-1.05-.259-.274-.608-.464-1.048-.571-.426-.106-1.003-.16-1.732-.16h-5.126v7.673l.023 1.142a2.16 2.16 0 0 0 .228.822c.121.213.311.381.569.502.274.107.653.16 1.14.16h3.918c1.018 0 1.853-.084 2.506-.251s1.215-.434 1.686-.799c.486-.365.919-.837 1.299-1.416l1.275-2.124h.729l-2.05 5.846z" fill="#0070c0"/></g><defs><clipPath id="A"><path fill="#fff" d="M0 0h198v105H0z"/></clipPath></defs></svg>