<svg width="16" height="16" viewBox="0 0 16 16" fill="none" xmlns="http://www.w3.org/2000/svg">
<path d="M2.3 15.5002C1.8 15.5002 1.375 15.3252 1.025 14.9752C0.675 14.6252 0.5 14.2002 0.5 13.7002V11.0002H2V13.7002C2 13.7669 2.03333 13.8335 2.1 13.9002C2.16667 13.9669 2.23333 14.0002 2.3 14.0002H13.7C13.7667 14.0002 13.8333 13.9669 13.9 13.9002C13.9667 13.8335 14 13.7669 14 13.7002V11.0002H15.5V13.7002C15.5 14.2002 15.325 14.6252 14.975 14.9752C14.625 15.3252 14.2 15.5002 13.7 15.5002H2.3ZM7.25 11.6252V3.2252L4.775 5.6752L3.725 4.6002L8 0.325195L12.275 4.6002L11.225 5.6752L8.75 3.2252V11.6252H7.25Z" fill="#212121"/>
</svg>
